<svg version="1.1" xmlns="http://www.w3.org/2000/svg" xmlns:xlink="http://www.w3.org/1999/xlink" width="48" height="48"><defs><linearGradient x1="7.70248" y1="9.16697" x2="45.24728" y2="43.78278" gradientUnits="userSpaceOnUse" id="color-1"><stop offset="0" stop-color="#000000" stop-opacity="0.39"></stop><stop offset="1" stop-color="#000000" stop-opacity="0"></stop></linearGradient><filter id="dropshadow-base"><feColorMatrix type="matrix" values="0 0 0 0 0  0 0 0 0 0  0 0 0 0 0  0 0 0 .8 0"></feColorMatrix> <feOffset dx="0" dy="1"></feOffset> <feGaussianBlur stdDeviation="1"></feGaussianBlur> <feComposite in="SourceGraphic"></feComposite></filter><filter id="dropshadow-banner" x="-10%" y="-10%" width="120%" height="130%"><feColorMatrix type="matrix" values="0 0 0 0 0  0 0 0 0 0  0 0 0 0 0  0 0 0 .4 0"></feColorMatrix> <feOffset dx="0" dy="1"></feOffset> <feGaussianBlur stdDeviation="0.5"></feGaussianBlur> <feComposite in="SourceGraphic"></feComposite></filter></defs><g fill="none" fill-rule="nonzero" stroke="none" stroke-width="none" stroke-linecap="butt" stroke-linejoin="miter" stroke-miterlimit="10" stroke-dasharray="" stroke-dashoffset="0" font-family="none" font-weight="none" font-size="none" text-anchor="none" style="mix-blend-mode: normal"><path d="M7,43c-1.10457,0 -2,-0.89543 -2,-2v-34c0,-1.10457 0.89543,-2 2,-2h34c1.10457,0 2,0.89543 2,2v34c0,1.10457 -0.89543,2 -2,2z" id="base 1 9" fill="#ffffff" stroke-width="1"></path><path d="M34.02165,38.38933c-1.89344,1.94715 -3.48715,3.66217 -4.35866,4.61067l-1.4971,0l-4.16697,-4.16697c0,0 -1.11993,-1.24204 -2.83072,-3.04232c-1.11753,-1.0421 -2.23382,-2.06243 -3.27545,-3.10405l-4.94975,-4.94975c-1.36051,-1.36051 -2.59363,-2.75735 -3.53573,-4.28647h0.62053l-1.31599,-1.31599c-0.3128,-0.65721 -0.56389,-1.34197 -0.75004,-2.04555c-1.33643,-5.12753 2.64559,-10.69827 8.44134,-10.90963c2.56456,-0.09353 4.34679,0.94773 5.53689,2.13784l2.40926,2.40926c0.76034,-1.54606 2.85801,-4.70876 7.24553,-4.55391l-0.00002,0c2.41641,0.08823 4.51799,1.11027 6.05032,2.64261l4.94975,4.94975c0.13986,0.13986 0.27498,0.28397 0.40516,0.43202l0,8.83051h-0.29155l0.29155,0.29155l0,2.85275c-2.2929,3.29398 -5.87788,6.01852 -8.97835,9.21769zM28.94869,19.50202l-4.94975,-4.94975c0,0 -0.0097,-0.03009 -0.02997,-0.08577c-0.76413,-0.24232 -1.63259,-0.37336 -2.61613,-0.33749c-4.70469,0.17157 -8.21425,3.87464 -8.65404,8.00544h5.34074c0.18435,-0.00037 0.35745,0.07363 0.4836,0.19977l1.67153,1.67153l1.86779,-7.30567c0.0935,-0.36479 0.46503,-0.58469 0.82982,-0.49127c0.12028,0.03085 0.22774,0.09328 0.31285,0.17839l4.94975,4.94975c0.07506,0.07506 0.13274,0.16776 0.16649,0.27197l0.2601,0.81587l0.19042,-0.82218c0.08072,-0.36785 0.44432,-0.60063 0.81209,-0.51991c0.12913,0.02835 0.2452,0.09304 0.33611,0.18395l2.18969,2.18969l0.8555,-1.96964c0.10875,-0.2493 0.35534,-0.41006 0.62731,-0.40912h6.13667c0.12272,-0.32729 0.225,-0.68184 0.31365,-1.01596c0.46209,-1.78405 0.27683,-3.62468 -0.40667,-5.27366c-0.94861,-0.39004 -1.98729,-0.62545 -3.09174,-0.66577l0,0c-5.79573,-0.20454 -7.59582,5.37982 -7.59582,5.37982zM25.73032,32.20493c-0.09223,0.36513 -0.46298,0.58632 -0.82811,0.49409c-0.12065,-0.0305 -0.22914,-0.09295 -0.31515,-0.17896l-4.11987,-4.11987h-6.11017c0.4721,0.76627 1.01728,1.49931 1.61495,2.21122c0.80541,0.74929 1.61427,1.50826 2.39906,2.29304l4.94975,4.94975c0.17029,0.17029 0.33944,0.34179 0.50718,0.51467c0.10337,0.1053 0.20582,0.2099 0.30728,0.31372c0.50534,-0.5563 2.36514,-2.5913 4.72804,-5.02816l-2.04364,-2.04364c-0.07592,-0.07592 -0.13458,-0.17041 -0.16833,-0.27812l-0.38443,-1.20605z" fill="url(#color-1)" stroke-width="1"></path><path transform="translate(-15.11407,-15.11407) scale(1.62975,1.62975)" d="M30.17041,23.0436h3.10855c-1.2886,2.53955 -3.93275,4.44317 -6.16689,6.74843c-1.76974,1.81994 -3.11273,3.30937 -3.11273,3.30937c0,0 -1.34299,-1.48942 -3.14202,-3.32192c-2.04587,-2.10862 -4.4348,-3.88254 -5.81127,-6.11668h5.02053l1.17564,2.41404c0.05381,0.11145 0.15422,0.19334 0.27425,0.22368c0.22404,0.05659 0.45153,-0.07913 0.50812,-0.30317l1.25513,-4.86155l2.3471,7.36345c0.05679,0.18126 0.22859,0.30155 0.41838,0.29286c0.18722,-0.00816 0.34616,-0.13974 0.38909,-0.32215l1.03339,-4.49338l0.75308,1.77392c0.06548,0.15459 0.21703,0.25505 0.38491,0.25521c0.16688,0.00058 0.31818,-0.09806 0.38491,-0.25103zM28.66007,14.90197c3.55203,0.1297 5.99535,3.54784 5.1837,6.68149c-0.05439,0.20501 -0.11715,0.42256 -0.19245,0.62338h-3.7654c-0.16688,-0.00058 -0.31818,0.09806 -0.38491,0.25103l-0.89951,2.07097l-0.87859,-2.07097c-0.05251,-0.12609 -0.16322,-0.2186 -0.29663,-0.24789c-0.22566,-0.04953 -0.44876,0.0933 -0.49829,0.31901l-0.98737,4.26327l-2.32618,-7.29651c-0.04419,-0.13644 -0.15522,-0.24072 -0.29412,-0.27634c-0.22383,-0.05732 -0.4518,0.07761 -0.50917,0.30144l-1.32207,5.17115l-0.76981,-1.60239c-0.07039,-0.14366 -0.21656,-0.23461 -0.37654,-0.23429h-5.72341c-0.19193,-0.40326 -0.346,-0.82342 -0.46022,-1.25513c-0.82002,-3.1462 1.62331,-6.56435 5.17952,-6.69404c3.55621,-0.1297 4.66073,3.29682 4.66073,3.29682c0,0 1.10452,-3.42651 4.66073,-3.301z" fill="none" stroke-width="0"></path><g id="Capa_1 3" stroke-width="1"><g fill="#ed1b24"><path d="M32.13342,26.8597c-0.10876,0.2493 -0.35533,0.41005 -0.6273,0.40911c-0.27359,-0.00026 -0.52059,-0.16399 -0.6273,-0.41593l-1.22733,-2.89105l-1.68418,7.32309c-0.06998,0.29729 -0.32899,0.51173 -0.63412,0.52503c-0.30931,0.01415 -0.58929,-0.18188 -0.68185,-0.4773l-3.82519,-12.0006l-2.04556,7.92312c-0.09222,0.36513 -0.46298,0.58631 -0.82811,0.49409c-0.19561,-0.04943 -0.35925,-0.18291 -0.44695,-0.36454l-1.916,-3.93429h-8.18223c2.24329,3.64109 6.13667,6.53214 9.47093,9.96868c2.93196,2.98651 5.12071,5.41391 5.12071,5.41391c0,0 2.18875,-2.42739 5.07298,-5.39345c3.64109,-3.75701 7.9504,-6.85943 10.0505,-10.99828h-5.06616z"></path><path d="M31.59476,9.17246c-5.79574,-0.20456 -7.59583,5.37981 -7.59583,5.37981c0,0 -1.80009,-5.58437 -7.59583,-5.373c-5.79574,0.21137 -9.77776,5.78211 -8.44133,10.90964c0.18615,0.70359 0.43724,1.38834 0.75004,2.04556h9.32774c0.26072,-0.00051 0.49895,0.14771 0.61367,0.38184l1.25461,2.61149l2.15465,-8.42769c0.0935,-0.36479 0.46502,-0.58469 0.82981,-0.49127c0.22637,0.05804 0.40732,0.22799 0.47934,0.45036l3.7911,11.8915l1.60917,-6.94807c0.08071,-0.36786 0.44431,-0.60063 0.81209,-0.51991c0.21743,0.04773 0.39786,0.1985 0.48343,0.404l1.43189,3.37517l1.46598,-3.37517c0.10876,-0.2493 0.35533,-0.41005 0.6273,-0.40911h6.13667c0.12273,-0.32729 0.22501,-0.68185 0.31365,-1.01596c1.32279,-5.10707 -2.65922,-10.67781 -8.44815,-10.88918z"></path></g><g fill="#000000" font-family="Roboto, sans-serif" font-weight="400" font-size="14" text-anchor="start"></g><g fill="#000000" font-family="Roboto, sans-serif" font-weight="400" font-size="14" text-anchor="start"></g><g fill="#000000" font-family="Roboto, sans-serif" font-weight="400" font-size="14" text-anchor="start"></g><g fill="#000000" font-family="Roboto, sans-serif" font-weight="400" font-size="14" text-anchor="start"></g><g fill="#000000" font-family="Roboto, sans-serif" font-weight="400" font-size="14" text-anchor="start"></g><g fill="#000000" font-family="Roboto, sans-serif" font-weight="400" font-size="14" text-anchor="start"></g><g fill="#000000" font-family="Roboto, sans-serif" font-weight="400" font-size="14" text-anchor="start"></g><g fill="#000000" font-family="Roboto, sans-serif" font-weight="400" font-size="14" text-anchor="start"></g><g fill="#000000" font-family="Roboto, sans-serif" font-weight="400" font-size="14" text-anchor="start"></g><g fill="#000000" font-family="Roboto, sans-serif" font-weight="400" font-size="14" text-anchor="start"></g><g fill="#000000" font-family="Roboto, sans-serif" font-weight="400" font-size="14" text-anchor="start"></g><g fill="#000000" font-family="Roboto, sans-serif" font-weight="400" font-size="14" text-anchor="start"></g><g fill="#000000" font-family="Roboto, sans-serif" font-weight="400" font-size="14" text-anchor="start"></g><g fill="#000000" font-family="Roboto, sans-serif" font-weight="400" font-size="14" text-anchor="start"></g><g fill="#000000" font-family="Roboto, sans-serif" font-weight="400" font-size="14" text-anchor="start"></g></g><path d="M2,24c0,-12.15026 9.84974,-22 22,-22c12.15026,0 22,9.84974 22,22c0,12.15026 -9.84974,22 -22,22c-12.15026,0 -22,-9.84974 -22,-22z" id="base 1 5 1" fill="none" stroke-width="1"></path><path d="M2,24c0,-12.15026 9.84974,-22 22,-22c12.15026,0 22,9.84974 22,22c0,12.15026 -9.84974,22 -22,22c-12.15026,0 -22,-9.84974 -22,-22z" id="base 1 1 1" fill="none" stroke-width="1"></path><g id="Capa_1 1 1" fill="#000000" stroke-width="1" font-family="Roboto, sans-serif" font-weight="400" font-size="14" text-anchor="start"><g></g><g></g><g></g><g></g><g></g><g></g><g></g><g></g><g></g><g></g><g></g><g></g><g></g><g></g><g></g></g><rect x="2" y="2" width="44" height="22" fill="none" stroke-width="1"></rect><path d="M2,24v-22h44v22z" fill="none" stroke-width="1"></path><path d="M2,24v-22h44v22z" fill="none" stroke-width="1"></path><path d="M2,24v-22h44v22z" fill="none" stroke-width="1"></path><path d="M2,24v-22h44v22z" fill="none" stroke-width="1"></path><g id="Capa_1 2 1" fill="#000000" stroke-width="1" font-family="Roboto, sans-serif" font-weight="400" font-size="14" text-anchor="start"><g></g><g></g><g></g><g></g><g></g><g></g><g></g><g></g><g></g><g></g><g></g><g></g><g></g><g></g><g></g><g></g></g><path d="M13,36v-12h30v12z" id="banner 1" fill="#6a6a6e" stroke-width="1" filter="url(#dropshadow-banner)"></path><text x="28" y="33" fill="#ffffff" stroke-width="1" font-family="sans-serif" font-weight="bold" font-size="8" text-anchor="middle">DEV</text><rect x="2" y="2" width="44" height="22" fill="none" stroke-width="1"></rect><path d="M2,24v-22h44v22z" fill="none" stroke-width="1"></path><path d="M2,24v-22h44v22z" fill="none" stroke-width="1"></path><path d="M2,24v-22h44v22z" fill="none" stroke-width="1"></path><path d="M2,24v-22h44v22z" fill="none" stroke-width="1"></path></g></svg>