<svg id="Layer_1" enable-background="new 0 0 512 512" height="512" viewBox="0 0 512 512" width="512" xmlns="http://www.w3.org/2000/svg"><g><g><g><path d="m512 256c0 56.5-18.31 108.72-49.31 151.06-46.57 63.62-121.81 39.523-206.69 39.523s-160.12 24.097-206.69-39.523c-31-42.34-49.31-94.56-49.31-151.06 0-141.38 114.62-256 256-256s256 114.62 256 256z" fill="#ff57cc"/></g></g><path d="m256 446.583c84.88 0 160.12 24.097 206.69-39.523 31-42.34 49.31-94.56 49.31-151.06 0-10.754-.672-21.35-1.96-31.755l-160.725-160.725-151.801 298.078-148.204 45.462c46.57 63.62 121.81 39.523 206.69 39.523z" fill="#e224ba"/><g><path d="m365.5 86.75c-33.333-64.333-109.5-61.083-109.5-61.083s-76.167-3.25-109.5 61.083c-25.598 49.405-40.436 163.583 56.699 204.25h52.801 52.802c97.134-40.667 82.296-154.845 56.698-204.25z" fill="#584b66"/><path d="m308.8 291h-52.8v-265.33s76.17-3.25 109.5 61.08c25.6 49.4 40.44 163.58-56.7 204.25z" fill="#3d3449"/><path d="m199.97 260.488h112.06v118.84h-112.06z" fill="#f7a969"/><path d="m256 260.491h56.03v118.84h-56.03z" fill="#ea8d4e"/><path d="m385.54 332.29h-73.51v.002h-112.06v-.002h-73.5c-41.82 0-75.88 33.26-77.16 74.77 46.57 63.62 121.81 104.94 206.69 104.94s160.12-41.32 206.69-104.94c-1.27-41.52-35.32-74.77-77.15-74.77z" fill="#ffea92"/><path d="m462.69 407.06c-46.57 63.62-121.81 104.94-206.69 104.94v-179.71h129.54c41.83 0 75.88 33.25 77.15 74.77z" fill="#f7d854"/><g><path d="m176.5 395.971s-47.281 33.75 0 69c47.281-35.25 0-69 0-69z" fill="#584b66"/><path d="m335.5 395.971s-47.281 33.75 0 69c47.281-35.25 0-69 0-69z" fill="#3d3449"/></g><g><path d="m205.482 299.501c-1.348-1.103-2.879-1.858-4.54-2.288 1.238-1.353 2.435-2.807 3.572-4.364 10.521-14.402 12.076-31.784 3.471-38.825-7.782-6.368-21.207-8.583-31.486 2.946-10.279-11.529-23.704-9.314-31.486-2.946-8.604 7.041-7.05 24.423 3.471 38.825 1.137 1.556 2.334 3.01 3.572 4.364-1.661.43-3.193 1.186-4.54 2.288-7.92 6.481-6.489 22.481 3.196 35.737 1.077 1.474 2.212 2.848 3.387 4.124-1.234.4-2.379 1.01-3.403 1.848-7.051 5.77-5.777 20.015 2.845 31.818 6.71 9.185 15.892 14.181 22.958 13.227 7.066.954 16.249-4.043 22.958-13.227 8.622-11.802 9.896-26.048 2.845-31.818-1.025-.838-2.17-1.449-3.403-1.848 1.175-1.276 2.31-2.65 3.387-4.124 9.685-13.256 11.116-29.256 3.196-35.737z" fill="#584b66"/><path d="m364.482 299.501c-1.347-1.103-2.879-1.858-4.54-2.288 1.238-1.353 2.435-2.807 3.572-4.364 10.521-14.402 12.076-31.784 3.471-38.825-7.782-6.368-21.207-8.583-31.486 2.946-10.279-11.529-23.704-9.314-31.486-2.946-8.604 7.041-7.05 24.423 3.471 38.825 1.137 1.556 2.334 3.01 3.572 4.364-1.661.43-3.193 1.186-4.54 2.288-7.92 6.481-6.489 22.481 3.196 35.737 1.077 1.474 2.211 2.848 3.387 4.124-1.234.4-2.379 1.01-3.403 1.848-7.051 5.77-5.777 20.015 2.845 31.818 6.71 9.185 15.892 14.181 22.958 13.227 7.066.954 16.249-4.043 22.958-13.227 8.622-11.802 9.896-26.048 2.845-31.818-1.025-.838-2.17-1.449-3.403-1.848 1.175-1.276 2.31-2.65 3.387-4.124 9.685-13.256 11.116-29.256 3.196-35.737z" fill="#3d3449"/></g><path d="m349.62 151.149c-3.955-60.043-52.523-82.233-93.62-82.233s-89.665 22.19-93.62 82.233c-10.628 2.055-18.177 15.995-16.988 27.265l1.822 25.648c1.247 11.835 11.65 20.476 23.115 19.19l1.977-.214c23.485 63.063 60.316 69.638 83.694 73.33 23.378-3.692 60.209-10.267 83.694-73.33l1.977.214c11.465 1.286 21.868-7.354 23.115-19.19l1.822-25.648c1.189-11.27-6.36-25.21-16.988-27.265z" fill="#ffbf85"/><path d="m366.609 178.414-1.822 25.648c-1.247 11.835-11.65 20.476-23.115 19.19l-1.977-.214c-8.027 21.528-17.602 36.48-27.664 46.971-19.404 20.242-40.629 23.924-56.03 26.359v-227.452c41.097 0 89.665 22.19 93.62 82.233 10.627 2.055 18.176 15.995 16.988 27.265z" fill="#f7a969"/><path d="m273.382 44.558-17.382-.891-17.382.891c-32.514 1.667-61.63 21.662-73.736 51.884-6.714 16.76-8.086 35.861-2.502 54.707l9.926 37.184 15.361-34h68.333 68.333l15.361 34 9.926-37.184c5.585-18.846 4.213-37.947-2.502-54.707-12.106-30.223-41.221-50.218-73.736-51.884z" fill="#584b66"/><path d="m353.09 127.34c0 7.85-1.11 15.85-3.47 23.81l-9.93 37.18-15.36-34h-68.33v-110.66l17.38.89c32.52 1.66 61.63 21.66 73.74 51.88 3.88 9.69 5.97 20.15 5.97 30.9z" fill="#3d3449"/><path d="m275.826 204.523c-11.431-9.719-28.221-9.719-39.652 0-12.748 10.838-28.758 17.094-45.477 17.771l-18.392.744 1.233 7.414c6.705 40.322 41.586 69.882 82.461 69.882 41.791-2.318 76.381-33.318 83.247-74.606l.447-2.69-18.392-.744c-16.717-.677-32.727-6.933-45.475-17.771z" fill="#efebdc"/><path d="m339.69 223.04-.44 2.69c-3.43 20.65-12.49 39.84-27.22 53.04s-35.13 20.41-56.03 21.56v-103.1c7.06 0 14.12 2.43 19.83 7.29 12.74 10.84 28.75 17.1 45.47 17.77z" fill="#d6cfbd"/><path d="m187.901 409.627h-22.801c-8.093 0-14.715-6.622-14.715-14.715v-5.214c0-8.093 6.622-14.715 14.715-14.715h22.801c8.093 0 14.715 6.622 14.715 14.715v5.214c0 8.093-6.622 14.715-14.715 14.715z" fill="#ff4571"/><path d="m346.901 409.627h-22.801c-8.093 0-14.715-6.622-14.715-14.715v-5.214c0-8.093 6.622-14.715 14.715-14.715h22.801c8.093 0 14.715 6.622 14.715 14.715v5.214c0 8.093-6.622 14.715-14.715 14.715z" fill="#e52541"/></g></g></svg>