<svg id="Layer_1" enable-background="new 0 0 512 512" height="512" viewBox="0 0 512 512" width="512" xmlns="http://www.w3.org/2000/svg"><g><g><g><path d="m512 256c0 56.5-18.31 108.72-49.31 151.06-46.57 63.62-121.81 39.523-206.69 39.523s-160.12 24.097-206.69-39.523c-31-42.34-49.31-94.56-49.31-151.06 0-141.38 114.62-256 256-256s256 114.62 256 256z" fill="#ffd110"/></g></g><path d="m256 446.583c84.88 0 160.12 24.097 206.69-39.523 31-42.34 49.31-94.56 49.31-151.06 0-21.145-2.582-41.684-7.416-61.338l-144.944-144.945-214.881 157.612 40.742 40.794c4.639 16.842 7.33 24.277 7.33 24.277l26.791 26.852-11.157 41.532-159.155 66.276c46.571 63.62 121.81 39.523 206.69 39.523z" fill="#efb000"/><path d="m199.97 260.488h112.06v118.84h-112.06z" fill="#af4b00"/><path d="m256 260.491h56.03v118.84h-56.03z" fill="#7f3706"/><path d="m385.54 332.29h-73.51v.002h-112.06v-.002h-73.5c-41.82 0-75.88 33.26-77.16 74.77 46.57 63.62 121.81 104.94 206.69 104.94s160.12-41.32 206.69-104.94c-1.27-41.52-35.32-74.77-77.15-74.77z" fill="#d36c18"/><path d="m462.69 407.06c-46.57 63.62-121.81 104.94-206.69 104.94v-179.71h129.54c41.83 0 75.88 33.25 77.15 74.77z" fill="#af4b00"/><g><path d="m359.7 132.087c-4.381-66.508-58.178-91.087-103.7-91.087s-99.32 24.579-103.7 91.087c-11.772 2.277-20.134 17.717-18.817 30.201l2.018 28.409c1.381 13.11 12.904 22.68 25.604 21.256l2.19-.237c26.014 69.853 66.81 77.136 92.705 81.225 25.895-4.089 66.691-11.372 92.705-81.225l2.19.237c12.7 1.424 24.223-8.146 25.604-21.256l2.018-28.409c1.317-12.484-7.045-27.924-18.817-30.201z" fill="#d36c18"/><path d="m378.517 162.287-2.018 28.409c-1.381 13.11-12.904 22.68-25.604 21.256l-2.19-.237c-8.891 23.845-19.497 40.408-30.643 52.028-21.493 22.421-45.004 26.5-62.063 29.197v-251.94c45.522 0 99.319 24.579 103.7 91.087 11.773 2.277 20.135 17.717 18.818 30.2z" fill="#af4b00"/><path d="m277.961 191.207c-12.662-10.765-31.26-10.765-43.921 0-14.12 12.005-31.854 18.935-50.373 19.684l-20.372.824 1.366 8.212c7.427 44.663 46.063 77.406 91.34 77.406 46.29-2.568 84.605-36.905 92.21-82.638l.496-2.98-20.372-.824c-18.52-.749-36.254-7.679-50.374-19.684z" fill="#efebdc"/><path d="m348.701 211.718-.487 2.98c-3.799 22.873-15.286 42.889-31.602 57.51s-37.462 23.848-60.612 25.122v-114.201c7.82 0 15.64 2.691 21.965 8.075 14.112 12.007 31.845 18.941 50.366 19.683z" fill="#d6cfbd"/></g><path d="m137.464 105.07 13.29 62.43h17.827l7.714-43.714c2.597-14.716 16.23-24.844 31.069-23.083l45.315 5.38c2.207.262 4.437.262 6.643 0l45.315-5.38c14.839-1.762 28.472 8.367 31.069 23.083l7.714 43.714h17.827l13.29-62.43c8.337-39.171-21.534-76.07-61.583-76.07h-113.908c-40.049 0-69.92 36.899-61.582 76.07z" fill="#494949"/><path d="m374.54 105.07-13.29 62.43h-17.83l-7.71-43.71c-2.6-14.72-16.23-24.85-31.07-23.09l-45.32 5.38c-1.1.14-2.21.2-3.32.2v-77.28h56.95c40.05 0 69.92 36.9 61.59 76.07z" fill="#333"/><path d="m382.92 332.29v146.07c-37.41 21.41-80.74 33.64-126.92 33.64s-89.51-12.23-126.92-33.64v-146.07h41.64c8.8 38.98 43.64 68.09 85.28 68.09s76.48-29.11 85.28-68.09z" fill="#4cd3aa"/><path d="m382.92 332.29v146.07c-37.41 21.41-80.74 33.64-126.92 33.64v-111.62c41.64 0 76.48-29.11 85.28-68.09z" fill="#26b290"/></g></svg>