<svg id="Layer_1" enable-background="new 0 0 512 512" height="512" viewBox="0 0 512 512" width="512" xmlns="http://www.w3.org/2000/svg"><g><g><g><path d="m54.47 413.88c-34.121-43.494-54.47-98.314-54.47-157.88 0-141.38 114.62-256 256-256s256 114.62 256 256c0 58.694-19.758 112.774-52.982 155.958z" fill="#4cd3aa"/></g></g><path d="m512 256c0-22.143-2.813-43.629-8.099-64.121l-128.359-128.359-17.542 8.647-38.791-39.667-17.376 31.833-45.833-46.666-98.97 202.435 34.364 34.672c4.293 15.757 24.159 21.903 35.773 32.393l-48.793 126.125 280.644-1.333c33.224-43.185 52.982-97.265 52.982-155.959z" fill="#26b290"/><path d="m199.97 260.488h112.06v118.84h-112.06z" fill="#f7a969"/><path d="m256 260.491h56.03v118.84h-56.03z" fill="#ea8d4e"/><path d="m256 362.691h-75.333v-41.983h52.367c12.684 0 22.967 10.283 22.967 22.967v19.016z" fill="#ffea92"/><path d="m256 362.691h75.333v-41.983h-52.367c-12.684 0-22.967 10.283-22.967 22.967v19.016z" fill="#f7d854"/><path d="m459.02 411.96c-46.6 60.57-119.69 99.7-201.94 100.03-.36.01-.72.01-1.08.01-81.81 0-154.66-38.38-201.53-98.12 10.36-30.4 39.17-52.27 73.08-52.27h73.5v.01h112.06v-.01h73.51c33.2 0 61.5 20.95 72.4 50.35z" fill="#ff4571"/><path d="m459.02 411.96c-46.6 60.57-119.69 99.7-201.94 100.03v-150.38h129.54c33.2 0 61.5 20.95 72.4 50.35z" fill="#e52541"/><path d="m349.62 151.149c-3.955-60.043-52.523-82.233-93.62-82.233s-89.665 22.19-93.62 82.233c-10.628 2.055-18.177 15.995-16.988 27.265l1.822 25.648c1.247 11.835 11.65 20.476 23.115 19.19l1.977-.214c23.485 63.063 60.316 69.638 83.694 73.33 23.378-3.692 60.209-10.267 83.694-73.33l1.977.214c11.465 1.286 21.868-7.354 23.115-19.19l1.822-25.648c1.189-11.27-6.36-25.21-16.988-27.265z" fill="#ffbf85"/><path d="m366.609 178.414-1.822 25.648c-1.247 11.835-11.65 20.476-23.115 19.19l-1.977-.214c-8.027 21.528-17.602 36.48-27.664 46.971-19.404 20.242-40.629 23.924-56.03 26.359v-227.452c41.097 0 89.665 22.19 93.62 82.233 10.627 2.055 18.176 15.995 16.988 27.265z" fill="#f7a969"/><path d="m275.826 204.523c-11.431-9.719-28.221-9.719-39.652 0-12.748 10.838-28.758 17.094-45.477 17.771l-18.392.744 1.233 7.414c6.705 40.322 41.586 69.882 82.461 69.882 41.791-2.318 76.381-33.318 83.247-74.606l.447-2.69-18.392-.744c-16.717-.677-32.727-6.933-45.475-17.771z" fill="#efebdc"/><path d="m339.69 223.04-.44 2.69c-3.43 20.65-12.49 39.84-27.22 53.04s-35.13 20.41-56.03 21.56v-103.1c7.06 0 14.12 2.43 19.83 7.29 12.74 10.84 28.75 17.1 45.47 17.77z" fill="#d6cfbd"/><path d="m334.75 68.916-15.541-36.416-33.022 21.952-30.187-36.785-30.187 36.785-33.022-21.952-15.54 36.416-40.793-5.396 30.109 121.595 27.842-62.115 61.591 12.117 59.493-12.117 29.94 62.115 30.109-121.595z" fill="#584b66"/><path d="m375.54 63.52-30.11 121.6-29.94-62.12-59.49 12.12v-117.45l30.19 36.78 33.02-21.95 15.54 36.42z" fill="#3d3449"/></g></svg>