<svg id="Layer_1" enable-background="new 0 0 512 512" height="512" viewBox="0 0 512 512" width="512" xmlns="http://www.w3.org/2000/svg"><g><g><g><path d="m512 256c0 56.5-18.31 108.72-49.31 151.06-46.57 63.62-121.81 39.523-206.69 39.523s-160.12 24.097-206.69-39.523c-31-42.34-49.31-94.56-49.31-151.06 0-141.38 114.62-256 256-256s256 114.62 256 256z" fill="#584b66"/></g></g><path d="m256 446.583c84.88 0 160.12 24.097 206.69-39.523 31-42.34 49.31-94.56 49.31-151.06 0-6.12-.229-12.186-.652-18.198l-164.847-164.848-191.565 145.621 30.73 30.009c4.229 16.026 44.918 61.926 56.691 72.559l-26.857 43.857-166.19 42.06c46.57 63.62 121.81 39.523 206.69 39.523z" fill="#3d3449"/><g><path d="m199.97 272.869h112.06v118.84h-112.06z" fill="#f7a969"/><path d="m256 272.872h56.03v118.84h-56.03z" fill="#ea8d4e"/><path d="m462.69 407.06c-46.57 63.62-121.81 104.94-206.69 104.94s-160.12-41.32-206.69-104.94c1.28-41.51 35.34-74.77 77.16-74.77h73.5c0 15.47 6.27 29.48 16.41 39.62s24.15 16.41 39.62 16.41 29.48-6.27 39.62-16.41 16.41-24.15 16.41-39.62h73.51c41.83 0 75.88 33.25 77.15 74.77z" fill="#4779f4"/><path d="m462.69 407.06c-46.57 63.62-121.81 104.94-206.69 104.94v-123.68c15.47 0 29.48-6.27 39.62-16.41s16.41-24.15 16.41-39.62h73.51c41.83 0 75.88 33.25 77.15 74.77z" fill="#2357cc"/><path d="m349.62 151.149c-3.955-60.043-52.523-82.233-93.62-82.233s-89.666 22.19-93.62 82.233c-10.627 2.055-18.177 15.995-16.988 27.265l1.822 25.648c1.247 11.835 11.65 20.476 23.115 19.19l1.977-.214c23.485 63.063 60.316 69.638 83.694 73.33 23.378-3.692 60.209-10.267 83.694-73.33l1.977.214c11.465 1.286 21.868-7.354 23.115-19.19l1.822-25.648c1.189-11.27-6.36-25.21-16.988-27.265z" fill="#ffbf85"/><path d="m366.609 178.414-1.822 25.648c-1.247 11.835-11.65 20.476-23.115 19.19l-1.977-.214c-8.026 21.528-17.602 36.48-27.664 46.971-19.404 20.242-40.63 23.924-56.03 26.359v-227.452c41.097 0 89.665 22.19 93.62 82.233 10.627 2.055 18.176 15.995 16.988 27.265z" fill="#f7a969"/><path d="m275.826 204.523c-11.431-9.719-28.221-9.719-39.652 0-12.748 10.838-28.758 17.094-45.477 17.771l-18.392.744 1.233 7.414c6.705 40.322 41.586 69.882 82.461 69.882 41.791-2.318 76.381-33.318 83.247-74.606l.447-2.69-18.392-.744c-16.717-.677-32.727-6.933-45.475-17.771z" fill="#efebdc"/><path d="m339.69 223.04-.44 2.69c-3.43 20.65-12.49 39.84-27.22 53.04s-35.13 20.41-56.03 21.56v-103.1c7.06 0 14.12 2.43 19.83 7.29 12.74 10.84 28.75 17.1 45.47 17.77z" fill="#d6cfbd"/><path d="m184.333 182.642-34.786-21.464s-4.279-118.177 106.453-124.177c116.163-6.294 150.801 132.883 127.468 229.333l-85.623 22.44s41.845-197.107-42.203-197.107c-25.309 0-60.642 13.641-71.309 90.975z" fill="#e58a07"/><path d="m383.47 266.33-85.63 22.44s41.73-196.53-41.84-197.09v-54.68c116.16-6.29 150.8 132.88 127.47 229.33z" fill="#d36c18"/><g><path d="m349.95 332.29v.43c0 51.8-42.14 93.95-93.95 93.95s-93.95-42.15-93.95-93.95v-.43h37.92c3.29 18.8 16.08 55.46 56.03 55.46s52.74-36.66 56.03-55.46z" fill="#f7d854"/></g><g><path d="m349.95 332.29v.43c0 51.8-42.14 93.95-93.95 93.95v-38.92c39.95 0 52.74-36.66 56.03-55.46z" fill="#f4cc21"/></g></g></g></svg>