<svg id="Layer_1" enable-background="new 0 0 512 512" height="512" viewBox="0 0 512 512" width="512" xmlns="http://www.w3.org/2000/svg"><g><g><g><path d="m512 256c0 56.5-18.31 108.72-49.31 151.06-46.57 63.62-121.81 39.523-206.69 39.523s-160.12 24.097-206.69-39.523c-31-42.34-49.31-94.56-49.31-151.06 0-141.38 114.62-256 256-256s256 114.62 256 256z" fill="#4779f4"/></g></g><path d="m256 446.583c84.88 0 160.12 24.097 206.69-39.523 31-42.34 49.31-94.56 49.31-151.06 0-6.028-.224-12.003-.634-17.926l-210.831-205.199-143.683 187.111 115.023 115.639-236.465 50.335c.001.001.001.003.002.005 4.293 7.269 8.93 14.311 13.898 21.095 46.57 63.62 121.81 39.523 206.69 39.523z" fill="#2357cc"/><g><path d="m303.576 348.667h-95.153c-6.6 0-12-5.4-12-12v-267.169c0-29.083 23.795-52.879 52.879-52.879h13.396c29.083 0 52.879 23.795 52.879 52.879v267.168c-.001 6.601-5.401 12.001-12.001 12.001z" fill="#f7d854"/><path d="m315.58 69.497v267.17c0 6.6-5.4 12-12 12h-47.58v-332.05h6.7c27.35 0 50.04 21.06 52.63 47.76.17 1.69.25 3.39.25 5.12z" fill="#f4cc21"/><path d="m199.97 260.488h112.06v118.84h-112.06z" fill="#f7a969"/><path d="m256 260.491h56.03v118.84h-56.03z" fill="#ea8d4e"/><path d="m385.54 332.29h-73.51v.002h-112.06v-.002h-73.5c-41.82 0-75.88 33.26-77.16 74.77 46.57 63.62 121.81 104.94 206.69 104.94s160.12-41.32 206.69-104.94c-1.27-41.52-35.32-74.77-77.15-74.77z" fill="#ffbf85"/><path d="m462.69 407.06c-46.57 63.62-121.81 104.94-206.69 104.94v-179.71h129.54c41.83 0 75.88 33.25 77.15 74.77z" fill="#f7a969"/><path d="m349.62 151.149c-3.955-60.043-52.523-82.233-93.62-82.233s-89.666 22.19-93.62 82.233c-10.628 2.055-18.177 15.995-16.988 27.265l1.822 25.648c1.247 11.835 11.65 20.476 23.115 19.19l1.977-.214c23.485 63.063 60.316 69.638 83.694 73.33 23.378-3.692 60.209-10.267 83.694-73.33l1.977.214c11.465 1.286 21.868-7.354 23.115-19.19l1.822-25.648c1.189-11.27-6.36-25.21-16.988-27.265z" fill="#ffbf85"/><path d="m366.609 178.414-1.822 25.648c-1.247 11.835-11.65 20.476-23.115 19.19l-1.977-.214c-8.027 21.528-17.602 36.48-27.664 46.971-19.404 20.242-40.63 23.924-56.03 26.359v-227.452c41.097 0 89.665 22.19 93.62 82.233 10.627 2.055 18.176 15.995 16.988 27.265z" fill="#f7a969"/><path d="m275.826 204.523c-11.431-9.719-28.221-9.719-39.652 0-12.748 10.838-28.758 17.094-45.477 17.771l-18.392.744 1.233 7.414c6.705 40.322 41.586 69.882 82.461 69.882 41.791-2.318 76.381-33.318 83.247-74.606l.447-2.69-18.392-.744c-16.717-.677-32.727-6.933-45.475-17.771z" fill="#efebdc"/><path d="m339.69 223.04-.44 2.69c-3.43 20.65-12.49 39.84-27.22 53.04s-35.13 20.41-56.03 21.56v-103.1c7.06 0 14.12 2.43 19.83 7.29 12.74 10.84 28.75 17.1 45.47 17.77z" fill="#d6cfbd"/><path d="m256 45.667c-120.333 0-105.968 114.731-105.968 114.731 83.699-7.269 105.968-64.065 105.968-64.065s22.269 56.796 105.968 64.064c0 .001 14.365-114.73-105.968-114.73z" fill="#ffea92"/><path d="m361.97 160.4c-18.25-1.59-33.58-5.53-46.39-10.72-45.96-18.62-59.58-53.35-59.58-53.35v-50.66c25.25 0 44.56 5.05 59.33 13.04 55.61 30.05 46.64 101.69 46.64 101.69z" fill="#f7d854"/><path d="m187.954 365.589c-8.642 0-15.648-7.006-15.648-15.648v-208.108h31.296v208.107c0 8.643-7.006 15.649-15.648 15.649z" fill="#ffea92"/><path d="m324.042 365.589c-8.642 0-15.648-7.006-15.648-15.648v-208.108h31.296v208.107c0 8.643-7.006 15.649-15.648 15.649z" fill="#f7d854"/><path d="m476.59 385.96c-44.53 75.44-126.65 126.04-220.59 126.04s-176.06-50.6-220.59-126.04l1.12-4.34c7.53-29.05 33.73-49.33 63.74-49.33h26.2s1.53 95.19 129.53 114.29c128-19.1 129.53-114.29 129.53-114.29h26.2c30.01 0 56.21 20.28 63.74 49.33z" fill="#ff4571"/><path d="m476.59 385.96c-44.53 75.44-126.65 126.04-220.59 126.04v-65.42c128-19.1 129.53-114.29 129.53-114.29h26.2c30.01 0 56.21 20.28 63.74 49.33z" fill="#e52541"/></g></g></svg>