<svg id="Layer_1" enable-background="new 0 0 512 512" height="512" viewBox="0 0 512 512" width="512" xmlns="http://www.w3.org/2000/svg"><g><g><g><path d="m512 256c0 56.5-18.31 108.72-49.31 151.06-46.57 63.62-121.81 39.523-206.69 39.523s-160.12 24.097-206.69-39.523c-31-42.34-49.31-94.56-49.31-151.06 0-141.38 114.62-256 256-256s256 114.62 256 256z" fill="#ffea92"/></g></g><path d="m256 446.583c84.88 0 160.12 24.097 206.69-39.523 31-42.34 49.31-94.56 49.31-151.06 0-4.876-.15-9.716-.419-14.524l-167.949-167.949-233.466 177.401 40.203 40.37c-.43 2.871 3.145 38.541 15.573 49.427l-116.632 66.335v.001c46.571 63.619 121.81 39.522 206.69 39.522z" fill="#f7d854"/><g><g><path d="m211.69 230.157c4.061-8.484 6.338-17.984 6.338-28.018 0-35.888-29.093-64.981-64.981-64.981s-64.981 29.093-64.981 64.981c0 31.867 22.945 58.357 53.212 63.898-2.61 6.689-4.058 13.96-4.058 21.573 0 32.8 26.59 59.39 59.39 59.39s59.39-26.59 59.39-59.39c0-27.589-18.814-50.779-44.31-57.453z" fill="#d36c18"/><path d="m300.31 230.157c-4.061-8.484-6.338-17.984-6.338-28.018 0-35.888 29.093-64.981 64.981-64.981s64.981 29.093 64.981 64.981c0 31.867-22.945 58.357-53.212 63.898 2.61 6.689 4.058 13.96 4.058 21.573 0 32.8-26.59 59.39-59.39 59.39s-59.39-26.59-59.39-59.39c0-27.589 18.814-50.779 44.31-57.453z" fill="#ad4b07"/></g><path d="m199.97 260.488h112.06v118.84h-112.06z" fill="#f7a969"/><path d="m256 260.491h56.03v118.84h-56.03z" fill="#ea8d4e"/><path d="m385.54 332.29h-73.51v.002h-112.06v-.002h-73.5c-41.82 0-75.88 33.26-77.16 74.77 46.57 63.62 121.81 104.94 206.69 104.94s160.12-41.32 206.69-104.94c-1.27-41.52-35.32-74.77-77.15-74.77z" fill="#ffbf85"/><path d="m462.69 407.06c-46.57 63.62-121.81 104.94-206.69 104.94v-179.71h129.54c41.83 0 75.88 33.25 77.15 74.77z" fill="#f7a969"/><path d="m349.62 151.149c-3.955-60.043-52.523-82.233-93.62-82.233s-89.665 22.19-93.62 82.233c-10.628 2.055-18.177 15.995-16.988 27.265l1.822 25.648c1.247 11.835 11.65 20.476 23.115 19.19l1.977-.214c23.485 63.063 60.316 69.638 83.694 73.33 23.378-3.692 60.209-10.267 83.694-73.33l1.977.214c11.465 1.286 21.868-7.354 23.115-19.19l1.822-25.648c1.189-11.27-6.36-25.21-16.988-27.265z" fill="#ffbf85"/><path d="m366.609 178.414-1.822 25.648c-1.247 11.835-11.65 20.476-23.115 19.19l-1.977-.214c-8.027 21.528-17.602 36.48-27.664 46.971-19.404 20.242-40.629 23.924-56.03 26.359v-227.452c41.097 0 89.665 22.19 93.62 82.233 10.627 2.055 18.176 15.995 16.988 27.265z" fill="#f7a969"/><path d="m275.826 204.523c-11.431-9.719-28.221-9.719-39.652 0-12.748 10.838-28.758 17.094-45.477 17.771l-18.392.744 1.233 7.414c6.705 40.322 41.586 69.882 82.461 69.882 41.791-2.318 76.381-33.318 83.247-74.606l.447-2.69-18.392-.744c-16.717-.677-32.727-6.933-45.475-17.771z" fill="#efebdc"/><path d="m339.69 223.04-.44 2.69c-3.43 20.65-13.8 38.72-28.53 51.92s-33.82 21.53-54.72 22.68v-103.1c7.06 0 14.12 2.43 19.83 7.29 12.74 10.84 28.75 17.1 45.47 17.77z" fill="#d6cfbd"/><path d="m385.98 476.58c-38.1 22.51-82.53 35.42-129.98 35.42-48.28 0-93.44-13.37-131.98-36.61l.03-143.1h38.33v57.81c9.41-3.51 20.47-5.93 33.13-5.93 39.58 0 55.6 28.264 59.49 41.163 3.89-12.9 19.91-41.163 59.49-41.163 12.66 0 23.72 2.42 33.13 5.93v-57.81h38.33z" fill="#a23ace"/><path d="m145.391 178.414s51.475-5.559 71.609-56.747c0 0 21 46.333 74.53 28.481 0 0 28.97 38.852 74.78 21.282 0 0 26.024-129.763-110.31-129.763s-110.609 136.747-110.609 136.747z" fill="#d36c18"/><path d="m385.98 476.58c-38.1 22.51-82.53 35.42-129.98 35.42v-89.59c5.25-13.8 21.68-38.24 58.49-38.24 12.66 0 23.72 2.42 33.13 5.93v-57.81h38.33z" fill="#7728a0"/><path d="m366.31 171.43c-26.29 10.08-47.03 1.59-59.93-7.48-9.59-6.74-14.85-13.8-14.85-13.8-14 4.67-25.77 4.95-35.53 2.81v-111.29c90.89 0 109.62 57.67 112.01 96.12 1.19 19.22-1.7 33.64-1.7 33.64z" fill="#ad4b07"/></g></g></svg>