<svg id="Layer_1" enable-background="new 0 0 512 512" height="512" viewBox="0 0 512 512" width="512" xmlns="http://www.w3.org/2000/svg"><g><g><g><path d="m512 256c0 56.5-18.31 108.72-49.31 151.06-46.57 63.62-121.81 39.523-206.69 39.523s-160.12 24.097-206.69-39.523c-31-42.34-49.31-94.56-49.31-151.06 0-141.38 114.62-256 256-256s256 114.62 256 256z" fill="#584b66"/></g></g><path d="m256 446.583c84.88 0 160.12 24.097 206.69-39.523 31-42.34 49.31-94.56 49.31-151.06 0-17.102-1.692-33.807-4.891-49.97l-163.442-163.697-186.346 177.956 34.68 35.376c4.33 15.592 14.814 12.265 26.332 22.668l17.667 86.334-186.69 42.393v.001c46.571 63.619 121.81 39.522 206.69 39.522z" fill="#3d3449"/><g><path d="m199.97 260.488h112.06v118.84h-112.06z" fill="#f7a969"/><path d="m256 260.491h56.03v118.84h-56.03z" fill="#ea8d4e"/><path d="m385.54 332.29h-73.51v.002l-56.03 40.208-56.03-40.208v-.002h-73.5c-41.82 0-75.88 33.26-77.16 74.77 46.57 63.62 121.81 104.94 206.69 104.94s160.12-41.32 206.69-104.94c-1.27-41.52-35.32-74.77-77.15-74.77z" fill="#ffea92"/><path d="m462.69 407.06c-46.57 63.62-121.81 104.94-206.69 104.94v-139.5l52.333-40.21h77.207c41.83 0 75.88 33.25 77.15 74.77z" fill="#f7d854"/><circle cx="256" cy="479.646" fill="#4cd3aa" r="15.632"/><path d="m349.62 151.149c-3.955-60.043-52.523-82.233-93.62-82.233s-89.665 22.19-93.62 82.233c-10.628 2.055-18.177 15.995-16.988 27.265l1.822 25.648c1.247 11.835 11.65 20.476 23.115 19.19l1.977-.214c23.485 63.063 60.316 69.638 83.694 73.33 23.378-3.692 60.209-10.267 83.694-73.33l1.977.214c11.465 1.286 21.868-7.354 23.115-19.19l1.822-25.648c1.189-11.27-6.36-25.21-16.988-27.265z" fill="#ffbf85"/><path d="m366.609 178.414-1.822 25.648c-1.247 11.835-11.65 20.476-23.115 19.19l-1.977-.214c-8.027 21.528-17.602 36.48-27.664 46.971-19.404 20.242-40.629 23.924-56.03 26.359v-227.452c41.097 0 89.665 22.19 93.62 82.233 10.627 2.055 18.176 15.995 16.988 27.265z" fill="#f7a969"/><path d="m275.826 204.523c-11.431-9.719-28.221-9.719-39.652 0-12.748 10.838-28.758 17.094-45.477 17.771l-18.392.744 1.233 7.414c6.705 40.322 41.586 69.882 82.461 69.882 41.791-2.318 76.381-33.318 83.247-74.606l.447-2.69-18.392-.744c-16.717-.677-32.727-6.933-45.475-17.771z" fill="#efebdc"/><path d="m339.69 223.04-.44 2.69c-3.43 20.65-12.49 39.84-27.22 53.04s-35.13 20.41-56.03 21.56v-103.1c7.06 0 14.12 2.43 19.83 7.29 12.74 10.84 28.75 17.1 45.47 17.77z" fill="#d6cfbd"/><path d="m199.97 309-27.664 23.29-6.639 23.71 90.333 16.5z" fill="#4cd3aa"/><path d="m312.03 309 27.664 23.29 6.639 23.71-90.333 16.5z" fill="#26b290"/><path d="m343.667 42.333c-48 24-112-33.333-163.333 3.333-43.407 31.005-32.877 87.65-28.59 104.405.339 1.625.788 3.227 1.358 4.793l12.566 27.778h13.332l6.477-48.516c1.648-14.065 13.218-24.88 27.362-25.576h86.32c14.144.697 25.714 11.512 27.362 25.576l6.479 48.516h13.333l12.566-27.778c37.596-67.429-15.232-112.531-15.232-112.531z" fill="#d36c18"/><path d="m358.9 154.86-12.57 27.78h-13.33l-6.48-48.51c-1.65-14.07-13.22-24.88-27.36-25.58h-43.16v-70.97c30.88 6.85 61.63 17.77 87.67 4.75 0 0 52.83 45.1 15.23 112.53z" fill="#ad4b07"/><ellipse cx="256" cy="418.132" fill="#4cd3aa" rx="15.632" ry="15.632" transform="matrix(.924 -.383 .383 .924 -140.525 129.795)"/><path d="m271.63 418.13c0 8.64-7 15.63-15.63 15.63v-31.26c8.63 0 15.63 7 15.63 15.63z" fill="#26b290"/></g><path d="m271.63 479.65c0 8.63-7 15.63-15.63 15.63v-31.27c8.63 0 15.63 7 15.63 15.64z" fill="#26b290"/></g></svg>