<svg id="Layer_1" enable-background="new 0 0 512 512" height="512" viewBox="0 0 512 512" width="512" xmlns="http://www.w3.org/2000/svg"><g><g><g><path d="m512 256c0 56.5-18.31 108.72-49.31 151.06-46.57 63.62-121.81 39.523-206.69 39.523s-160.12 24.097-206.69-39.523c-31-42.34-49.31-94.56-49.31-151.06 0-141.38 114.62-256 256-256s256 114.62 256 256z" fill="#584b66"/></g></g><path d="m256 446.583c84.88 0 160.12 24.097 206.69-39.523 31-42.34 49.31-94.56 49.31-151.06 0-4.305-.11-8.585-.32-12.838l-173.119-173.118-184.259 147.981 48.6 48.573c4.334 15.573 24.591 34.009 36.098 44.402l-23.5 57-166.19 39.06c46.57 63.62 121.81 39.523 206.69 39.523z" fill="#3d3449"/><g><path d="m199.97 260.488h112.06v118.84h-112.06z" fill="#f7a969"/><path d="m256 260.491h56.03v118.84h-56.03z" fill="#ea8d4e"/><path d="m134.563 332.292h242.875v114.294h-242.875z" fill="#ffbf85"/><path d="m256 332.292h121.44v114.291h-121.44z" fill="#f7a969"/><path d="m385.54 332.29h-73.51v.002l-56.03 114.291-56.03-114.291v-.002h-73.5c-41.82 0-75.88 33.26-77.16 74.77 46.57 63.62 121.81 104.94 206.69 104.94s160.12-41.32 206.69-104.94c-1.27-41.52-35.32-74.77-77.15-74.77z" fill="#d36c18"/><path d="m462.69 407.06c-46.57 63.62-121.81 104.94-206.69 104.94v-65.417l56.03-114.293h73.51c41.83 0 75.88 33.25 77.15 74.77z" fill="#af4b00"/><path d="m349.62 151.149c-3.955-60.043-52.523-82.233-93.62-82.233s-89.665 22.19-93.62 82.233c-10.628 2.055-18.177 15.995-16.988 27.265l1.822 25.648c1.247 11.835 11.65 20.476 23.115 19.19l1.977-.214c23.485 63.063 60.316 69.638 83.694 73.33 23.378-3.692 60.209-10.267 83.694-73.33l1.977.214c11.465 1.286 21.868-7.354 23.115-19.19l1.822-25.648c1.189-11.27-6.36-25.21-16.988-27.265z" fill="#ffbf85"/><path d="m366.609 178.414-1.822 25.648c-1.247 11.835-11.65 20.476-23.115 19.19l-1.977-.214c-8.027 21.528-17.602 36.48-27.664 46.971-19.404 20.242-40.629 23.924-56.03 26.359v-227.452c41.097 0 89.665 22.19 93.62 82.233 10.627 2.055 18.176 15.995 16.988 27.265z" fill="#f7a969"/><path d="m275.826 204.523c-11.431-9.719-28.221-9.719-39.652 0-12.748 10.838-28.758 17.094-45.477 17.771l-18.392.744 1.233 7.414c6.705 40.322 41.586 69.882 82.461 69.882 41.791-2.318 76.381-33.318 83.247-74.606l.447-2.69-18.392-.744c-16.717-.677-32.727-6.933-45.475-17.771z" fill="#efebdc"/><path d="m339.69 223.04-.44 2.69c-3.43 20.65-12.49 39.84-27.22 53.04s-35.13 20.41-56.03 21.56v-103.1c7.06 0 14.12 2.43 19.83 7.29 12.74 10.84 28.75 17.1 45.47 17.77z" fill="#d6cfbd"/><path d="m287.653 42.333c-20.299-2.595-40.846-2.595-61.145 0-46.62 5.959-79.74 53.599-74.236 100.275l1.555 13.188 25.173 17.204 4.407-30.13c1.773-12.121 8.107-23.107 17.708-30.714 12.332-9.77 28.493-13.28 43.767-9.505 8.011 1.98 16.384 1.98 24.396 0 15.274-3.775 31.435-.265 43.767 9.505 9.601 7.607 15.936 18.593 17.708 30.714l4.407 30.13 25.173-17.204 1.555-13.188c5.505-46.675-27.615-94.316-74.235-100.275z" fill="#efebdc"/><path d="m361.89 142.61-1.56 13.19-25.17 17.2-4.41-30.13c-.89-6.06-2.91-11.84-5.91-17.05-3.01-5.21-7-9.86-11.8-13.66-9.08-7.19-20.23-10.99-31.58-10.99-4.06 0-8.15.49-12.18 1.48-4 .99-8.1 1.49-12.2 1.49-.36 0-.72 0-1.08-.01v-63.73c10.57-.06 21.14.59 31.65 1.93 46.62 5.96 79.74 53.6 74.24 100.28z" fill="#d6cfbd"/><path d="m353.45 332.29-77.62 150.04v28.91c-6.55.5-13.16.76-19.83.76s-13.28-.26-19.83-.76v-28.91l-77.62-150.04h41.42l56.03 102.71 56.03-102.71z" fill="#f7d854"/><path d="m353.45 332.29-77.62 150.04v28.91c-6.55.5-13.16.76-19.83.76v-77l56.03-102.71z" fill="#eac31c"/></g></g></svg>