<svg id="Layer_1" enable-background="new 0 0 512 512" height="512" viewBox="0 0 512 512" width="512" xmlns="http://www.w3.org/2000/svg"><g><g><g><path d="m512 256c0 56.5-18.31 108.72-49.31 151.06-46.57 63.62-121.81 39.523-206.69 39.523s-160.12 24.097-206.69-39.523c-31-42.34-49.31-94.56-49.31-151.06 0-141.38 114.62-256 256-256s256 114.62 256 256z" fill="#ef9b14"/></g></g><g><path d="m512 256c0-31.865-5.839-62.363-16.477-90.503l-73.56-73.56-322.963 16.063-24.225 184.982 53.738 53.255c-36.496 5.258-78.976 60.528-79.198 60.817.128.176.256.352.384.527.818 1.111 1.645 2.215 2.48 3.312.329.433.661.864.993 1.295.838 1.087 1.683 2.168 2.538 3.241.329.413.661.822.993 1.233.879 1.089 1.762 2.174 2.659 3.248.292.35.589.696.883 1.045.952 1.129 1.909 2.255 2.881 3.367.16.183.323.362.483.544 4.578 5.212 9.365 10.235 14.346 15.058 46.074 44.61 108.847 72.076 178.045 72.076 141.385 0 256-114.615 256-256z" fill="#db8200"/><g><g><path d="m145.71 72.982s-70.935-12.667-70.935 71.333 0 148.667 0 148.667l18.518-11.945c15.725-10.143 25.385-27.434 25.778-46.142l2.594-123.382z" fill="#584b66"/><path d="m165.827 147.102-29.521-8.081c-11.927-3.264-18.949-15.579-15.684-27.506l8.242-30.113c3.265-11.927 15.58-18.949 27.506-15.684l29.521 8.08z" fill="#4cd3aa"/><path d="m366.29 72.982s70.935-12.667 70.935 71.333 0 148.667 0 148.667l-18.518-11.945c-15.725-10.143-25.385-27.434-25.778-46.142l-2.594-123.382z" fill="#333"/><path d="m346.173 147.102 29.521-8.081c11.927-3.264 18.949-15.579 15.684-27.506l-8.242-30.113c-3.265-11.927-15.58-18.949-27.506-15.684l-29.521 8.08z" fill="#26b290"/></g><path d="m199.97 260.488h112.06v118.84h-112.06z" fill="#ffbb7d"/><path d="m256 260.491h56.03v118.84h-56.03z" fill="#efa36a"/><path d="m134.563 332.292h242.875v114.294h-242.875z" fill="#ffd4a6"/><path d="m256 332.292h121.44v114.291h-121.44z" fill="#ffbb7d"/><path d="m462.69 407.06c-46.57 63.62-121.81 104.94-206.69 104.94s-160.12-41.32-206.69-104.94c1.28-41.51 35.34-74.77 77.16-74.77h73.5l-6.47 27.85c0 30.94 31.56 56.03 62.5 56.03s60.72-25.09 60.72-56.03l-4.69-27.85h73.51c41.83 0 75.88 33.25 77.15 74.77z" fill="#a23ace"/><path d="m462.69 407.06c-46.57 63.62-121.81 104.94-206.69 104.94v-95.83c30.94 0 60.72-25.09 60.72-56.03l-4.69-27.85h73.51c41.83 0 75.88 33.25 77.15 74.77z" fill="#7728a0"/><path d="m349.62 151.149c-3.955-60.043-52.523-82.233-93.62-82.233s-89.666 22.19-93.62 82.233c-10.627 2.055-18.177 15.995-16.988 27.265l1.822 25.648c1.247 11.835 11.65 20.476 23.115 19.19l1.977-.214c23.485 63.063 60.316 69.638 83.694 73.33 23.378-3.692 60.209-10.267 83.694-73.33l1.977.214c11.465 1.286 21.868-7.354 23.115-19.19l1.822-25.648c1.189-11.27-6.36-25.21-16.988-27.265z" fill="#ffd4a6"/><path d="m366.609 178.414-1.822 25.648c-1.247 11.835-11.65 20.476-23.115 19.19l-1.977-.214c-8.026 21.528-17.602 36.48-27.664 46.971-19.404 20.242-40.63 23.924-56.03 26.359v-227.452c41.097 0 89.665 22.19 93.62 82.233 10.627 2.055 18.176 15.995 16.988 27.265z" fill="#ffbb7d"/><path d="m275.826 204.523c-11.431-9.719-28.221-9.719-39.652 0-12.748 10.838-28.758 17.094-45.477 17.771l-18.392.744 1.233 7.414c6.705 40.322 41.586 69.882 82.461 69.882 41.791-2.318 76.381-33.318 83.247-74.606l.447-2.69-18.392-.744c-16.717-.677-32.727-6.933-45.475-17.771z" fill="#efebdc"/><path d="m339.69 223.04-.44 2.69c-3.43 20.65-12.49 39.84-27.22 53.04s-35.13 20.41-56.03 21.56v-103.1c7.06 0 14.12 2.43 19.83 7.29 12.74 10.84 28.75 17.1 45.47 17.77z" fill="#d6cfbd"/><path d="m256 38.333s-117.936-1.538-105.968 122.064c0 0 27.218.602 54.218-27.398l12 24s25.75-10 39.75-27c14 17 39.75 27 39.75 27l12-24c27 28 54.218 27.398 54.218 27.398 11.968-123.602-105.968-122.064-105.968-122.064z" fill="#584b66"/><path d="m361.97 160.4s-27.22.6-54.22-27.4l-12 24s-25.75-10-39.75-27v-91.67s117.94-1.53 105.97 122.07z" fill="#333"/><path d="m319.9 388.33c2.35 4.15 3.69 8.93 3.69 14.03 0 15.78-12.79 28.58-28.57 28.58-3.23 0-6.34-.55-9.23-1.53-3.59 11.68-14.46 20.18-27.32 20.18-13.56 0-24.9-9.45-27.83-22.12-4.06 2.21-8.71 3.47-13.66 3.47-15.78 0-28.57-12.8-28.57-28.58 0-5.1 1.34-9.88 3.69-14.03-11.95-3.42-20.7-14.42-20.7-27.47 0-15.78 12.79-28.57 28.57-28.57v27.85c0 30.94 25.09 48.36 56.03 48.36s56.03-17.42 56.03-48.36v-27.85c15.78 0 28.57 12.79 28.57 28.57 0 13.05-8.75 24.05-20.7 27.47z" fill="#efebdc"/><path d="m319.9 388.33c2.35 4.15 3.69 8.93 3.69 14.03 0 15.78-12.79 28.58-28.57 28.58-3.23 0-6.34-.55-9.23-1.53-3.59 11.68-14.46 20.18-27.32 20.18-.83 0-1.65-.04-2.47-.11v-40.98c30.94 0 56.03-17.42 56.03-48.36v-27.85c15.78 0 28.57 12.79 28.57 28.57 0 13.05-8.75 24.05-20.7 27.47z" fill="#d6cfbd"/></g></g></g></svg>