<svg id="Layer_1" enable-background="new 0 0 512 512" height="512" viewBox="0 0 512 512" width="512" xmlns="http://www.w3.org/2000/svg"><g><g><g><path d="m512 256c0 56.5-18.31 108.72-49.31 151.06-46.57 63.62-121.81 39.523-206.69 39.523s-160.12 24.097-206.69-39.523c-31-42.34-49.31-94.56-49.31-151.06 0-141.38 114.62-256 256-256s256 114.62 256 256z" fill="#f7d854"/></g></g><path d="m256 446.583c84.88 0 160.12 24.097 206.69-39.523 31-42.34 49.31-94.56 49.31-151.06 0-16.627-1.604-32.878-4.632-48.622l-135.683-135.683-13.296-1.334-32.164-31.691-216.769 161.302 22.037 21.868-2.56 33.195 36.132 36.566c1.004 4.91 1.418 5.148 1.418 5.148l53.217 53.217c.634.969-170.391 57.094-170.391 57.094 46.571 63.62 121.811 39.523 206.691 39.523z" fill="#eac31c"/><g><path d="m268.321 23.535 8.219 7.516c4.888 4.47 11.814 5.942 18.098 3.847l10.565-3.523c8.967-2.991 18.734 1.358 22.513 10.023l4.451 10.209c2.647 6.072 8.376 10.234 14.968 10.875l11.085 1.078c9.408.915 16.562 8.861 16.489 18.313l-.086 11.137c-.051 6.624 3.489 12.756 9.251 16.023l9.688 5.494c8.223 4.663 11.527 14.831 7.615 23.437l-4.609 10.139c-2.741 6.03-2.001 13.072 1.934 18.4l6.616 8.96c5.615 7.604 4.498 18.237-2.576 24.508l-8.334 7.388c-4.957 4.394-7.145 11.128-5.717 17.596l2.4 10.876c2.037 9.231-3.309 18.49-12.322 21.341l-10.619 3.36c-6.315 1.998-11.053 7.26-12.38 13.75l-2.231 10.912c-1.894 9.261-10.543 15.546-19.937 14.485l-11.067-1.25c-6.582-.743-13.05 2.137-16.902 7.525l-6.477 9.061c-5.497 7.69-15.955 9.913-24.105 5.124l-9.602-5.643c-5.711-3.356-12.791-3.356-18.502 0l-9.602 5.643c-8.15 4.789-18.607 2.567-24.105-5.124l-6.477-9.061c-3.852-5.389-10.32-8.269-16.902-7.525l-11.067 1.25c-9.393 1.061-18.043-5.224-19.937-14.485l-2.231-10.912c-1.327-6.49-6.065-11.751-12.38-13.75l-10.619-3.36c-9.012-2.852-14.358-12.111-12.322-21.341l2.4-10.876c1.427-6.468-.761-13.202-5.717-17.596l-8.334-7.388c-7.074-6.271-8.191-16.904-2.576-24.508l6.616-8.96c3.935-5.329 4.675-12.37 1.934-18.4l-4.608-10.139c-3.912-8.606-.608-18.774 7.615-23.437l9.688-5.494c5.762-3.268 9.302-9.399 9.251-16.023l-.086-11.137c-.073-9.453 7.081-17.398 16.489-18.313l11.085-1.078c6.593-.642 12.321-4.803 14.968-10.875l4.451-10.209c3.778-8.665 13.545-13.014 22.512-10.023l10.565 3.523c6.284 2.096 13.209.623 18.098-3.847l8.219-7.516c6.979-6.38 17.671-6.38 24.646 0z" fill="#494949"/><path d="m402.54 199.97-8.33 7.39c-4.96 4.39-7.15 11.13-5.72 17.6l2.4 10.87c2.04 9.23-3.31 18.49-12.32 21.34l-10.62 3.36c-6.31 2-11.05 7.26-12.38 13.75l-2.23 10.91c-1.89 9.27-10.54 15.55-19.94 14.49l-11.06-1.25c-6.59-.74-13.05 2.14-16.91 7.53l-6.47 9.06c-5.5 7.69-15.96 9.91-24.11 5.12l-9.6-5.64c-2.85-1.68-6.05-2.52-9.25-2.52v-293.23c4.42 0 8.84 1.59 12.32 4.78l8.22 7.52c4.89 4.47 11.81 5.94 18.1 3.85l10.56-3.53c8.97-2.99 18.74 1.36 22.52 10.03l4.45 10.21c2.64 6.07 8.37 10.23 14.97 10.87l11.08 1.08c9.41.92 16.56 8.86 16.49 18.31l-.09 11.14c-.05 6.62 3.49 12.76 9.25 16.02l9.69 5.5c8.23 4.66 11.53 14.83 7.62 23.43l-4.61 10.14c-2.74 6.03-2 13.08 1.93 18.4l6.62 8.96c5.61 7.61 4.5 18.24-2.58 24.51z" fill="#333"/><path d="m199.97 260.488h112.06v118.84h-112.06z" fill="#af4b00"/><path d="m256 260.491h56.03v118.84h-56.03z" fill="#7f3706"/><path d="m134.563 332.292h242.875v114.294h-242.875z" fill="#d36c18"/><path d="m256 332.292h121.44v114.291h-121.44z" fill="#af4b00"/><path d="m462.69 407.06c-46.57 63.62-121.81 104.94-206.69 104.94s-160.12-41.32-206.69-104.94c1.28-41.51 35.34-74.77 77.16-74.77h73.5v9.18c0 30.94 25.09 56.03 56.03 56.03 15.47 0 29.48-6.27 39.62-16.41s16.41-24.15 16.41-39.62v-9.18h73.51c41.83 0 75.88 33.25 77.15 74.77z" fill="#4779f4"/><path d="m462.69 407.06c-46.57 63.62-121.81 104.94-206.69 104.94v-114.5c15.47 0 29.48-6.27 39.62-16.41s16.41-24.15 16.41-39.62v-9.18h73.51c41.83 0 75.88 33.25 77.15 74.77z" fill="#2357cc"/><path d="m349.62 151.149c-3.955-60.043-52.523-82.233-93.62-82.233s-89.666 22.19-93.62 82.233c-10.628 2.055-18.177 15.995-16.988 27.265l1.822 25.648c1.247 11.835 11.65 20.476 23.115 19.19l1.977-.214c23.485 63.063 60.316 69.638 83.694 73.33 23.378-3.692 60.209-10.267 83.694-73.33l1.977.214c11.465 1.286 21.868-7.354 23.115-19.19l1.822-25.648c1.189-11.27-6.36-25.21-16.988-27.265z" fill="#d36c18"/><path d="m366.609 178.414-1.822 25.648c-1.247 11.835-11.65 20.476-23.115 19.19l-1.977-.214c-8.027 21.528-17.602 36.48-27.664 46.971-19.404 20.242-40.63 23.924-56.03 26.359v-227.452c41.097 0 89.665 22.19 93.62 82.233 10.627 2.055 18.176 15.995 16.988 27.265z" fill="#af4b00"/><path d="m294.107 54.563-.303-.13c-24.141-10.346-51.466-10.346-75.607 0l-.303.13c-28.742 12.318-50.047 37.792-56.112 68.468-1.964 9.935-2.267 19.786.599 28.117l1.325 35.441h18.751l7.001-37.52c1.44-7.305 9.749-10.904 16.063-6.958 4.743 2.964 10.96 1.86 14.391-2.557l8.201-10.556c4.856-6.251 14.546-5.408 18.249 1.588 4.096 7.737 15.18 7.737 19.276 0 3.704-6.996 13.393-7.839 18.249-1.588l8.201 10.556c3.432 4.417 9.648 5.521 14.391 2.557 6.314-3.946 14.623-.346 16.063 6.958l7.001 37.52h18.751l1.325-35.441c2.865-8.331 2.563-18.182.599-28.117-6.064-30.676-27.369-56.15-56.111-68.468z" fill="#494949"/><path d="m349.62 151.15-1.32 35.44h-18.76l-7-37.52c-1.03-5.25-5.62-8.58-10.45-8.58-1.9 0-3.83.51-5.61 1.62-4.74 2.97-10.96 1.86-14.39-2.56l-8.2-10.55c-2.21-2.84-5.41-4.22-8.6-4.22-3.83 0-7.63 1.99-9.65 5.81-2.05 3.87-5.84 5.8-9.64 5.8v-89.71c12.86 0 25.73 2.58 37.8 7.75l.31.13c28.74 12.32 50.04 37.8 56.11 68.47 1.96 9.94 2.27 19.79-.6 28.12z" fill="#333"/><path d="m275.826 204.523c-11.431-9.719-28.221-9.719-39.652 0-12.748 10.838-28.758 17.094-45.477 17.771l-18.392.744 1.233 7.414c6.705 40.322 41.586 69.882 82.461 69.882 41.791-2.318 76.381-33.318 83.247-74.606l.447-2.69-18.392-.744c-16.717-.677-32.727-6.933-45.475-17.771z" fill="#efebdc"/><path d="m275.826 204.523c-11.431-9.719-28.221-9.719-39.652 0-12.748 10.838-28.758 17.094-45.477 17.771l-18.392.744 1.233 7.414c6.705 40.322 41.586 69.882 82.461 69.882 41.791-2.318 76.381-33.318 83.247-74.606l.447-2.69-18.392-.744c-16.717-.677-32.727-6.933-45.475-17.771z" fill="#efebdc"/><path d="m339.69 223.04-.44 2.69c-3.43 20.65-13.8 38.72-28.53 51.92s-33.82 21.53-54.72 22.68v-103.1c7.06 0 14.12 2.43 19.83 7.29 12.74 10.84 28.75 17.1 45.47 17.77z" fill="#d6cfbd"/></g></g></svg>