<svg id="Layer_1" enable-background="new 0 0 512 512" height="512" viewBox="0 0 512 512" width="512" xmlns="http://www.w3.org/2000/svg"><g><g><g><path d="m512 256c0 56.5-18.31 108.72-49.31 151.06-46.57 63.62-121.81 39.523-206.69 39.523s-160.12 24.097-206.69-39.523c-31-42.34-49.31-94.56-49.31-151.06 0-141.38 114.62-256 256-256s256 114.62 256 256z" fill="#4779f4"/></g></g><path d="m256 446.583c84.88 0 160.12 24.097 206.69-39.523 31-42.34 49.31-94.56 49.31-151.06 0-11.232-.729-22.294-2.132-33.144l-155.718-155.717-200.016 150.735 44.525 44.134c4.289 15.775 26.382 37.159 38.007 47.659l-36.696 52.333-150.66 45.06v.001c46.571 63.619 121.81 39.522 206.69 39.522z" fill="#2357cc"/><g><path d="m199.97 272.869h112.06v118.84h-112.06z" fill="#f7a969"/><path d="m256 272.872h56.03v118.84h-56.03z" fill="#ea8d4e"/><path d="m462.69 407.06c-46.57 63.62-121.81 104.94-206.69 104.94s-160.12-41.32-206.69-104.94c1.28-41.51 35.34-74.77 77.16-74.77h62.03v10.21c0 37.28 30.22 67.5 67.5 67.5s67.5-30.22 67.5-67.5v-10.21h62.04c41.83 0 75.88 33.25 77.15 74.77z" fill="#584b66"/><path d="m462.69 407.06c-46.57 63.62-121.81 104.94-206.69 104.94v-102c37.28 0 67.5-30.22 67.5-67.5v-10.21h62.04c41.83 0 75.88 33.25 77.15 74.77z" fill="#3d3449"/><g><path d="m349.95 332.29v.43c0 51.8-42.14 93.95-93.95 93.95s-93.95-42.15-93.95-93.95v-.43h37.92c3.29 18.8 16.08 55.46 56.03 55.46s52.74-36.66 56.03-55.46z" fill="#d6cfbd"/></g><g><path d="m349.95 332.29v.43c0 51.8-42.14 93.95-93.95 93.95v-38.92c39.95 0 52.74-36.66 56.03-55.46z" fill="#bab3a2"/></g><path d="m349.62 151.149c-3.955-60.043-52.523-82.233-93.62-82.233s-89.665 22.19-93.62 82.233c-10.628 2.055-18.177 15.995-16.988 27.265l1.822 25.648c1.247 11.835 11.65 20.476 23.115 19.19l1.977-.214c23.485 63.063 60.316 69.638 83.694 73.33 23.378-3.692 60.209-10.267 83.694-73.33l1.977.214c11.465 1.286 21.868-7.354 23.115-19.19l1.822-25.648c1.189-11.27-6.36-25.21-16.988-27.265z" fill="#ffbf85"/><path d="m366.609 178.414-1.822 25.648c-1.247 11.835-11.65 20.476-23.115 19.19l-1.977-.214c-8.027 21.528-17.602 36.48-27.664 46.971-19.404 20.242-40.629 23.924-56.03 26.359v-227.452c41.097 0 89.665 22.19 93.62 82.233 10.627 2.055 18.176 15.995 16.988 27.265z" fill="#f7a969"/><path d="m275.826 204.523c-11.431-9.719-28.221-9.719-39.652 0-12.748 10.838-28.758 17.094-45.477 17.771l-18.392.744 1.233 7.414c6.705 40.322 41.586 69.882 82.461 69.882 41.791-2.318 76.381-33.318 83.247-74.606l.447-2.69-18.392-.744c-16.717-.677-32.727-6.933-45.475-17.771z" fill="#efebdc"/><path d="m339.69 223.04-.44 2.69c-3.43 20.65-12.49 39.84-27.22 53.04s-35.13 20.41-56.03 21.56v-103.1c7.06 0 14.12 2.43 19.83 7.29 12.74 10.84 28.75 17.1 45.47 17.77z" fill="#d6cfbd"/><path d="m251.5 21c-39.56-1.562-57.883 10.839-57.836 27.441-86.105 26.503-44.581 113.537-44.581 113.537 40.14.818 62.458-35.755 71.987-56.895 9.171 11.767 17.108 19.943 17.108 19.943 36.185 30.145 80.315 21.532 80.315 21.532 26.5 29.069 72.5 18.302 72.5 18.302-8.993-143.993-139.493-143.86-139.493-143.86z" fill="#ffea92"/><path d="m390.99 164.86s-46 10.77-72.5-18.3c0 0-31.1 6.07-62.49-9.82v-115.55c22.7 1.52 126.99 15.49 134.99 143.67z" fill="#f7d854"/></g></g></svg>