<svg id="Layer_1" enable-background="new 0 0 512 512" height="512" viewBox="0 0 512 512" width="512" xmlns="http://www.w3.org/2000/svg"><g><g><g><circle cx="256" cy="256" fill="#f7d854" r="256"/></g></g><path d="m256 512c141.385 0 256-114.615 256-256 0-4.142-.107-8.259-.302-12.353l-176.366-176.367-177.816 149.163 39.278 40.137c4.341 15.54 4.094 16.918 15.581 27.294l-5.375 60.5-157.682 62.683c46.575 63.618 121.797 104.943 206.682 104.943z" fill="#eac31c"/><g><path d="m385.54 332.29h-8.103l-37.747 20.043-27.66-20.043v.002h-112.06v-.002l-27.664 20.043-39.176-20.043h-6.66c-41.82 0-75.88 33.26-77.16 74.77 46.57 63.62 121.81 104.94 206.69 104.94s160.12-41.32 206.69-104.94c-1.27-41.52-35.32-74.77-77.15-74.77z" fill="#d36c18"/><path d="m462.69 407.06c-46.57 63.62-121.81 104.94-206.69 104.94v-179.71h56.03l27.66 20.043 39.18-20.043h6.67c41.83 0 75.88 33.25 77.15 74.77z" fill="#af4b00"/><path d="m199.97 260.488h112.06v118.84h-112.06z" fill="#af4b00"/><path d="m256 260.491h56.03v118.84h-56.03z" fill="#7f3706"/><path d="m134.563 332.292h242.875v114.294h-242.875z" fill="#d36c18"/><path d="m256 332.292h121.44v114.291h-121.44z" fill="#af4b00"/><path d="m378.87 332.29v148.34c-36.47 20-78.34 31.37-122.87 31.37s-86.4-11.37-122.87-31.37v-148.34h66.84c13.23 20.17 34.63 30.25 56.03 30.25s42.8-10.08 56.03-30.25z" fill="#4cd3aa"/><path d="m378.87 332.29v148.34c-36.47 20-78.34 31.37-122.87 31.37v-149.46c21.4 0 42.8-10.08 56.03-30.25z" fill="#26b290"/><path d="m349.62 147.183c-3.955-60.043-52.523-82.233-93.62-82.233s-89.665 22.19-93.62 82.233c-10.628 2.055-18.177 15.995-16.988 27.265l1.822 25.648c1.247 11.835 11.65 20.476 23.115 19.19l1.977-.214c23.485 63.063 60.316 69.638 83.694 73.33 23.378-3.692 60.209-10.267 83.694-73.33l1.977.214c11.465 1.286 21.868-7.354 23.115-19.19l1.822-25.648c1.189-11.27-6.36-25.21-16.988-27.265z" fill="#d36c18"/><path d="m366.609 174.448-1.822 25.648c-1.247 11.835-11.65 20.476-23.115 19.19l-1.977-.214c-8.027 21.528-17.602 36.48-27.664 46.971-19.404 20.242-40.629 23.924-56.03 26.359v-227.452c41.097 0 89.665 22.19 93.62 82.233 10.627 2.055 18.176 15.995 16.988 27.265z" fill="#af4b00"/><path d="m275.826 200.557c-11.431-9.719-28.221-9.719-39.652 0-12.748 10.838-28.758 17.094-45.477 17.77l-18.392.744 1.233 7.414c6.705 40.322 41.586 69.882 82.461 69.882 41.791-2.318 76.381-33.318 83.247-74.606l.447-2.69-18.392-.744c-16.717-.676-32.727-6.932-45.475-17.77z" fill="#efebdc"/><path d="m339.69 219.074-.44 2.69c-3.43 20.65-13.8 38.72-28.53 51.92s-33.82 21.53-54.72 22.68v-103.1c7.06 0 14.12 2.43 19.83 7.29 12.74 10.84 28.75 17.1 45.47 17.77z" fill="#d6cfbd"/><path d="m256 34.333c-37.667 0-115.574 24.366-93.62 112.85l17.62 33.15 5.712-61.469c14.168-10.178 36.307-13.864 70.288-13.864 33.973 0 56.109 3.681 70.278 13.857l5.712 61.476 17.63-33.15c21.954-88.484-55.953-112.85-93.62-112.85z" fill="#494949"/><path d="m349.62 147.18-17.63 33.15-5.71-61.47c-14.17-10.18-36.31-13.86-70.28-13.86v-70.67c37.67 0 115.57 24.37 93.62 112.85z" fill="#333"/></g></g></svg>