<svg id="Layer_1" enable-background="new 0 0 512 512" height="512" viewBox="0 0 512 512" width="512" xmlns="http://www.w3.org/2000/svg"><g><g><g><path d="m512 256c0 56.5-18.31 108.72-49.31 151.06-46.57 63.62-121.81 39.523-206.69 39.523s-160.12 24.097-206.69-39.523c-31-42.34-49.31-94.56-49.31-151.06 0-141.38 114.62-256 256-256s256 114.62 256 256z" fill="#4779f4"/></g></g><path d="m256 446.583c84.88 0 160.12 24.097 206.69-39.523 31-42.34 49.31-94.56 49.31-151.06 0-15.565-1.393-30.804-4.054-45.603l-140.803-140.804-268.143 203.407 77 77.5-4.967 26.353c-41.82 0-121.723 30.207-121.723 30.207v.001c46.571 63.619 121.81 39.522 206.69 39.522z" fill="#2357cc"/><g><path d="m397.98 137.33c-5.91-53.38-46.7-96.262-99.717-104.832-27.993-4.525-56.532-4.525-84.525 0-53.018 8.57-93.808 51.452-99.717 104.832l-15.021 135.67s70.667 34 157 34 157-34 157-34z" fill="#584b66"/><path d="m413 273s-70.67 34-157 34v-277.9c14.13 0 28.26 1.14 42.26 3.4 53.02 8.57 93.81 51.45 99.72 104.83z" fill="#3d3449"/><path d="m199.97 260.488h112.06v118.84h-112.06z" fill="#f7a969"/><path d="m256 260.491h56.03v118.84h-56.03z" fill="#ea8d4e"/><path d="m385.54 332.29h-73.51v.002h-112.06v-.002h-73.5c-41.82 0-75.88 33.26-77.16 74.77 46.57 63.62 121.81 104.94 206.69 104.94s160.12-41.32 206.69-104.94c-1.27-41.52-35.32-74.77-77.15-74.77z" fill="#ffbf85"/><path d="m462.69 407.06c-46.57 63.62-121.81 104.94-206.69 104.94v-179.71h129.54c41.83 0 75.88 33.25 77.15 74.77z" fill="#f7a969"/><path d="m349.62 151.149c-3.955-60.043-52.523-82.233-93.62-82.233s-89.666 22.19-93.62 82.233c-10.627 2.055-18.177 15.995-16.988 27.265l1.822 25.648c1.247 11.835 11.65 20.476 23.115 19.19l1.977-.214c23.485 63.063 60.316 69.638 83.694 73.33 23.378-3.692 60.209-10.267 83.694-73.33l1.977.214c11.465 1.286 21.868-7.354 23.115-19.19l1.822-25.648c1.189-11.27-6.36-25.21-16.988-27.265z" fill="#ffbf85"/><path d="m366.609 178.414-1.822 25.648c-1.247 11.835-11.65 20.476-23.115 19.19l-1.977-.214c-8.026 21.528-17.602 36.48-27.664 46.971-19.404 20.242-40.63 23.924-56.03 26.359v-227.452c41.097 0 89.665 22.19 93.62 82.233 10.627 2.055 18.176 15.995 16.988 27.265z" fill="#f7a969"/><path d="m275.826 204.523c-11.431-9.719-28.221-9.719-39.652 0-12.748 10.838-28.758 17.094-45.477 17.771l-18.392.744 1.233 7.414c6.705 40.322 41.586 69.882 82.461 69.882 41.791-2.318 76.381-33.318 83.247-74.606l.447-2.69-18.392-.744c-16.717-.677-32.727-6.933-45.475-17.771z" fill="#efebdc"/><path d="m339.69 223.04-.44 2.69c-3.43 20.65-13.8 38.72-28.53 51.92s-33.82 21.53-54.72 22.68v-103.1c7.06 0 14.12 2.43 19.83 7.29 12.74 10.84 28.75 17.1 45.47 17.77z" fill="#d6cfbd"/><path d="m407.4 462.44c-42.4 31.16-94.75 49.56-151.4 49.56s-109-18.4-151.4-49.56l21.87-130.15h73.5l56.03 134.04 56.03-134.04h73.5z" fill="#ffea92"/><path d="m407.4 462.44c-42.4 31.16-94.75 49.56-151.4 49.56v-45.67l56.03-134.04h73.5z" fill="#f7d854"/><path d="m273.382 44.558-17.382-.891-17.382.891c-32.514 1.667-61.629 21.662-73.736 51.884-6.714 16.76-8.086 35.861-2.502 54.707l9.926 37.184 15.361-34h68.333 68.333l15.361 34 9.926-37.184c5.585-18.846 4.213-37.947-2.502-54.707-12.106-30.223-41.221-50.218-73.736-51.884z" fill="#584b66"/><path d="m353.09 127.34c0 7.85-1.11 15.85-3.47 23.81l-9.93 37.18-15.36-34h-68.33v-110.66l17.38.89c32.52 1.66 61.63 21.66 73.74 51.88 3.88 9.69 5.97 20.15 5.97 30.9z" fill="#3d3449"/></g></g></svg>