<svg id="Layer_1" enable-background="new 0 0 512 512" height="512" viewBox="0 0 512 512" width="512" xmlns="http://www.w3.org/2000/svg"><g><g><g><path d="m512 256c0 56.5-18.31 108.72-49.31 151.06-46.57 63.62-121.81 39.523-206.69 39.523s-160.12 24.097-206.69-39.523c-31-42.34-49.31-94.56-49.31-151.06 0-141.38 114.62-256 256-256s256 114.62 256 256z" fill="#4cd3aa"/></g></g><path d="m256 446.583c84.88 0 160.12 24.097 206.69-39.523 31-42.34 49.31-94.56 49.31-151.06 0-13.078-.987-25.924-2.878-38.475l-145.756-145.756s-208.243 209.898-258.971 215.231l64.105 62.5s-120.363 11.857-124.938 49.378c1.864 2.766 3.78 5.495 5.748 8.182 46.57 63.62 121.81 39.523 206.69 39.523z" fill="#26b290"/><g><path d="m386.51 191.437 2.225-6.137c6.984-19.263 8.09-40.385 3.161-60.358-11.634-47.145-49.237-81.824-94.663-87.303-27.401-3.305-55.064-3.305-82.465 0-45.427 5.478-83.029 40.157-94.663 87.303-4.929 19.973-3.822 41.095 3.161 60.358l.829 2.287c12.462 34.375 4.738 73.353-19.7 99.413l151.605 32.911 151.605-32.911c-24.842-24.165-33.221-62.118-21.095-95.563z" fill="#af4b00"/><path d="m407.61 287-151.61 32.91v-284.75c13.76 0 27.53.82 41.23 2.48 22.71 2.74 43.47 12.78 60.01 28.03 16.53 15.25 28.84 35.7 34.66 59.27 4.92 19.97 3.82 41.1-3.17 60.36l-2.22 6.14c-3.7 10.19-5.49 20.81-5.49 31.32 0 23.98 9.32 47.44 26.59 64.24z" fill="#7f3706"/><path d="m199.97 260.488h112.06v118.84h-112.06z" fill="#f7a969"/><path d="m256 260.491h56.03v118.84h-56.03z" fill="#ea8d4e"/><path d="m312.03 332.29v.002l-56.03 37.708-56.03-37.708v-.002s-149.38 33.26-150.66 74.77c46.57 63.62 121.81 104.94 206.69 104.94s160.12-41.32 206.69-104.94c-1.27-41.52-150.66-74.77-150.66-74.77z" fill="#ffea92"/><path d="m462.69 407.06c-46.57 63.62-121.81 104.94-206.69 104.94v-142l56.03-37.71h73.51c41.83 0 75.88 33.25 77.15 74.77z" fill="#f7d854"/><path d="m199.97 332.29v173.55c-64.86-14.47-120.43-53.56-156.41-106.95 4.55-37.53 36.51-66.6 75.26-66.6z" fill="#4779f4"/><path d="m468.44 398.89c-35.98 53.39-91.55 92.48-156.41 106.95v-173.55h81.15c38.75 0 70.71 29.07 75.26 66.6z" fill="#2357cc"/><path d="m199.97 332.29v173.55c-24.97-5.57-48.57-14.79-70.2-27.08l36.05-49.76-34.15-58z" fill="#71a0ff"/><path d="m382.23 478.76c-21.63 12.29-45.23 21.51-70.2 27.08v-173.55l68.3 38.71-34.15 58z" fill="#4779f4"/><path d="m349.62 151.149c-3.955-60.043-52.523-82.233-93.62-82.233s-89.665 22.19-93.62 82.233c-10.628 2.055-18.177 15.995-16.988 27.265l1.822 25.648c1.247 11.835 11.65 20.476 23.115 19.19l1.977-.214c23.485 63.063 60.316 69.638 83.694 73.33 23.378-3.692 60.209-10.267 83.694-73.33l1.977.214c11.465 1.286 21.868-7.354 23.115-19.19l1.822-25.648c1.189-11.27-6.36-25.21-16.988-27.265z" fill="#ffbf85"/><path d="m366.609 178.414-1.822 25.648c-1.247 11.835-11.65 20.476-23.115 19.19l-1.977-.214c-8.027 21.528-17.602 36.48-27.664 46.971-19.404 20.242-40.629 23.924-56.03 26.359v-227.452c41.097 0 89.665 22.19 93.62 82.233 10.627 2.055 18.176 15.995 16.988 27.265z" fill="#f7a969"/><path d="m275.826 204.523c-11.431-9.719-28.221-9.719-39.652 0-12.748 10.838-28.758 17.094-45.477 17.771l-18.392.744 1.233 7.414c6.705 40.322 41.586 69.882 82.461 69.882 41.791-2.318 76.381-33.318 83.247-74.606l.447-2.69-18.392-.744c-16.717-.677-32.727-6.933-45.475-17.771z" fill="#efebdc"/><path d="m339.69 223.04-.44 2.69c-3.43 20.65-12.49 39.84-27.22 53.04s-35.13 20.41-56.03 21.56v-103.1c7.06 0 14.12 2.43 19.83 7.29 12.74 10.84 28.75 17.1 45.47 17.77z" fill="#d6cfbd"/><path d="m288.024 49.425c-21.141-3.591-42.736-3.595-63.879-.014l-.083.014c-38.16 6.481-65.319 40.654-63.018 79.291l1.336 22.433c55.331 9.96 92.307-42.959 93.663-44.932 1.357 1.972 38.332 54.892 93.663 44.932l1.336-22.433c2.301-38.638-24.858-72.81-63.018-79.291z" fill="#af4b00"/></g><path d="m351.04 128.72-1.33 22.43c-55.33 9.96-92.31-42.96-93.67-44.93-.01.02-.03.04-.04.06v-59.55c10.71-.01 21.42.89 32.02 2.69 38.16 6.49 65.32 40.66 63.02 79.3z" fill="#7f3706"/></g></svg>