<svg id="Layer_1" enable-background="new 0 0 512 512" height="512" viewBox="0 0 512 512" width="512" xmlns="http://www.w3.org/2000/svg"><g><g><g><path d="m0 256c0-141.385 114.615-256 256-256s256 114.615 256 256c0 56.499-18.303 108.723-49.302 151.066-46.575 63.619-121.812 17.434-206.698 17.434s-160.123 46.185-206.698-17.434c-30.999-42.343-49.302-94.567-49.302-151.066z" fill="#4779f4"/></g></g><path d="m256 424.5c84.886 0 160.123 46.185 206.698-17.434 31-42.343 49.302-94.567 49.302-151.066 0-5.434-.19-10.822-.523-16.171l-173.636-173.636-183.404 151.95c1.567 1.412 40.828 40.303 47.001 46.419.092.091.167.166.243.241.069.068.131.13.188.186.062.061.121.119.167.165.278.276.292.29 0 0-.047-.047-.105-.104-.167-.165-.057-.056-.118-.117-.188-.186-.075-.075-.154-.153-.243-.241-8.262 19.996-29.132 32.974-29.132 32.974l59.257 59.151-182.253 50.373c.024.033.042.07.066.103 46.58 63.471 121.782 17.337 206.624 17.337z" fill="#2357cc"/><g><path d="m337 210.5-81-13.27-81 13.27s-72 109.408 81 109.408 81-109.408 81-109.408z" fill="#584b66"/><path d="m337 210.5s72 109.408-81 109.408v-122.678z" fill="#3d3449"/><path d="m199.97 260.488h112.06v118.84h-112.06z" fill="#ffbb7d"/><path d="m256 260.491h56.03v118.84h-56.03z" fill="#efa36a"/><path d="m385.54 332.29h-73.51v.002h-112.06v-.002h-73.5c-41.82 0-75.88 33.26-77.16 74.77 46.57 63.62 121.81 104.94 206.69 104.94s160.12-41.32 206.69-104.94c-1.27-41.52-35.32-74.77-77.15-74.77z" fill="#ffd4a6"/><path d="m462.69 407.06c-46.57 63.62-121.81 104.94-206.69 104.94v-179.71h129.54c41.83 0 75.88 33.25 77.15 74.77z" fill="#ffbb7d"/><path d="m462.69 407.06c-46.57 63.62-121.81 104.94-206.69 104.94s-160.12-41.32-206.69-104.94c1.28-41.51 35.34-74.77 77.16-74.77h73.5v9.18c0 30.94 25.09 56.03 56.03 56.03 15.47 0 29.48-6.27 39.62-16.41s16.41-24.15 16.41-39.62v-9.18h73.51c41.83 0 75.88 33.25 77.15 74.77z" fill="#ffd110"/><path d="m462.69 407.06c-46.57 63.62-121.81 104.94-206.69 104.94v-114.5c15.47 0 29.48-6.27 39.62-16.41s16.41-24.15 16.41-39.62v-9.18h73.51c41.83 0 75.88 33.25 77.15 74.77z" fill="#efb000"/><path d="m349.62 151.149c-3.955-60.043-52.523-82.233-93.62-82.233s-89.665 22.19-93.62 82.233c-10.628 2.055-18.177 15.995-16.988 27.265l1.822 25.648c1.247 11.835 11.65 20.476 23.115 19.19l1.977-.214c23.485 63.063 60.316 69.638 83.694 73.33 23.378-3.692 60.209-10.267 83.694-73.33l1.977.214c11.465 1.286 21.868-7.354 23.115-19.19l1.822-25.648c1.189-11.27-6.36-25.21-16.988-27.265z" fill="#ffd4a6"/><path d="m366.609 178.414-1.822 25.648c-1.247 11.835-11.65 20.476-23.115 19.19l-1.977-.214c-8.027 21.528-17.602 36.48-27.664 46.971-19.404 20.242-40.629 23.924-56.03 26.359v-227.452c41.097 0 89.665 22.19 93.62 82.233 10.627 2.055 18.176 15.995 16.988 27.265z" fill="#ffbb7d"/><path d="m275.826 204.523c-11.431-9.719-28.221-9.719-39.652 0-12.748 10.838-28.758 17.094-45.477 17.771l-18.392.744 1.233 7.414c6.705 40.322 41.586 69.882 82.461 69.882 41.791-2.318 76.381-33.318 83.247-74.606l.447-2.69-18.392-.744c-16.717-.677-32.727-6.933-45.475-17.771z" fill="#efebdc"/><path d="m339.69 223.04-.44 2.69c-3.43 20.65-13.8 38.72-28.53 51.92s-33.82 21.53-54.72 22.68v-103.1c7.06 0 14.12 2.43 19.83 7.29 12.74 10.84 28.75 17.1 45.47 17.77z" fill="#d6cfbd"/><path d="m256 33.75c-124 0-108.467 131.409-108.467 131.409 51.38 1.649 108.467-77.159 108.467-77.159s57.099 78.808 108.479 77.159c0 0 15.521-131.409-108.479-131.409z" fill="#584b66"/><path d="m256 88s57.099 78.808 108.479 77.159c0 0 15.521-131.409-108.479-131.409z" fill="#3d3449"/><path d="m316.07 344.633-4.04-12.343-.001.002c-.029.084-16.444 47.039-56.029 47.039-39.62 0-56.03-47.041-56.03-47.041s-28.47-30.29-89.97-7.29c0 0 21.212 23.835 51.055 23.017-14.66 9.469-29.778 24.349-38.055 47.483 0 0 49.471 16.432 69.095-21.54 4.664 17.8 19.302 50.54 63.905 50.54 22.969 0 37.992-8.684 47.799-19.538 14.72-16.292 19.101-39.462 12.271-60.329z" fill="#ff4571"/><path d="m303.8 404.96c-9.81 10.86-24.83 19.54-47.8 19.54v-45.17c19.79 0 33.79-11.74 42.85-23.49 9.05-11.74 13.17-23.5 13.18-23.55l4.04 12.34c6.83 20.87 2.45 44.04-12.27 60.33z" fill="#e52541"/></g></g></svg>