<svg id="Layer_1" enable-background="new 0 0 512 512" height="512" viewBox="0 0 512 512" width="512" xmlns="http://www.w3.org/2000/svg"><g><g><g><circle cx="256" cy="256" fill="#ffea92" r="256"/></g></g><path d="m512 256c0-15.752-1.431-31.168-4.155-46.133l-148.854-148.854-281.064 378.884c46.077 44.626 108.862 72.103 178.073 72.103 141.385 0 256-114.615 256-256z" fill="#f7d854"/><g><g><path d="m231.502 212.675c0-16.529-13.908-29.809-30.66-28.777-14.573.898-26.344 12.904-26.979 27.491-.156 3.587.345 7.036 1.391 10.238 1.344 4.113-.13 8.552-3.403 11.382-6.111 5.285-9.979 13.092-9.979 21.807 0 4.868 1.207 9.453 3.338 13.473 2.307 4.353 1.193 9.629-2.511 12.877-6.024 5.282-9.827 13.033-9.827 21.674 0 6.079 1.882 11.717 5.095 16.366 2.516 3.64 2.487 8.374-.024 12.018-3.292 4.778-5.18 10.598-5.066 16.866.269 14.874 12.134 27.317 26.982 28.242 16.761 1.044 30.68-12.24 30.68-28.776 0-6.014-1.842-11.596-4.992-16.216-2.545-3.733-2.545-8.55 0-12.284 3.15-4.62 4.992-10.202 4.992-16.216 0-4.868-1.207-9.453-3.338-13.474-2.307-4.353-1.193-9.629 2.511-12.877 6.024-5.282 9.827-13.032 9.827-21.674 0-3.038-.471-5.966-1.343-8.715-1.336-4.212-.015-8.73 3.326-11.62 6.112-5.283 9.98-13.091 9.98-21.805z" fill="#3d3449"/><path d="m280.498 212.675c0-16.529 13.908-29.809 30.66-28.777 14.573.898 26.344 12.904 26.979 27.491.156 3.587-.345 7.036-1.391 10.238-1.344 4.113.13 8.552 3.403 11.382 6.111 5.285 9.979 13.092 9.979 21.807 0 4.868-1.207 9.453-3.338 13.473-2.307 4.353-1.193 9.629 2.511 12.877 6.024 5.282 9.828 13.033 9.828 21.674 0 6.079-1.882 11.717-5.095 16.366-2.516 3.64-2.487 8.374.024 12.018 3.292 4.778 5.18 10.598 5.066 16.866-.269 14.874-12.134 27.317-26.982 28.242-16.761 1.044-30.68-12.24-30.68-28.776 0-6.014 1.842-11.596 4.992-16.216 2.545-3.733 2.545-8.55 0-12.284-3.15-4.62-4.992-10.202-4.992-16.216 0-4.868 1.207-9.453 3.338-13.474 2.307-4.353 1.193-9.629-2.511-12.877-6.024-5.282-9.828-13.032-9.828-21.674 0-3.038.471-5.966 1.343-8.715 1.336-4.212.015-8.73-3.327-11.62-6.111-5.283-9.979-13.091-9.979-21.805z" fill="#2b2635"/></g><path d="m199.97 260.488h112.06v118.84h-112.06z" fill="#af4b00"/><path d="m256 260.491h56.03v118.84h-56.03z" fill="#7f3706"/><path d="m385.54 332.29h-73.51v.002l-56.03 47.039-56.03-47.039v-.002h-73.5c-41.82 0-75.88 33.26-77.16 74.77 46.57 63.62 121.81 104.94 206.69 104.94s160.12-41.32 206.69-104.94c-1.27-41.52-35.32-74.77-77.15-74.77z" fill="#a23ace"/><path d="m462.69 407.06c-46.57 63.62-121.81 104.94-206.69 104.94v-132.669l46.35-47.041h83.19c41.83 0 75.88 33.25 77.15 74.77z" fill="#7728a0"/><g><path d="m351.609 144.98c-4.039-61.319-53.639-83.98-95.609-83.98s-91.57 22.661-95.609 83.98c-10.853 2.099-18.563 16.335-17.349 27.844l1.86 26.193c1.273 12.087 11.898 20.91 23.606 19.597l2.019-.219c23.984 64.403 61.597 71.117 85.472 74.888 23.875-3.77 61.488-10.485 85.472-74.888l2.019.219c11.709 1.313 22.333-7.51 23.606-19.597l1.86-26.193c1.216-11.509-6.494-25.745-17.347-27.844z" fill="#d36c18"/><path d="m368.958 172.824-1.86 26.193c-1.273 12.087-11.898 20.91-23.606 19.597l-2.019-.219c-8.197 21.985-17.976 37.255-28.252 47.969-19.816 20.672-41.493 24.432-57.22 26.919v-232.283c41.97 0 91.57 22.661 95.609 83.98 10.852 2.099 18.562 16.335 17.348 27.844z" fill="#af4b00"/><path d="m276.247 199.488c-11.674-9.925-28.821-9.925-40.494 0-13.018 11.068-29.369 17.458-46.443 18.148l-18.783.76 1.259 7.572c6.847 41.179 42.469 71.366 84.213 71.366 42.679-2.367 78.004-34.025 85.015-76.191l.457-2.747-18.782-.76c-17.073-.691-33.423-7.08-46.442-18.148z" fill="#efebdc"/><path d="m341.468 218.398-.449 2.747c-3.503 21.089-14.093 39.543-29.136 53.023-15.043 13.481-34.538 21.987-55.882 23.162v-105.29c7.21 0 14.42 2.482 20.251 7.445 13.011 11.07 29.361 17.463 46.436 18.148z" fill="#d6cfbd"/><g><path d="m197.761 153.967c0-19.09-13.908-34.427-30.66-33.235-14.573 1.037-26.344 14.904-26.979 31.75-.156 4.142.345 8.126 1.391 11.824 1.344 4.75-.13 9.877-3.403 13.146-6.111 6.104-9.979 15.121-9.979 25.185 0 5.622 1.207 10.917 3.338 15.561 2.307 5.027 1.193 11.121-2.511 14.872-6.024 6.101-9.827 15.051-9.827 25.032 0 7.021 1.882 13.533 5.095 18.902 2.515 4.204 2.487 9.671-.024 13.879-3.292 5.519-5.18 12.24-5.067 19.479.269 17.178 12.135 31.549 26.982 32.617 16.761 1.206 30.68-14.137 30.68-33.234 0-6.945-1.842-13.393-4.992-18.729-2.545-4.311-2.545-9.875 0-14.186 3.15-5.336 4.992-11.783 4.992-18.728 0-5.622-1.207-10.917-3.338-15.561-2.307-5.027-1.193-11.121 2.511-14.872 6.024-6.101 9.828-15.051 9.828-25.032 0-3.509-.471-6.89-1.343-10.065-1.336-4.864-.015-10.083 3.326-13.42 6.112-6.104 9.98-15.121 9.98-25.185z" fill="#584b66"/><path d="m314.239 153.967c0-19.09 13.908-34.427 30.66-33.235 14.573 1.037 26.344 14.904 26.979 31.75.156 4.142-.345 8.126-1.391 11.824-1.344 4.75.13 9.877 3.403 13.146 6.111 6.104 9.979 15.121 9.979 25.185 0 5.622-1.207 10.917-3.338 15.561-2.307 5.027-1.193 11.121 2.511 14.872 6.024 6.101 9.827 15.051 9.827 25.032 0 7.021-1.882 13.533-5.095 18.902-2.516 4.204-2.487 9.671.024 13.879 3.292 5.519 5.18 12.24 5.067 19.479-.269 17.178-12.134 31.549-26.982 32.617-16.761 1.206-30.68-14.137-30.68-33.234 0-6.945 1.842-13.393 4.992-18.729 2.545-4.311 2.545-9.875 0-14.186-3.15-5.336-4.992-11.783-4.992-18.728 0-5.622 1.207-10.917 3.338-15.561 2.307-5.027 1.193-11.121-2.511-14.872-6.024-6.101-9.827-15.051-9.827-25.032 0-3.509.471-6.89 1.343-10.065 1.336-4.864.015-10.083-3.327-13.42-6.112-6.104-9.98-15.121-9.98-25.185z" fill="#3d3449"/></g><path d="m362.63 97.67c-1.13 2.17-2.5 4.39-4.12 6.66l-102.51 8-102.51-8c-1.62-2.27-2.99-4.49-4.12-6.66-24.33-46.39 57.27-71.34 106.63-71.34s130.96 24.95 106.63 71.34z" fill="#4cd3aa"/><path d="m362.63 97.67c-1.13 2.17-2.5 4.39-4.12 6.66l-102.51 8v-86c49.36 0 130.96 24.95 106.63 71.34z" fill="#26b290"/><path d="m362.63 97.67c-1.13 2.17-2.5 4.39-4.12 6.66l-102.51 8-102.51-8c-1.62-2.27-2.99-4.49-4.12-6.66 15.77-25.98 70.05-36.67 106.63-36.67s90.86 10.69 106.63 36.67z" fill="#ff4571"/><path d="m362.63 97.67c-1.13 2.17-2.5 4.39-4.12 6.66l-102.51 8v-51.33c36.58 0 90.86 10.69 106.63 36.67z" fill="#e52541"/><path d="m325.839 137h-139.678c-18.041 0-32.667-14.625-32.667-32.667h205.012c0 18.042-14.626 32.667-32.667 32.667z" fill="#efb000"/><path d="m358.51 104.33c0 9.02-3.66 17.19-9.57 23.1s-14.08 9.57-23.1 9.57h-69.84v-32.67z" fill="#e58a07"/></g><path d="m199.97 310s-52.03 5.58-73.5 22.29c0 0 24.376 21.348 46.371 48.449 14.682 18.09 40.628 21.791 59.858 8.637 7.249-4.958 15.198-8.835 23.301-10.045z" fill="#efebdc"/><path d="m312.03 310s52.03 5.58 73.5 22.29c0 0-24.376 21.348-46.371 48.449-14.682 18.09-40.628 21.791-59.858 8.637-7.249-4.958-15.198-8.835-23.301-10.045z" fill="#d6cfbd"/></g></g></svg>