<svg id="Layer_1" enable-background="new 0 0 512 512" height="512" viewBox="0 0 512 512" width="512" xmlns="http://www.w3.org/2000/svg"><g><g><g><path d="m512 256c0 58.88-19.88 113.11-53.29 156.36-46.82 60.61-120.21 99.64-202.71 99.64s-155.89-39.03-202.71-99.64c-33.41-43.25-53.29-97.48-53.29-156.36 0-141.38 114.62-256 256-256s256 114.62 256 256z" fill="#584b66"/></g></g><path d="m256 512c82.5 0 155.89-39.03 202.71-99.64 33.41-43.25 53.29-97.48 53.29-156.36 0-5.959-.221-11.865-.621-17.722l-173.234-184.803-267.812 166.892 120.762 121.038c-2.507 3.59-5.014 22.859.155 27.595l-137.96 43.36c46.82 60.61 120.21 99.64 202.71 99.64z" fill="#3d3449"/><path d="m375.063 137.527c-8.674-12.977-14.347-27.657-17.148-43.013-.012-.063-.023-.127-.035-.19-11.185-60.59-73.036-74.123-101.88-74.123s-90.695 13.533-101.88 74.123c-.012.063-.023.127-.035.19-2.801 15.355-8.474 30.036-17.148 43.013-18.334 27.428-44.845 64.19-66.604 82.841 0 0 67.333 79.333 185.667 79.333s185.667-79.333 185.667-79.333c-21.759-18.651-48.27-55.413-66.604-82.841z" fill="#e58a07"/><path d="m441.67 220.37s-67.34 79.33-185.67 79.33v-279.5c28.84 0 90.7 13.53 101.88 74.12.01.07.02.13.03.19 2.81 15.36 8.48 30.04 17.15 43.02 18.34 27.42 44.85 64.19 66.61 82.84z" fill="#d36c18"/><path d="m199.97 260.488h112.06v118.84h-112.06z" fill="#f7a969"/><path d="m256 260.491h56.03v118.84h-56.03z" fill="#ea8d4e"/><path d="m314.733 317.504c-4.707-.086-9.108 1.169-12.859 3.404-4.295 2.559-9.589 2.705-13.861.109-3.67-2.23-7.975-3.517-12.586-3.517-4.466 0-8.645 1.207-12.238 3.31-4.465 2.612-9.911 2.612-14.376 0-3.593-2.102-7.772-3.31-12.239-3.31-4.611 0-8.916 1.287-12.586 3.517-4.273 2.596-9.566 2.451-13.861-.109-3.751-2.235-8.152-3.49-12.859-3.404-12.628.23-23.192 10.393-23.875 23.005-.762 14.072 10.423 25.722 24.329 25.722 4.466 0 8.645-1.207 12.238-3.31 4.465-2.612 9.912-2.612 14.376 0 3.593 2.103 7.772 3.31 12.238 3.31s8.645-1.207 12.238-3.31c4.465-2.612 9.912-2.612 14.376 0 3.593 2.103 7.772 3.31 12.238 3.31s8.645-1.207 12.238-3.31c4.465-2.612 9.912-2.612 14.376 0 3.593 2.103 7.772 3.31 12.238 3.31 13.906 0 25.091-11.649 24.329-25.722-.682-12.612-11.246-22.774-23.874-23.005z" fill="#efebdc"/><path d="m314.28 366.23c-4.47 0-8.65-1.21-12.24-3.31-4.46-2.61-9.91-2.61-14.38 0-3.59 2.1-7.77 3.31-12.23 3.31-4.47 0-8.65-1.21-12.24-3.31-2.23-1.3-4.71-1.96-7.19-1.96v-38.19c2.48 0 4.96-.65 7.19-1.96 3.59-2.1 7.77-3.31 12.24-3.31 4.61 0 8.91 1.29 12.58 3.52 4.28 2.59 9.57 2.45 13.86-.11 3.76-2.24 8.16-3.49 12.86-3.41 12.63.23 23.19 10.4 23.88 23.01.76 14.07-10.42 25.72-24.33 25.72z" fill="#d6cfbd"/><path d="m458.71 412.36c-46.82 60.61-120.21 99.64-202.71 99.64s-155.89-39.03-202.71-99.64c10.3-30.54 39.17-52.53 73.18-52.53h259.07c34.02 0 62.89 21.99 73.17 52.53z" fill="#ffd110"/><path d="m458.71 412.36c-46.82 60.61-120.21 99.64-202.71 99.64v-152.17h129.54c34.02 0 62.89 21.99 73.17 52.53z" fill="#efb000"/><path d="m349.62 140.516c-3.955-60.043-52.523-82.233-93.62-82.233s-89.666 22.19-93.62 82.233c-10.628 2.055-18.177 15.995-16.988 27.265l1.822 25.648c1.247 11.835 11.65 20.475 23.115 19.19l1.977-.214c23.485 63.063 60.316 69.638 83.694 73.33 23.378-3.692 60.209-10.267 83.694-73.33l1.977.214c11.465 1.286 21.868-7.354 23.115-19.19l1.822-25.648c1.189-11.27-6.36-25.209-16.988-27.265z" fill="#ffbf85"/><path d="m366.609 167.781-1.822 25.648c-1.247 11.835-11.65 20.475-23.115 19.19l-1.977-.214c-8.027 21.528-17.602 36.48-27.664 46.971-19.404 20.242-40.63 23.924-56.03 26.359v-227.452c41.097 0 89.665 22.19 93.62 82.233 10.627 2.056 18.176 15.995 16.988 27.265z" fill="#f7a969"/><path d="m275.826 193.89c-11.431-9.718-28.221-9.718-39.652 0-12.748 10.838-28.758 17.094-45.477 17.77l-18.392.744 1.233 7.414c6.705 40.322 41.586 69.882 82.461 69.882 41.791-2.318 76.381-33.318 83.247-74.606l.447-2.69-18.392-.744c-16.717-.675-32.727-6.932-45.475-17.77z" fill="#efebdc"/><path d="m339.69 212.407-.44 2.69c-3.43 20.65-12.49 39.84-27.22 53.04s-35.13 20.41-56.03 21.56v-103.1c7.06 0 14.12 2.43 19.83 7.29 12.74 10.84 28.75 17.1 45.47 17.77z" fill="#d6cfbd"/><path d="m256 26.867c-28.844 0-90.695 13.533-101.88 74.123-4.448 24.096.81 48.979 13.933 69.672l4.252 6.705 19.433-47.064c4.027-9.753 16.47-12.621 24.36-5.616 6.108 5.423 15.395 5.108 21.121-.717l7.842-7.978c6.01-6.114 15.865-6.114 21.875 0l7.842 7.978c5.726 5.825 15.013 6.14 21.121.717 7.89-7.006 20.333-4.137 24.36 5.616l19.433 47.064 4.252-6.705c13.123-20.693 18.381-45.576 13.933-69.672-11.182-60.589-73.033-74.123-101.877-74.123z" fill="#e58a07"/><path d="m343.95 170.66-4.26 6.71-19.43-47.07c-2.51-6.08-8.3-9.49-14.21-9.49-3.57 0-7.18 1.24-10.15 3.88-6.11 5.42-15.39 5.11-21.12-.72l-7.84-7.98c-3-3.05-6.97-4.58-10.94-4.58v-84.54c28.84 0 90.7 13.53 101.88 74.12 4.45 24.1-.81 48.98-13.93 69.67z" fill="#d36c18"/></g></svg>