<svg id="Layer_1" enable-background="new 0 0 512 512" height="512" viewBox="0 0 512 512" width="512" xmlns="http://www.w3.org/2000/svg"><g><g><g><path d="m512 256c0 56.5-18.31 108.72-49.31 151.06-46.57 63.62-121.81 39.523-206.69 39.523s-160.12 24.097-206.69-39.523c-31-42.34-49.31-94.56-49.31-151.06 0-141.38 114.62-256 256-256s256 114.62 256 256z" fill="#584b66"/></g></g><path d="m256 446.583c84.88 0 160.12 24.097 206.69-39.523 31-42.34 49.31-94.56 49.31-151.06 0-6.874-.279-13.681-.811-20.418-32.254-32.387-192.954-192.901-192.954-192.901l-162.656 176.402 109.88 110.125-216.149 77.852c46.57 63.62 121.81 39.523 206.69 39.523z" fill="#3d3449"/><path d="m339.694 378.995h-167.388v-280.391c0-46.223 37.471-83.694 83.694-83.694 46.223 0 83.694 37.471 83.694 83.694z" fill="#ffea92"/><path d="m339.69 98.6v280.39h-83.69v-364.08c23.11 0 44.03 9.37 59.18 24.51 15.14 15.15 24.51 36.07 24.51 59.18z" fill="#f7d854"/><path d="m199.97 260.488h112.06v118.84h-112.06z" fill="#f7a969"/><path d="m256 260.491h56.03v118.84h-56.03z" fill="#ea8d4e"/><path d="m312.03 332.29v.002h-112.06v-.002s-149.38 33.26-150.66 74.77c46.57 63.62 121.81 104.94 206.69 104.94s160.12-41.32 206.69-104.94c-1.27-41.52-150.66-74.77-150.66-74.77z" fill="#ffbf85"/><path d="m462.69 407.06c-46.57 63.62-121.81 104.94-206.69 104.94v-179.71h93.667s113.023 34.71 113.023 74.77z" fill="#f7a969"/><path d="m462.69 407.06v.01c-46.58 63.62-121.81 104.93-206.69 104.93s-160.11-41.31-206.69-104.93c0 0 0 0 0-.01l2.3-16.59c4.62-33.35 33.12-58.18 66.79-58.18h26.87l27.04 57.15 83.69 57.14 83.69-57.14 27.04-57.15h26.87c33.67 0 62.17 24.83 66.79 58.18z" fill="#efebdc"/><path d="m462.69 407.06v.01c-46.58 63.62-121.81 104.93-206.69 104.93v-65.42l83.69-57.14 27.04-57.15h26.87c33.67 0 62.17 24.83 66.79 58.18z" fill="#d6cfbd"/><path d="m349.62 151.149c-3.955-60.043-52.523-82.233-93.62-82.233s-89.665 22.19-93.62 82.233c-10.628 2.055-18.177 15.995-16.988 27.265l1.822 25.648c1.247 11.835 11.65 20.476 23.115 19.19l1.977-.214c23.485 63.063 60.316 69.638 83.694 73.33 23.378-3.692 60.209-10.267 83.694-73.33l1.977.214c11.465 1.286 21.868-7.354 23.115-19.19l1.822-25.648c1.189-11.27-6.36-25.21-16.988-27.265z" fill="#ffbf85"/><path d="m366.609 178.414-1.822 25.648c-1.247 11.835-11.65 20.476-23.115 19.19l-1.977-.214c-8.027 21.528-17.602 36.48-27.664 46.971-19.404 20.242-40.629 23.924-56.03 26.359v-227.452c41.097 0 89.665 22.19 93.62 82.233 10.627 2.055 18.176 15.995 16.988 27.265z" fill="#f7a969"/><path d="m256 46c-53.33 0-115.061 22.536-101.905 109.538l101.905-37.788 101.768 37.663c13.155-87.001-48.438-109.413-101.768-109.413z" fill="#ff85df"/><path d="m357.77 155.41-101.77-37.66v-71.75c53.33 0 114.92 22.41 101.77 109.41z" fill="#ff57cc"/><path d="m256 111c-60.667 0-101.905 44.538-101.905 44.538 8.576 26.041 37.926 18.894 54.561-2.207 5.442-6.903 12.516-11.612 19.53-14.822 17.521-8.019 38.107-8.019 55.628 0 7.014 3.21 14.088 7.919 19.53 14.822 16.634 21.101 45.848 28.123 54.424 2.082 0 0-41.101-44.413-101.768-44.413z" fill="#ff57cc"/><path d="m357.77 155.41c-8.58 26.04-37.79 19.02-54.43-2.08-5.44-6.9-12.51-11.61-19.53-14.82-8.76-4.01-18.29-6.01-27.81-6.01v-21.5c60.67 0 101.77 44.41 101.77 44.41z" fill="#e224ba"/><path d="m275.826 204.523c-11.431-9.719-28.221-9.719-39.652 0-12.748 10.838-28.758 17.094-45.477 17.771l-18.392.744 1.233 7.414c6.705 40.322 41.586 69.882 82.461 69.882 41.791-2.318 76.381-33.318 83.247-74.606l.447-2.69-18.392-.744c-16.717-.677-32.727-6.933-45.475-17.771z" fill="#efebdc"/><path d="m339.69 223.04-.44 2.69c-3.43 20.65-12.49 39.84-27.22 53.04s-35.13 20.41-56.03 21.56v-103.1c7.06 0 14.12 2.43 19.83 7.29 12.74 10.84 28.75 17.1 45.47 17.77z" fill="#d6cfbd"/><path d="m199.97 332.29h-54.702s9.732 114.293 110.732 114.293c0 0-56.03-54.003-56.03-114.293z" fill="#4779f4"/><path d="m312.03 332.29h54.702s-9.732 114.293-110.732 114.293c0 0 56.03-54.003 56.03-114.293z" fill="#2357cc"/></g></svg>