<svg id="Layer_1" enable-background="new 0 0 512 512" height="512" viewBox="0 0 512 512" width="512" xmlns="http://www.w3.org/2000/svg"><g><g><g><path d="m512 256c0 54.515-17.046 105.045-46.089 146.56-1.058 1.512-125.031 44.023-209.911 44.023s-208.853-42.511-209.911-44.023c-29.043-41.515-46.089-92.045-46.089-146.56 0-141.38 114.62-256 256-256s256 114.62 256 256z" fill="#ff57cc"/></g></g><path d="m465.911 402.56c29.043-41.515 46.089-92.045 46.089-146.56 0-2.245-.03-4.483-.088-6.715l-169.872-169.872-188.047 138.328 32.144 32.155c4.315 15.438 33.54 35.025 33.613 35.104l-13.25 64-160.41 53.56v.001c1.087 1.522 125.04 44.022 209.909 44.022 84.881 0 208.854-42.511 209.912-44.023z" fill="#e224ba"/><g><path d="m199.97 260.488h112.06v118.84h-112.06z" fill="#f7a969"/><path d="m256 260.491h56.03v118.84h-56.03z" fill="#ea8d4e"/><path d="m360.44 332.29v157.51c-31.9 14.26-67.24 22.2-104.44 22.2s-72.54-7.94-104.44-22.2v-157.51h48.41l56.03 47.04 56.03-47.04z" fill="#ffea92"/><path d="m360.44 332.29v157.51c-31.9 14.26-67.24 22.2-104.44 22.2v-132.67l56.03-47.04z" fill="#f7d854"/><path d="m349.62 151.149c-3.955-60.043-52.523-82.233-93.62-82.233s-89.665 22.19-93.62 82.233c-10.628 2.055-18.177 15.995-16.988 27.265l1.822 25.648c1.247 11.835 11.65 20.476 23.115 19.19l1.977-.214c23.485 63.063 60.316 69.638 83.694 73.33 23.378-3.692 60.209-10.267 83.694-73.33l1.977.214c11.465 1.286 21.868-7.354 23.115-19.19l1.822-25.648c1.189-11.27-6.36-25.21-16.988-27.265z" fill="#ffbf85"/><path d="m366.609 178.414-1.822 25.648c-1.247 11.835-11.65 20.476-23.115 19.19l-1.977-.214c-8.027 21.528-17.602 36.48-27.664 46.971-19.404 20.242-40.629 23.924-56.03 26.359v-227.452c41.097 0 89.665 22.19 93.62 82.233 10.627 2.055 18.176 15.995 16.988 27.265z" fill="#f7a969"/><path d="m275.826 204.523c-11.431-9.719-28.221-9.719-39.652 0-12.748 10.838-28.758 17.094-45.477 17.771l-18.392.744 1.233 7.414c6.705 40.322 41.586 69.882 82.461 69.882 41.791-2.318 76.381-33.318 83.247-74.606l.447-2.69-18.392-.744c-16.717-.677-32.727-6.933-45.475-17.771z" fill="#efebdc"/><path d="m339.69 223.04-.44 2.69c-3.43 20.65-12.49 39.84-27.22 53.04s-35.13 20.41-56.03 21.56v-103.1c7.06 0 14.12 2.43 19.83 7.29 12.74 10.84 28.75 17.1 45.47 17.77z" fill="#d6cfbd"/><g><path d="m195.93 504.91c-61.64-14.82-114.59-51.94-149.84-102.35l13.424-38.114c6.786-19.267 24.99-32.156 45.418-32.156h49.738z" fill="#4cd3aa"/><path d="m465.91 402.56c-35.25 50.41-88.2 87.53-149.84 102.35l41.26-172.62h49.738c20.427 0 38.631 12.889 45.418 32.156z" fill="#26b290"/></g><g><path d="m204.59 348.351c-3.403 3.214-5.331 7.688-5.331 12.368v17.439c0 4.68 1.928 9.154 5.331 12.368 4.739 4.476 11.618 5.851 17.714 3.541l22.622-8.576v-32.105l-22.622-8.576c-6.096-2.31-12.975-.935-17.714 3.541z" fill="#4cd3aa"/><g><path d="m307.41 348.351c3.402 3.214 5.331 7.688 5.331 12.368v17.439c0 4.68-1.928 9.154-5.331 12.368-4.739 4.476-11.618 5.851-17.714 3.541l-22.622-8.576v-32.105l22.622-8.576c6.096-2.31 12.975-.935 17.714 3.541z" fill="#26b290"/></g></g><ellipse cx="256" cy="369.439" fill="#26b290" rx="23.998" ry="23.998" transform="matrix(.924 -.383 .383 .924 -121.891 126.089)"/><path d="m280 369.44c0 13.25-10.75 24-24 24v-48c13.25 0 24 10.75 24 24z" fill="#199977"/><path d="m350.16 91.445h.004c-11.504-28.889-94.164-67.112-94.164-67.112s-82.66 38.223-94.164 67.112h.003c-7.604 13.99-9.866 30.95-4.738 47.583l15.204 45.305 14.653-40.891c4.824-13.461 17.582-22.442 31.882-22.442h74.321c14.299 0 27.058 8.981 31.882 22.442l14.652 40.891 15.204-45.305c5.128-16.633 2.865-33.593-4.739-47.583z" fill="#584b66"/><path d="m354.9 139.03-15.21 45.3-14.65-40.89c-4.82-13.46-17.58-22.44-31.88-22.44h-37.16v-96.67s82.66 38.23 94.16 67.11c7.6 14 9.87 30.96 4.74 47.59z" fill="#3d3449"/></g></g></svg>