<svg id="Layer_1" enable-background="new 0 0 512 512" height="512" viewBox="0 0 512 512" width="512" xmlns="http://www.w3.org/2000/svg"><g><g><g><path d="m512 256c0 56.5-18.31 108.72-49.31 151.06-46.57 63.62-121.81 39.523-206.69 39.523s-160.12 24.097-206.69-39.523c-31-42.34-49.31-94.56-49.31-151.06 0-141.38 114.62-256 256-256s256 114.62 256 256z" fill="#584b66"/></g></g><path d="m256 446.583c84.88 0 160.12 24.097 206.69-39.523 31-42.34 49.31-94.56 49.31-151.06 0-10.733-.67-21.308-1.953-31.694l-151.907-151.908-275.347 364.447c45.583 24.652 106.407 9.738 173.207 9.738z" fill="#3d3449"/><g><path d="m199.97 260.488h112.06v118.84h-112.06z" fill="#ffbb7d"/><path d="m256 260.491h56.03v118.84h-56.03z" fill="#efa36a"/><path d="m385.54 332.29h-73.51v.002h-112.06v-.002h-73.5c-41.82 0-75.88 33.26-77.16 74.77 46.57 63.62 121.81 104.94 206.69 104.94s160.12-41.32 206.69-104.94c-1.27-41.52-35.32-74.77-77.15-74.77z" fill="#ffd4a6"/><path d="m462.69 407.06c-46.57 63.62-121.81 104.94-206.69 104.94v-179.71h129.54c41.83 0 75.88 33.25 77.15 74.77z" fill="#ffbb7d"/><path d="m462.69 407.06c-46.57 63.62-121.81 104.94-206.69 104.94s-160.12-41.32-206.69-104.94c0 0 110.16 7.52 115.69-74.77 0 0 17 114.29 91 114.29s91-114.29 91-114.29c5.53 82.29 115.69 74.77 115.69 74.77z" fill="#a23ace"/><path d="m462.69 407.06c-46.57 63.62-121.81 104.94-206.69 104.94v-65.42c32.25 0 53.67-21.7 67.57-46.19 18.02-31.72 23.43-68.1 23.43-68.1 2.22 33.01 21.28 51.57 43.3 61.95 32.88 15.52 72.39 12.82 72.39 12.82z" fill="#7728a0"/><path d="m349.62 151.149c-3.955-60.043-52.523-82.233-93.62-82.233s-89.665 22.19-93.62 82.233c-10.628 2.055-18.177 15.995-16.988 27.265l1.822 25.648c1.247 11.835 11.65 20.476 23.115 19.19l1.977-.214c23.485 63.063 60.316 69.638 83.694 73.33 23.378-3.692 60.209-10.267 83.694-73.33l1.977.214c11.465 1.286 21.868-7.354 23.115-19.19l1.822-25.648c1.189-11.27-6.36-25.21-16.988-27.265z" fill="#ffd4a6"/><path d="m366.609 178.414-1.822 25.648c-1.247 11.835-11.65 20.476-23.115 19.19l-1.977-.214c-8.027 21.528-17.602 36.48-27.664 46.971-19.404 20.242-40.629 23.924-56.03 26.359v-227.452c41.097 0 89.665 22.19 93.62 82.233 10.627 2.055 18.176 15.995 16.988 27.265z" fill="#ffbb7d"/><path d="m275.826 204.523c-11.431-9.719-28.221-9.719-39.652 0-12.748 10.838-28.758 17.094-45.477 17.771l-18.392.744 1.233 7.414c6.705 40.322 41.586 69.882 82.461 69.882 41.791-2.318 76.381-33.318 83.247-74.606l.447-2.69-18.392-.744c-16.717-.677-32.727-6.933-45.475-17.771z" fill="#efebdc"/><path d="m339.69 223.04-.44 2.69c-3.43 20.65-13.8 38.72-28.53 51.92s-33.82 21.53-54.72 22.68v-103.1c7.06 0 14.12 2.43 19.83 7.29 12.74 10.84 28.75 17.1 45.47 17.77z" fill="#d6cfbd"/><path d="m393.512 298.296c-24.111-52.136 10.062-98.406-3.535-162.009-12.02-56.223-55.5-105.787-133.977-105.787s-121.957 49.564-133.976 105.787c-13.597 63.603 20.576 109.872-3.535 162.009-11.751 25.411-10.501 53.431-5.699 76.329 5.562 26.526 31.009 42.949 56.123 36.097l.237-.065c22.715-6.197 37.708-27.459 36.553-50.976-.637-12.969 2.056-23.819 7.344-37.214 10.425-26.407-6.183-58.941-26.686-103.327s10.22-82.854 10.22-82.854c39.865-16.44 59.42-32.612 59.42-32.612s19.555 16.172 59.42 32.612c0 0 30.723 38.468 10.22 82.854s-37.112 76.921-26.686 103.327c5.288 13.395 7.981 24.245 7.344 37.214-1.155 23.517 13.839 44.779 36.553 50.976l.237.065c25.114 6.852 50.561-9.571 56.123-36.097 4.8-22.898 6.051-50.919-5.7-76.329z" fill="#e58a07"/><path d="m399.21 374.63c-1.56 7.43-4.67 14.06-8.91 19.61-10.88 14.28-29.13 21.41-47.21 16.48l-.24-.06c-7.32-2-13.84-5.56-19.28-10.27-11.42-9.87-18.06-24.77-17.27-40.71.63-12.97-2.06-23.82-7.35-37.21-10.42-26.41 6.19-58.94 26.69-103.33s-10.22-82.85-10.22-82.85c-39.86-16.44-59.42-32.62-59.42-32.62v-73.17c78.48 0 121.96 49.56 133.98 105.79 13.59 63.6-20.58 109.87 3.53 162.01 11.75 25.41 10.5 53.43 5.7 76.33z" fill="#d36c18"/><path d="m200.447 134.667-55.179-51.632s-35.952 12.216-21.639 46.496l60.704 29.956.073-.033c9.761-4.384 16.041-14.088 16.041-24.787z" fill="#a23ace"/></g></g></svg>