<svg id="Layer_1" enable-background="new 0 0 512 512" height="512" viewBox="0 0 512 512" width="512" xmlns="http://www.w3.org/2000/svg"><g><g><g><path d="m512 256c0 56.5-18.31 108.72-49.31 151.06-46.57 63.62-121.81 39.523-206.69 39.523s-160.12 24.097-206.69-39.523c-31-42.34-49.31-94.56-49.31-151.06 0-141.38 114.62-256 256-256s256 114.62 256 256z" fill="#4cd3aa"/></g></g><path d="m256 446.583c84.88 0 160.12 24.097 206.69-39.523 31-42.34 49.31-94.56 49.31-151.06 0-13.979-1.138-27.691-3.294-41.062l-149.811-138.351-277.125 359.699c45.693 25.437 106.93 10.297 174.23 10.297z" fill="#26b290"/><path d="m97.497 390.664c17.99-36.3 26.086-76.875 23.277-117.569l-1.931-27.964-5.939-51.414c-.639-5.58-.959-11.133-.959-16.645 0-61.868 39.869-117.716 99.965-137.038 14.341-4.607 29.216-6.911 44.09-6.911s29.749 2.304 44.09 6.911c65.449 21.04 106.903 85.397 99.006 153.683l-5.939 51.414-1.931 27.964c-2.81 40.694 5.286 81.269 23.277 117.569z" fill="#d36c18"/><path d="m414.5 390.663h-158.5v-357.54c14.87 0 29.75 2.3 44.09 6.91 65.45 21.04 106.9 85.4 99.01 153.68l-5.94 51.42-1.93 27.96c-1.67 24.15.5 48.26 6.3 71.46 3.98 15.89 9.66 31.35 16.97 46.11z" fill="#ad4b07"/><path d="m199.97 260.488h112.06v118.84h-112.06z" fill="#ffbb7d"/><path d="m256 260.491h56.03v118.84h-56.03z" fill="#efa36a"/><path d="m134.563 332.292h242.875v114.294h-242.875z" fill="#ffd4a6"/><path d="m256 332.292h121.44v114.291h-121.44z" fill="#ffbb7d"/><path d="m462.69 407.06c-46.57 63.62-121.81 104.94-206.69 104.94s-160.12-41.32-206.69-104.94c1.28-41.51 35.34-74.77 77.16-74.77h73.5v9.18c0 30.94 25.09 56.03 56.03 56.03 15.47 0 29.48-6.27 39.62-16.41s16.41-24.15 16.41-39.62v-9.18h73.51c41.83 0 75.88 33.25 77.15 74.77z" fill="#ff57cc"/><path d="m462.69 407.06c-46.57 63.62-121.81 104.94-206.69 104.94v-114.5c15.47 0 29.48-6.27 39.62-16.41.57-.57 1.13-1.16 1.68-1.76 9.15-9.97 14.73-23.26 14.73-37.86v-9.18h73.51c4.08 0 8.09.32 11.99.93 36.17 5.63 64.01 36.37 65.16 73.84z" fill="#e224ba"/><path d="m349.62 151.149c-3.955-60.043-52.523-82.233-93.62-82.233s-89.665 22.19-93.62 82.233c-10.628 2.055-18.177 15.995-16.988 27.265l1.822 25.648c1.247 11.835 11.65 20.476 23.115 19.19l1.977-.214c23.485 63.063 60.316 69.638 83.694 73.33 23.378-3.692 60.209-10.267 83.694-73.33l1.977.214c11.465 1.286 21.868-7.354 23.115-19.19l1.822-25.648c1.189-11.27-6.36-25.21-16.988-27.265z" fill="#ffd4a6"/><path d="m366.609 178.414-1.822 25.648c-1.247 11.835-11.65 20.476-23.115 19.19l-1.977-.214c-8.027 21.528-17.602 36.48-27.664 46.971-19.404 20.242-40.629 23.924-56.03 26.359v-227.452c41.097 0 89.665 22.19 93.62 82.233 10.627 2.055 18.176 15.995 16.988 27.265z" fill="#ffbb7d"/><path d="m275.826 204.523c-11.431-9.719-28.221-9.719-39.652 0-12.748 10.838-28.758 17.094-45.477 17.771l-18.392.744 1.233 7.414c6.705 40.322 41.586 69.882 82.461 69.882 41.791-2.318 76.381-33.318 83.247-74.606l.447-2.69-18.392-.744c-16.717-.677-32.727-6.933-45.475-17.771z" fill="#efebdc"/><path d="m275.826 204.523c-11.431-9.719-28.221-9.719-39.652 0-12.748 10.838-28.758 17.094-45.477 17.771l-18.392.744 1.233 7.414c6.705 40.322 41.586 69.882 82.461 69.882 41.791-2.318 76.381-33.318 83.247-74.606l.447-2.69-18.392-.744c-16.717-.677-32.727-6.933-45.475-17.771z" fill="#efebdc"/><path d="m339.69 223.04-.44 2.69c-3.43 20.65-13.8 38.72-28.53 51.92s-33.82 21.53-54.72 22.68v-103.1c7.06 0 14.12 2.43 19.83 7.29 12.74 10.84 28.75 17.1 45.47 17.77z" fill="#d6cfbd"/><path d="m366.732 123.667c-13.997-64.578-57.269-78.001-106.241-78.825-22.505-.379-48.346 5.541-72.824 25.825-30.802 25.524-25.287 80.482-25.287 80.482s62.37 2.601 113.8-46.108c33.32 42.709 97.237 64.558 97.237 64.558 1.077-6.065-5.466-40.307-6.685-45.932z" fill="#d36c18"/><path d="m373.42 169.6s-63.92-21.85-97.24-64.56c-6.6 6.25-13.38 11.66-20.18 16.33v-76.52c1.51-.03 3.01-.04 4.49-.01 48.97.83 92.25 14.25 106.24 78.83 1.22 5.62 7.76 39.86 6.69 45.93z" fill="#ad4b07"/></g></svg>