<svg id="Layer_1" enable-background="new 0 0 512 512" height="512" viewBox="0 0 512 512" width="512" xmlns="http://www.w3.org/2000/svg"><g><g><g><path d="m512 256c0 56.5-18.31 108.72-49.31 151.06-46.57 63.62-121.81 39.523-206.69 39.523s-160.12 24.097-206.69-39.523c-31-42.34-49.31-94.56-49.31-151.06 0-141.38 114.62-256 256-256s256 114.62 256 256z" fill="#584b66"/></g></g><path d="m256 446.583c84.88 0 160.12 24.097 206.69-39.523 31-42.34 49.31-94.56 49.31-151.06 0-9.167-.492-18.217-1.432-27.135l-160.443-160.443-267.571 368.293c45.609 24.833 106.529 9.868 173.446 9.868z" fill="#3d3449"/><g><path d="m199.97 260.488h112.06v118.84h-112.06z" fill="#ffbb7d"/><path d="m256 260.491h56.03v118.84h-56.03z" fill="#efa36a"/><path d="m385.54 332.29h-73.51v.002h-112.06v-.002h-73.5c-41.82 0-75.88 33.26-77.16 74.77 46.57 63.62 121.81 104.94 206.69 104.94s160.12-41.32 206.69-104.94c-1.27-41.52-35.32-74.77-77.15-74.77z" fill="#efebdc"/><path d="m462.69 407.06c-46.57 63.62-121.81 104.94-206.69 104.94v-179.71h129.54c41.83 0 75.88 33.25 77.15 74.77z" fill="#d6cfbd"/><path d="m297.36 359.83v148.84c-13.46 2.19-27.28 3.33-41.36 3.33s-27.9-1.14-41.36-3.33v-148.84z" fill="#d6cfbd"/><path d="m297.36 359.83v148.84c-13.46 2.19-27.28 3.33-41.36 3.33v-152.17z" fill="#bab3a2"/><path d="m349.62 151.149c-3.955-60.043-52.523-82.233-93.62-82.233s-89.666 22.19-93.62 82.233c-10.627 2.055-18.177 15.995-16.988 27.265l1.822 25.648c1.247 11.835 11.65 20.476 23.115 19.19l1.977-.214c23.485 63.063 60.316 69.638 83.694 73.33 23.378-3.692 60.209-10.267 83.694-73.33l1.977.214c11.465 1.286 21.868-7.354 23.115-19.19l1.822-25.648c1.189-11.27-6.36-25.21-16.988-27.265z" fill="#ffbf85"/><path d="m366.609 178.414-1.822 25.648c-1.247 11.835-11.65 20.476-23.115 19.19l-1.977-.214c-8.026 21.528-17.602 36.48-27.664 46.971-19.404 20.242-40.63 23.924-56.03 26.359v-227.452c41.097 0 89.665 22.19 93.62 82.233 10.627 2.055 18.176 15.995 16.988 27.265z" fill="#f7a969"/><path d="m275.826 204.523c-11.431-9.719-28.221-9.719-39.652 0-12.748 10.838-28.758 17.094-45.477 17.771l-18.392.744 1.233 7.414c6.705 40.322 41.586 69.882 82.461 69.882 41.791-2.318 76.381-33.318 83.247-74.606l.447-2.69-18.392-.744c-16.717-.677-32.727-6.933-45.475-17.771z" fill="#efebdc"/><path d="m339.69 223.04-.44 2.69c-3.43 20.65-12.49 39.84-27.22 53.04s-35.13 20.41-56.03 21.56v-103.1c7.06 0 14.12 2.43 19.83 7.29 12.74 10.84 28.75 17.1 45.47 17.77z" fill="#d6cfbd"/><path d="m256 47.667s-96.776 8.224-97.667 91.333h97.667 97.667c-.891-83.109-97.667-91.333-97.667-91.333z" fill="#26b290"/><path d="m353.67 139h-97.67v-91.33s96.78 8.22 97.67 91.33z" fill="#199977"/><path d="m255.976 27.667c-109.21 0-152.264 116.911-138.263 221.92 14.002 105.01 56.705 141.413 138.263 141.413 81.557 0 125.311-36.403 139.313-141.413 14.001-105.01-30.103-221.92-139.313-221.92zm0 256.333c-64.756 0-84.708-46.886-84.708-102.891s29.753-110.127 84.708-110.127 84.708 54.122 84.708 110.127-19.952 102.891-84.708 102.891z" fill="#4cd3aa"/><path d="m256 27.67v43.31c40.75.01 67.64 29.79 78.8 68.02 3.9 13.31 5.88 27.65 5.88 42.11 0 55.99-19.95 102.88-84.68 102.89v107c81.54-.01 125.29-36.41 139.29-141.41s-30.09-221.91-139.29-221.92z" fill="#26b290"/></g></g></svg>