<svg id="Layer_1" enable-background="new 0 0 512 512" height="512" viewBox="0 0 512 512" width="512" xmlns="http://www.w3.org/2000/svg"><g><g><g><path d="m512 256c0 56.5-18.31 108.72-49.31 151.06-46.57 63.62-121.81 39.523-206.69 39.523s-160.12 24.097-206.69-39.523c-31-42.34-49.31-94.56-49.31-151.06 0-141.38 114.62-256 256-256s256 114.62 256 256z" fill="#f7d854"/></g></g><path d="m256 446.583c84.88 0 160.12 24.097 206.69-39.523 31-42.34 49.31-94.56 49.31-151.06 0-15.331-1.352-30.346-3.936-44.936l-153.064-153.064-200.936 159.807 42.538 42.561c4.343 15.533 22.581 19.594 34.064 29.966l-10 97-171.356 19.724v.002c46.57 63.62 121.81 39.523 206.69 39.523z" fill="#eac31c"/><g><path d="m199.97 260.488h112.06v118.84h-112.06z" fill="#f7a969"/><path d="m256 260.491h56.03v118.84h-56.03z" fill="#ea8d4e"/><path d="m312.03 332.29v.002h-112.06v-.002s-149.38 33.26-150.66 74.77c46.57 63.62 121.81 104.94 206.69 104.94s160.12-41.32 206.69-104.94c-1.27-41.52-150.66-74.77-150.66-74.77z" fill="#ffbf85"/><path d="m462.69 407.06c-46.57 63.62-121.81 104.94-206.69 104.94v-179.71l56.03.002s149.792 46.384 150.66 74.768z" fill="#f7a969"/><path d="m462.69 407.06c-46.57 63.62-121.81 104.94-206.69 104.94s-160.12-41.32-206.69-104.94c1.28-41.51 35.34-74.77 77.16-74.77h62.03v10.21c0 37.28 30.22 67.5 67.5 67.5s67.5-30.22 67.5-67.5v-10.21h62.04c41.83 0 75.88 33.25 77.15 74.77z" fill="#ff4571"/><path d="m227.45 407.73h-177.64c-.17-.22-.34-.45-.5-.67.32-10.43 2.71-20.34 6.77-29.33h127.27c11.38 13.86 26.63 24.42 44.1 30z" fill="#ff85a8"/><path d="m462.69 407.06c-46.57 63.62-121.81 104.94-206.69 104.94v-102c37.28 0 67.5-30.22 67.5-67.5v-10.21h62.04c41.83 0 75.88 33.25 77.15 74.77z" fill="#e52541"/><g><path d="m462.69 407.06c-.16.22-.33.45-.5.67h-177.64c17.47-5.58 32.72-16.14 44.1-30h127.27c4.06 8.99 6.45 18.9 6.77 29.33z" fill="#ff4571"/></g><g><path d="m349.95 332.29v.43c0 51.8-42.14 93.95-93.95 93.95s-93.95-42.15-93.95-93.95v-.43h37.92c3.29 18.8 16.08 55.46 56.03 55.46s52.74-36.66 56.03-55.46z" fill="#4cd3aa"/></g><g><path d="m349.95 332.29v.43c0 51.8-42.14 93.95-93.95 93.95v-38.92c39.95 0 52.74-36.66 56.03-55.46z" fill="#26b290"/></g><path d="m349.62 151.149c-3.955-60.043-52.523-82.233-93.62-82.233s-89.666 22.19-93.62 82.233c-10.628 2.055-18.177 15.995-16.988 27.265l1.822 25.648c1.247 11.835 11.65 20.476 23.115 19.19l1.977-.214c23.485 63.063 60.316 69.638 83.694 73.33 23.378-3.692 60.209-10.267 83.694-73.33l1.977.214c11.465 1.286 21.868-7.354 23.115-19.19l1.822-25.648c1.189-11.27-6.36-25.21-16.988-27.265z" fill="#ffbf85"/><path d="m366.609 178.414-1.822 25.648c-1.247 11.835-11.65 20.476-23.115 19.19l-1.977-.214c-8.027 21.528-17.602 36.48-27.664 46.971-19.404 20.242-40.63 23.924-56.03 26.359v-227.452c41.097 0 89.665 22.19 93.62 82.233 10.627 2.055 18.176 15.995 16.988 27.265z" fill="#f7a969"/><path d="m275.826 204.523c-11.431-9.719-28.221-9.719-39.652 0-12.748 10.838-28.758 17.094-45.477 17.771l-18.392.744 1.233 7.414c6.705 40.322 41.586 69.882 82.461 69.882 41.791-2.318 76.381-33.318 83.247-74.606l.447-2.69-18.392-.744c-16.717-.677-32.727-6.933-45.475-17.771z" fill="#efebdc"/><path d="m339.69 223.04-.44 2.69c-3.43 20.65-13.8 38.72-28.53 51.92s-33.82 21.53-54.72 22.68v-103.1c7.06 0 14.12 2.43 19.83 7.29 12.74 10.84 28.75 17.1 45.47 17.77z" fill="#d6cfbd"/><path d="m340.832 86.005 14.168-28.005s-75.329-31.448-125.333-22.333c-19.346 3.526-40 18.667-44 33.25-25.167 15.083-47.167 47.083-32.564 87.459l.018.121 15.879 36.503 15.333-66.667s61.801 21.613 124.278-8.138l33.286 74.805 15.879-36.503.018-.121c3.724-25.06-2.577-50.234-16.962-70.371z" fill="#584b66"/><g><path d="m420.44 452.19c-13.68 11.48-28.57 21.56-44.46 30h-239.96c-15.89-8.44-30.78-18.52-44.46-30z" fill="#ff85a8"/></g><g><path d="m420.44 452.19c-13.68 11.48-28.57 21.56-44.46 30h-119.98v-30z" fill="#ff4571"/></g><path d="m357.79 156.38-.01.12-15.88 36.5-33.29-74.81c-18.09 8.61-36.12 12.93-52.61 14.7v-98.75c46.45 1.92 99 23.86 99 23.86l-14.17 28.01c14.39 20.13 20.69 45.31 16.96 70.37z" fill="#3d3449"/></g></g></svg>