<svg id="Layer_1" enable-background="new 0 0 512 512" height="512" viewBox="0 0 512 512" width="512" xmlns="http://www.w3.org/2000/svg"><g><g><g><path d="m512 256c0 56.5-18.31 108.72-49.31 151.06-46.57 63.62-121.81 39.523-206.69 39.523s-160.12 24.097-206.69-39.523c-31-42.34-49.31-94.56-49.31-151.06 0-141.38 114.62-256 256-256s256 114.62 256 256z" fill="#584b66"/></g></g><path d="m256 446.583c84.88 0 160.12 24.097 206.69-39.523 31-42.34 49.31-94.56 49.31-151.06 0-14.36-1.202-28.438-3.475-42.154l-167.667-167.667-230.128 273.731 10.364 9.684c.992 2.489 2.454 5.725 4.165 8.429-38.726 3.303-75.949 69.037-75.949 69.037 46.57 63.62 121.81 39.523 206.69 39.523z" fill="#3d3449"/><path d="m387.58 256.53c0-12.25 4.06-24.32 11.8-34.43 7.9-10.33 11.79-22.4 11.79-34.42 0-14.61-5.75-29.15-17.02-40.42-15.94-15.94-26.69-35.86-30.95-57.39-.08-.43-.17-.85-.26-1.28-9.07-43.27-49.68-74.26-96.45-74.26h-10.49-10.49c-46.77 0-87.38 30.99-96.45 74.26-.09.43-.18.85-.26 1.28-4.26 21.53-15.01 41.45-30.95 57.39-11.27 11.27-17.02 25.81-17.02 40.42 0 12.02 3.89 24.09 11.79 34.42 7.74 10.11 11.8 22.18 11.8 34.43 0 4.36-.52 8.74-1.56 13.06l-12.13 50.32 145.27-19.58 145.27 19.58-12.13-50.32c-1.04-4.32-1.56-8.7-1.56-13.06z" fill="#d36c18"/><path d="m389.14 269.59 12.13 50.32-145.27-19.58v-286h10.49c46.77 0 87.38 30.99 96.45 74.26.09.43.18.85.26 1.28 4.26 21.53 15.01 41.45 30.95 57.39 11.27 11.27 17.02 25.81 17.02 40.42 0 12.02-3.89 24.09-11.79 34.42-7.74 10.11-11.8 22.18-11.8 34.43 0 4.36.52 8.74 1.56 13.06z" fill="#af4b00"/><ellipse cx="256" cy="62.553" fill="#ffea92" rx="41.25" ry="27.697"/><path d="m297.25 62.55c0 15.3-18.47 27.7-41.25 27.7v-55.39c22.78 0 41.25 12.4 41.25 27.69z" fill="#f7d854"/><path d="m199.97 260.488h112.06v118.84h-112.06z" fill="#f7a969"/><path d="m256 260.491h56.03v118.84h-56.03z" fill="#ea8d4e"/><path d="m385.54 332.29h-73.51v.002h-112.06v-.002h-73.5c-41.82 0-75.88 33.26-77.16 74.77 46.57 63.62 121.81 104.94 206.69 104.94s160.12-41.32 206.69-104.94c-1.27-41.52-35.32-74.77-77.15-74.77z" fill="#ffbf85"/><path d="m462.69 407.06c-46.57 63.62-121.81 104.94-206.69 104.94v-179.71h129.54c41.83 0 75.88 33.25 77.15 74.77z" fill="#f7a969"/><path d="m462.69 407.06c-46.57 63.62-121.81 104.94-206.69 104.94s-160.12-41.32-206.69-104.94c1.28-41.51 35.34-74.77 77.16-74.77h73.5v9.18c0 30.94 25.09 56.03 56.03 56.03 15.47 0 29.48-6.27 39.62-16.41s16.41-24.15 16.41-39.62v-9.18h73.51c41.83 0 75.88 33.25 77.15 74.77z" fill="#ffea92"/><path d="m462.69 407.06c-46.57 63.62-121.81 104.94-206.69 104.94v-114.5c15.47 0 29.48-6.27 39.62-16.41.57-.57 1.13-1.16 1.68-1.76 9.15-9.97 14.73-23.26 14.73-37.86v-9.18h73.51c4.08 0 8.09.32 11.99.93 36.17 5.63 64.01 36.37 65.16 73.84z" fill="#f7d854"/><g><g><path d="m165.658 359.613h30v95.387h-30z" fill="#9d97a5"/></g><g><path d="m316.342 359.613h30v95.387h-30z" fill="#7f7887"/></g></g><path d="m256 422.145v-37.478l-56.03-52.377v-53.517s-31.048-4.391-54.702 3.727c-43.392 14.893-69.74 56.918 110.732 139.645z" fill="#ffd110"/><path d="m199.97 296.367s-32.72 0-20.803 13.966c8.03 9.411 20.803 21.957 20.803 21.957z" fill="#efb000"/><path d="m256 422.145v-37.478l56.03-52.377v-55.843s31.048-2.065 54.702 6.053c43.392 14.893 69.74 56.918-110.732 139.645z" fill="#efb000"/><path d="m312.03 296.367s32.72 0 20.803 13.966c-8.03 9.411-20.803 21.957-20.803 21.957z" fill="#db8200"/><path d="m349.62 151.149c-3.955-60.043-52.523-82.233-93.62-82.233s-89.665 22.19-93.62 82.233c-10.628 2.055-18.177 15.995-16.988 27.265l1.822 25.648c1.247 11.835 11.65 20.476 23.115 19.19l1.977-.214c23.485 63.063 60.316 69.638 83.694 73.33 23.378-3.692 60.209-10.267 83.694-73.33l1.977.214c11.465 1.286 21.868-7.354 23.115-19.19l1.822-25.648c1.189-11.27-6.36-25.21-16.988-27.265z" fill="#ffbf85"/><path d="m366.609 178.414-1.822 25.648c-1.247 11.835-11.65 20.476-23.115 19.19l-1.977-.214c-8.027 21.528-17.602 36.48-27.664 46.971-19.404 20.242-40.629 23.924-56.03 26.359v-227.452c41.097 0 89.665 22.19 93.62 82.233 10.627 2.055 18.176 15.995 16.988 27.265z" fill="#f7a969"/><path d="m275.826 204.523c-11.431-9.719-28.221-9.719-39.652 0-12.748 10.838-28.758 17.094-45.477 17.771l-18.392.744 1.233 7.414c6.705 40.322 41.586 69.882 82.461 69.882 41.791-2.318 76.381-33.318 83.247-74.606l.447-2.69-18.392-.744c-16.717-.677-32.727-6.933-45.475-17.771z" fill="#efebdc"/><path d="m339.69 223.04-.44 2.69c-3.43 20.65-12.49 39.84-27.22 53.04s-35.13 20.41-56.03 21.56v-103.1c7.06 0 14.12 2.43 19.83 7.29 12.74 10.84 28.75 17.1 45.47 17.77z" fill="#d6cfbd"/><path d="m164.5 190.833 30.5-50s26.417 25.615 80.417 30.115l-4.75-32.948s29.054 32.205 78.667 44.642c0 0 25.667-121.808-93.333-121.808-123.001-.001-91.501 129.999-91.501 129.999z" fill="#e58a07"/><path d="m270.67 138 4.75 32.95c-6.93-.58-13.4-1.5-19.42-2.68v-107.44c119 0 93.33 121.81 93.33 121.81-49.61-12.44-78.66-44.64-78.66-44.64z" fill="#d36c18"/></g></svg>