<svg id="Layer_1" enable-background="new 0 0 512 512" height="512" viewBox="0 0 512 512" width="512" xmlns="http://www.w3.org/2000/svg"><g><g><g><circle cx="256" cy="256" fill="#4779f4" r="256"/></g></g><path d="m256 512c141.385 0 256-114.615 256-256 0-7.797-.369-15.508-1.051-23.127l-170.322-170.322-186.582 155.239 33.356 33.008c31.04 16.201 55.832 107.626 20.932 139.535-34.833 31.847-158.537 16.786-159.012 16.728 46.576 63.616 121.796 104.939 206.679 104.939z" fill="#2357cc"/><g><path d="m199.97 260.488h112.06v118.84h-112.06z" fill="#f7a969"/><path d="m256 260.491h56.03v118.84h-56.03z" fill="#ea8d4e"/><path d="m385.54 332.29h-73.51v.002l-56.03 40.208-56.03-40.208v-.002h-73.5c-41.82 0-75.88 33.26-77.16 74.77 46.57 63.62 121.81 104.94 206.69 104.94s160.12-41.32 206.69-104.94c-1.27-41.52-35.32-74.77-77.15-74.77z" fill="#efebdc"/><path d="m462.69 407.06c-46.57 63.62-121.81 104.94-206.69 104.94v-139.5l56.03-40.21h73.51c41.83 0 75.88 33.25 77.15 74.77z" fill="#d6cfbd"/><path d="m349.62 151.149c-3.955-60.043-52.523-82.233-93.62-82.233s-89.665 22.19-93.62 82.233c-10.628 2.055-18.177 15.995-16.988 27.265l1.822 25.648c1.247 11.835 11.65 20.476 23.115 19.19l1.977-.214c23.485 63.063 60.316 69.638 83.694 73.33 23.378-3.692 60.209-10.267 83.694-73.33l1.977.214c11.465 1.286 21.868-7.354 23.115-19.19l1.822-25.648c1.189-11.27-6.36-25.21-16.988-27.265z" fill="#ffbf85"/><path d="m366.609 178.414-1.822 25.648c-1.247 11.835-11.65 20.476-23.115 19.19l-1.977-.214c-8.027 21.528-17.602 36.48-27.664 46.971-19.404 20.242-40.629 23.924-56.03 26.359v-227.452c41.097 0 89.665 22.19 93.62 82.233 10.627 2.055 18.176 15.995 16.988 27.265z" fill="#f7a969"/><path d="m275.826 204.523c-11.431-9.719-28.221-9.719-39.652 0-12.748 10.838-28.758 17.094-45.477 17.771l-18.392.744 1.233 7.414c6.705 40.322 41.586 69.882 82.461 69.882 41.791-2.318 76.381-33.318 83.247-74.606l.447-2.69-18.392-.744c-16.717-.677-32.727-6.933-45.475-17.771z" fill="#efebdc"/><path d="m339.69 223.04-.44 2.69c-3.43 20.65-12.49 39.84-27.22 53.04s-35.13 20.41-56.03 21.56v-103.1c7.06 0 14.12 2.43 19.83 7.29 12.74 10.84 28.75 17.1 45.47 17.77z" fill="#d6cfbd"/><g><g><path d="m199.054 344.472c-3.769 3.56-5.905 8.516-5.905 13.7v19.317c0 5.184 2.136 10.14 5.905 13.7 5.249 4.958 12.87 6.481 19.621 3.922l25.058-9.5v-35.561l-25.058-9.499c-6.752-2.56-14.372-1.037-19.621 3.921z" fill="#584b66"/><g><path d="m312.946 344.472c3.769 3.56 5.905 8.516 5.905 13.7v19.317c0 5.184-2.136 10.14-5.905 13.7-5.249 4.958-12.87 6.481-19.621 3.922l-25.058-9.5v-35.561l25.058-9.499c6.752-2.56 14.372-1.037 19.621 3.921z" fill="#3d3449"/></g></g><ellipse cx="256" cy="367.831" fill="#3d3449" rx="26.582" ry="26.582" transform="matrix(.924 -.383 .383 .924 -121.276 125.966)"/><path d="m282.584 367.832c0 14.677-11.908 26.584-26.584 26.584v-53.169c14.677.001 26.584 11.909 26.584 26.585z" fill="#2b2635"/></g><path d="m359.123 142.035c8.826-27.884 1.958-58.578-18.496-79.484-17.83-18.223-45.289-34.885-86.094-34.885-43.994 0-71.171 19.368-87.462 39.18-15.784 19.195-21.523 44.742-15.802 68.925l9.787 41.37 19.522-20.623 13.511-59.668s35.809 28.427 98.486 26.372l-1.027-28.085 27.026 17.603 9.913 43.777 19.522 20.623z" fill="#584b66"/></g><path d="m359.12 142.04-11.11 35.1-19.52-20.62-9.91-43.78-27.03-17.6 1.03 28.08c-13.46.44-25.68-.52-36.58-2.3v-93.24c40 .39 67.02 16.87 84.63 34.87 20.45 20.91 27.32 51.6 18.49 79.49z" fill="#3d3449"/></g></svg>