<svg id="Layer_1" enable-background="new 0 0 512 512" height="512" viewBox="0 0 512 512" width="512" xmlns="http://www.w3.org/2000/svg"><g><g><g><path d="m512 256c0 56.5-18.31 108.72-49.31 151.06-46.57 63.62-121.81 39.523-206.69 39.523s-160.12 24.097-206.69-39.523c-31-42.34-49.31-94.56-49.31-151.06 0-141.38 114.62-256 256-256s256 114.62 256 256z" fill="#4779f4"/></g></g><path d="m256 446.583c84.88 0 160.12 24.097 206.69-39.523 31-42.34 49.31-94.56 49.31-151.06 0-12.636-.931-25.053-2.7-37.198l-145.328-145.328-231.317 222.893 58.595 54.883-141.94 55.81c46.57 63.62 121.81 39.523 206.69 39.523z" fill="#2357cc"/><g><path d="m293.98 31.348c-24.885-6.641-51.076-6.641-75.96 0-51.389 13.714-91.393 54.068-104.66 105.574-8.484 32.937-7.872 67.558 1.771 100.174l17.524 59.271h246.691l17.524-59.271c9.643-32.616 10.255-67.237 1.771-100.174-13.268-51.506-53.272-91.859-104.661-105.574z" fill="#af4b00"/><path d="m396.87 237.1-17.52 59.27h-123.35v-270c12.77 0 25.54 1.66 37.98 4.98 25.7 6.85 48.54 20.37 66.62 38.61 18.09 18.24 31.4 41.21 38.04 66.96 8.48 32.94 7.87 67.56-1.77 100.18z" fill="#7f3706"/><path d="m199.97 260.488h112.06v118.84h-112.06z" fill="#f7a969"/><path d="m256 260.491h56.03v118.84h-56.03z" fill="#ea8d4e"/><path d="m462.69 407.06c-46.57 63.62-121.81 104.94-206.69 104.94s-160.12-41.32-206.69-104.94c1.28-41.51 35.34-74.77 77.16-74.77h73.5c11.89 22.51 33.96 33.77 56.03 33.77s44.14-11.26 56.03-33.77h73.51c41.83 0 75.88 33.25 77.15 74.77z" fill="#ffd110"/><path d="m462.69 407.06c-46.57 63.62-121.81 104.94-206.69 104.94v-145.94c22.07 0 44.14-11.26 56.03-33.77h73.51c41.83 0 75.88 33.25 77.15 74.77z" fill="#efb000"/><path d="m349.62 151.149c-3.955-60.043-52.523-82.233-93.62-82.233s-89.665 22.19-93.62 82.233c-10.628 2.055-18.177 15.995-16.988 27.265l1.822 25.648c1.247 11.835 11.65 20.476 23.115 19.19l1.977-.214c23.485 63.063 60.316 69.638 83.694 73.33 23.378-3.692 60.209-10.267 83.694-73.33l1.977.214c11.465 1.286 21.868-7.354 23.115-19.19l1.822-25.648c1.189-11.27-6.36-25.21-16.988-27.265z" fill="#ffbf85"/><path d="m366.609 178.414-1.822 25.648c-1.247 11.835-11.65 20.476-23.115 19.19l-1.977-.214c-8.027 21.528-17.602 36.48-27.664 46.971-19.404 20.242-40.629 23.924-56.03 26.359v-227.452c41.097 0 89.665 22.19 93.62 82.233 10.627 2.055 18.176 15.995 16.988 27.265z" fill="#f7a969"/><path d="m275.826 204.523c-11.431-9.719-28.221-9.719-39.652 0-12.748 10.838-28.758 17.094-45.477 17.771l-18.392.744 1.233 7.414c6.705 40.322 41.586 69.882 82.461 69.882 41.791-2.318 76.381-33.318 83.247-74.606l.447-2.69-18.392-.744c-16.717-.677-32.727-6.933-45.475-17.771z" fill="#efebdc"/><path d="m339.69 223.04-.44 2.69c-3.43 20.65-12.49 39.84-27.22 53.04s-35.13 20.41-56.03 21.56v-103.1c7.06 0 14.12 2.43 19.83 7.29 12.74 10.84 28.75 17.1 45.47 17.77z" fill="#d6cfbd"/><path d="m358.365 114.774c-9.999-50.944-53.325-74.274-102.365-74.274s-92.366 23.33-102.365 74.274c-8.974 45.724 29.043 75.226 29.043 75.226 2.381-23.33 19.968-41.898 19.968-41.898 39.013-3.333 53.354-26.435 53.354-26.435s14.341 23.102 53.353 26.435c0 0 17.588 18.568 19.968 41.898.001 0 38.018-29.502 29.044-75.226z" fill="#af4b00"/><path d="m355.24 153.47c-8.45 22.97-25.92 36.53-25.92 36.53-2.38-23.33-19.97-41.9-19.97-41.9-39.01-3.33-53.35-26.43-53.35-26.43v-81.17c49.04 0 92.37 23.33 102.36 74.27 2.89 14.73.91 27.78-3.12 38.7z" fill="#7f3706"/><path d="m256 366.06-20.609 12.9c-26.961 16.876-62.521 8.384-78.948-18.853-14.943-38.107 43.527-41.107 43.527-41.107 3.137 24.064 21.624 41.257 45.554 45.293z" fill="#efebdc"/><path d="m256 366.06 20.609 12.9c26.961 16.876 62.521 8.384 78.948-18.853 14.943-38.107-43.527-41.107-43.527-41.107-3.137 24.064-21.624 41.257-45.554 45.293z" fill="#d6cfbd"/></g></g></svg>