<svg id="Layer_1" enable-background="new 0 0 512 512" height="512" viewBox="0 0 512 512" width="512" xmlns="http://www.w3.org/2000/svg"><g><g><g><path d="m512 256c0 56.5-18.31 108.72-49.31 151.06-46.57 63.62-121.81 39.523-206.69 39.523s-160.12 24.097-206.69-39.523c-31-42.34-49.31-94.56-49.31-151.06 0-141.38 114.62-256 256-256s256 114.62 256 256z" fill="#a23ace"/></g></g><path d="m256 446.583c84.88 0 160.12 24.097 206.69-39.523 31-42.34 49.31-94.56 49.31-151.06 0-12.839-.957-25.453-2.782-37.785l-151.038-151.038-212.912 284.49-95.958 55.393c46.57 63.62 121.81 39.523 206.69 39.523z" fill="#7728a0"/><g><path d="m406.193 174.667c-25.333-157-149.263-153.334-149.263-153.334s-123.93-3.666-149.263 153.334 68 212.667 68 212.667h58.667 21.666 82.193c0-.001 93.333-55.667 68-212.667z" fill="#ffea92"/><path d="m338.19 387.33h-82.19v-366.01c.61 0 .93.01.93.01s123.93-3.66 149.26 153.34c25.34 157-68 212.66-68 212.66z" fill="#f7d854"/><path d="m199.97 260.488h112.06v118.84h-112.06z" fill="#f7a969"/><path d="m256 260.491h56.03v118.84h-56.03z" fill="#ea8d4e"/><path d="m385.54 332.29h-73.51v.002h-112.06v-.002h-73.5c-41.82 0-75.88 33.26-77.16 74.77 46.57 63.62 121.81 104.94 206.69 104.94s160.12-41.32 206.69-104.94c-1.27-41.52-35.32-74.77-77.15-74.77z" fill="#ffbf85"/><path d="m462.69 407.06c-46.57 63.62-121.81 104.94-206.69 104.94v-179.71h129.54c41.83 0 75.88 33.25 77.15 74.77z" fill="#f7a969"/><path d="m349.62 151.149c-3.955-60.043-52.523-82.233-93.62-82.233s-89.666 22.19-93.62 82.233c-10.627 2.055-18.177 15.995-16.988 27.265l1.822 25.648c1.247 11.835 11.65 20.476 23.115 19.19l1.977-.214c23.485 63.063 60.316 69.638 83.694 73.33 23.378-3.692 60.209-10.267 83.694-73.33l1.977.214c11.465 1.286 21.868-7.354 23.115-19.19l1.822-25.648c1.189-11.27-6.36-25.21-16.988-27.265z" fill="#ffbf85"/><path d="m366.609 178.414-1.822 25.648c-1.247 11.835-11.65 20.476-23.115 19.19l-1.977-.214c-8.026 21.528-17.602 36.48-27.664 46.971-19.404 20.242-40.63 23.924-56.03 26.359v-227.452c41.097 0 89.665 22.19 93.62 82.233 10.627 2.055 18.176 15.995 16.988 27.265z" fill="#f7a969"/><path d="m275.826 204.523c-11.431-9.719-28.221-9.719-39.652 0-12.748 10.838-28.758 17.094-45.477 17.771l-18.392.744 1.233 7.414c6.705 40.322 41.586 69.882 82.461 69.882 41.791-2.318 76.381-33.318 83.247-74.606l.447-2.69-18.392-.744c-16.717-.677-32.727-6.933-45.475-17.771z" fill="#efebdc"/><path d="m339.69 223.04-.44 2.69c-3.43 20.65-12.49 39.84-27.22 53.04s-35.13 20.41-56.03 21.56v-103.1c7.06 0 14.12 2.43 19.83 7.29 12.74 10.84 28.75 17.1 45.47 17.77z" fill="#d6cfbd"/><path d="m146.037 169.749s33.63-13.415 46.297-40.082c0 0 53.333 8.667 80-14.667 26.667-23.333 52 6 52 6s14.451 51.419 41.63 48.749c0 0-1.104-114.749-109.034-114.749s-110.893 114.749-110.893 114.749z" fill="#ffea92"/><path d="m365.96 169.75c-27.18 2.67-41.63-48.75-41.63-48.75s-25.33-29.33-52-6c-4.75 4.15-10.34 7.29-16.33 9.65v-69.64c.31-.01.62-.01.93-.01 107.93 0 109.03 114.75 109.03 114.75z" fill="#f7d854"/><g><circle cx="162.734" cy="225.53" fill="#ff4571" r="16.2"/><circle cx="349.266" cy="225.53" fill="#e52541" r="16.2"/></g><path d="m452.765 371.507c-4.418-31.158-32.841-31.159-32.841-31.159l-10.099 13.13c-10.734 13.955-33.875 24.727-53.587 31.846-31.904 11.522-61.748 28.176-87.809 49.889-4.952 4.126-9.28 8.025-12.428 11.371-3.15-3.347-7.479-7.248-12.434-11.375-26.057-21.708-55.894-38.361-87.792-49.882-19.709-7.119-42.849-17.891-53.584-31.847l-10.098-13.13s-28.426 0-32.844 31.158l29.766 32.045c14.015 15.089 18.605 36.516 12.463 56.172-.033.105-.065.21-.098.315 42.96 32.61 96.53 51.96 154.62 51.96s111.66-19.35 154.62-51.96c0-.001 0-.001.001-.002-6.281-19.739-1.719-41.307 12.368-56.473z" fill="#584b66"/><path d="m422.99 403.56c-9.93 10.7-15.13 24.57-15.13 38.75 0 5.93.91 11.91 2.76 17.73-42.96 32.61-96.53 51.96-154.62 51.96v-65.42c3.15-3.34 7.48-7.24 12.43-11.37 26.06-21.71 55.9-38.36 87.81-49.89 19.71-7.11 42.85-17.89 53.58-31.84l10.1-13.13s28.43 0 32.84 31.16z" fill="#3d3449"/></g></g></svg>