<svg id="Layer_1" enable-background="new 0 0 512 512" height="512" viewBox="0 0 512 512" width="512" xmlns="http://www.w3.org/2000/svg"><g><g><g><path d="m512 256c0 50.91-14.87 98.35-40.48 138.22-45.54 70.85-125.05 42.78-215.52 42.78s-169.98 28.07-215.52-42.78c-25.61-39.87-40.48-87.31-40.48-138.22 0-141.38 114.62-256 256-256s256 114.62 256 256z" fill="#584b66"/></g></g><path d="m256 437c90.47 0 169.98 28.07 215.52-42.78 25.61-39.87 40.48-87.31 40.48-138.22 0-2.459-.043-4.908-.112-7.351l-214.01-213.945-142.39 184.311 32.333 32.33c4.312 15.674 22.279 23.209 33.845 33.655l10 79.333-191.186 29.887c45.54 70.85 125.05 42.78 215.52 42.78z" fill="#3d3449"/><g><ellipse cx="256" cy="59.875" fill="#d6cfbd" rx="50.3" ry="45.458"/><path d="m306.3 59.73v.15c0 25.1-22.52 45.45-50.3 45.45v-90.91c27.72 0 50.21 20.27 50.3 45.31z" fill="#bab3a2"/><path d="m199.97 260.488h112.06v118.84h-112.06z" fill="#ffbb7d"/><path d="m256 260.491h56.03v118.84h-56.03z" fill="#efa36a"/><path d="m385.54 332.29h-73.51v.002h-112.06v-.002h-73.5c-41.82 0-75.88 33.26-77.16 74.77 46.57 63.62 121.81 104.94 206.69 104.94s160.12-41.32 206.69-104.94c-1.27-41.52-35.32-74.77-77.15-74.77z" fill="#ffd4a6"/><path d="m462.69 407.06c-46.57 63.62-121.81 104.94-206.69 104.94v-179.71h129.54c41.83 0 75.88 33.25 77.15 74.77z" fill="#ffbb7d"/><path d="m349.62 151.149c-3.955-60.043-52.523-82.233-93.62-82.233s-89.666 22.19-93.62 82.233c-10.628 2.055-18.177 15.995-16.988 27.265l1.822 25.648c1.247 11.835 11.65 20.476 23.115 19.19l1.977-.214c23.485 63.063 60.316 69.638 83.694 73.33 23.378-3.692 60.209-10.267 83.694-73.33l1.977.214c11.465 1.286 21.868-7.354 23.115-19.19l1.822-25.648c1.189-11.27-6.36-25.21-16.988-27.265z" fill="#ffd4a6"/><path d="m366.609 178.414-1.822 25.648c-1.247 11.835-11.65 20.476-23.115 19.19l-1.977-.214c-8.027 21.528-17.602 36.48-27.664 46.971-19.404 20.242-40.63 23.924-56.03 26.359v-227.452c41.097 0 89.665 22.19 93.62 82.233 10.627 2.055 18.176 15.995 16.988 27.265z" fill="#ffbb7d"/><path d="m275.826 204.523c-11.431-9.719-28.221-9.719-39.652 0-12.748 10.838-28.758 17.094-45.477 17.771l-18.392.744 1.233 7.414c6.705 40.322 41.586 69.882 82.461 69.882 41.791-2.318 76.381-33.318 83.247-74.606l.447-2.69-18.392-.744c-16.717-.677-32.727-6.933-45.475-17.771z" fill="#efebdc"/><path d="m339.69 223.04-.44 2.69c-3.43 20.65-13.8 38.72-28.53 51.92s-33.82 21.53-54.72 22.68v-103.1c7.06 0 14.12 2.43 19.83 7.29 12.74 10.84 28.75 17.1 45.47 17.77z" fill="#d6cfbd"/><path d="m256 53.642c-47.413 0-128.278 10.809-110.126 127.216.673 4.313 3.639 7.848 7.647 9.046 14.114 4.216 28.871-4.075 33.34-18.732l4.667-15.305c3.966-13.006 16.172-21.236 29.104-19.623l16.642 2.076c12.44 1.552 25.011 1.552 37.451 0l16.642-2.076c12.932-1.613 25.138 6.617 29.104 19.623l4.667 15.305c4.469 14.657 19.226 22.948 33.34 18.732 4.008-1.197 6.975-4.732 7.647-9.045 18.153-116.409-62.712-127.217-110.125-127.217z" fill="#efebdc"/><path d="m366.13 180.86c-.34 2.16-1.25 4.12-2.58 5.69-1.32 1.57-3.07 2.75-5.07 3.35-14.12 4.22-28.87-4.07-33.34-18.73l-4.67-15.3c-3.96-13.01-16.17-21.24-29.1-19.63l-16.64 2.08c-6.22.78-12.47 1.16-18.73 1.16v-85.84c14.84 0 32.97 1.06 50.3 6.09 38.04 11.03 72.3 41.17 59.83 121.13z" fill="#d6cfbd"/><path d="m471.52 394.22c-45.54 70.85-125.05 117.78-215.52 117.78s-169.98-46.93-215.52-117.78c1.729-1.524 3.133-3.381 4.129-5.459l13.901-29.01c11.45-23.9 36.67-38.06 63.05-35.39l78.41 7.93s7.94 81.92 56.03 118.77c48.09-36.85 56.03-118.77 56.03-118.77l78.41-7.93c26.38-2.67 51.6 11.49 63.05 35.39l13.901 29.01c.996 2.078 2.4 3.935 4.129 5.459z" fill="#d36c18"/><path d="m471.52 394.22c-45.54 70.85-125.05 117.78-215.52 117.78v-60.94c47.34-36.27 55.77-116.22 56.02-118.71 0-.02.01-.04.01-.06l78.41-7.93c26.38-2.67 51.6 11.49 63.05 35.39l13.9 29.01c1 2.08 2.4 3.94 4.13 5.46z" fill="#af4b00"/><path d="m348 360c-5.5-22.75-35.97-27.71-35.97-27.71-11.97 57.29-56.03 114.835-56.03 114.835s-44.06-57.545-56.03-114.835c0 0-30.47 4.96-35.97 27.71-5.202 21.516 27 39 27 39s-41.5 79.5 65 65c106.5 14.5 65-65 65-65s32.202-17.484 27-39z" fill="#efebdc"/><path d="m321 399s41.5 79.5-65 65v-16.88s44.03-57.5 56.02-114.77c0-.02.01-.04.01-.06 0 0 30.47 4.96 35.97 27.71 5.2 21.52-27 39-27 39z" fill="#d6cfbd"/></g></g></svg>