<svg id="Layer_1" enable-background="new 0 0 512 512" height="512" viewBox="0 0 512 512" width="512" xmlns="http://www.w3.org/2000/svg"><g><g><g><path d="m512 256c0 56.5-18.31 108.72-49.31 151.06-46.57 63.62-121.81 39.523-206.69 39.523s-160.12 24.097-206.69-39.523c-31-42.34-49.31-94.56-49.31-151.06 0-141.38 114.62-256 256-256s256 114.62 256 256z" fill="#4cd3aa"/></g></g><path d="m256 446.583c84.88 0 160.12 24.097 206.69-39.523 31-42.34 49.31-94.56 49.31-151.06 0-12.464-.909-24.714-2.63-36.701l-153.673-153.673-275.194 369.943c45.825 26.437 107.573 11.014 175.497 11.014z" fill="#26b290"/><path d="m391.993 374.236h-271.986v-217.506c0-73.177 59.321-132.498 132.498-132.498h6.991c73.177 0 132.498 59.321 132.498 132.498v217.506z" fill="#584b66"/><path d="m391.99 156.73v217.51h-135.99v-350.01h3.5c73.17 0 132.49 59.32 132.49 132.5z" fill="#3d3449"/><path d="m199.97 260.488h112.06v118.84h-112.06z" fill="#ffbb7d"/><path d="m256 260.491h56.03v118.84h-56.03z" fill="#efa36a"/><path d="m385.54 332.29h-73.51v.002h-112.06v-.002h-73.5c-41.82 0-75.88 33.26-77.16 74.77 46.57 63.62 121.81 104.94 206.69 104.94s160.12-41.32 206.69-104.94c-1.27-41.52-35.32-74.77-77.15-74.77z" fill="#ffd4a6"/><path d="m462.69 407.06c-46.57 63.62-121.81 104.94-206.69 104.94v-179.71h129.54c41.83 0 75.88 33.25 77.15 74.77z" fill="#ffbb7d"/><path d="m349.62 151.149c-3.955-60.043-52.523-82.233-93.62-82.233s-89.665 22.19-93.62 82.233c-10.628 2.055-18.177 15.995-16.988 27.265l1.822 25.648c1.247 11.835 11.65 20.476 23.115 19.19l1.977-.214c23.485 63.063 60.316 69.638 83.694 73.33 23.378-3.692 60.209-10.267 83.694-73.33l1.977.214c11.465 1.286 21.868-7.354 23.115-19.19l1.822-25.648c1.189-11.27-6.36-25.21-16.988-27.265z" fill="#ffd4a6"/><path d="m366.609 178.414-1.822 25.648c-1.247 11.835-11.65 20.476-23.115 19.19l-1.977-.214c-8.027 21.528-17.602 36.48-27.664 46.971-19.404 20.242-40.629 23.924-56.03 26.359v-227.452c41.097 0 89.665 22.19 93.62 82.233 10.627 2.055 18.176 15.995 16.988 27.265z" fill="#ffbb7d"/><path d="m196.126 76.784c-25.27 12.571-41.247 38.363-41.247 66.587v11.487l101.121-16.525 101.121 16.525v-11.487c0-28.224-15.977-54.016-41.247-66.587-37.712-18.759-82.036-18.759-119.748 0z" fill="#ffd110"/><path d="m357.12 143.37v11.49l-101.12-16.53v-75.62c20.51 0 41.02 4.69 59.87 14.07 25.27 12.58 41.25 38.37 41.25 66.59z" fill="#f7ac06"/><path d="m275.826 204.523c-11.431-9.719-28.221-9.719-39.652 0-12.748 10.838-28.758 17.094-45.477 17.771l-18.392.744 1.233 7.414c6.705 40.322 41.586 69.882 82.461 69.882 41.791-2.318 76.381-33.318 83.247-74.606l.447-2.69-18.392-.744c-16.717-.677-32.727-6.933-45.475-17.771z" fill="#efebdc"/><path d="m339.69 223.04-.44 2.69c-3.43 20.65-12.49 39.84-27.22 53.04s-35.13 20.41-56.03 21.56v-103.1c7.06 0 14.12 2.43 19.83 7.29 12.74 10.84 28.75 17.1 45.47 17.77z" fill="#d6cfbd"/><g><path d="m256 112.5c-56.03 0-101.121 42.358-101.121 42.358l76.839 9.226c16.13 1.937 32.433 1.937 48.563 0l76.839-9.226c.001 0-45.09-42.358-101.12-42.358z" fill="#ef9b14"/><path d="m357.12 154.86-76.84 9.22c-8.06.97-16.17 1.46-24.28 1.46v-53.04c56.03 0 101.12 42.36 101.12 42.36z" fill="#db8200"/></g><path d="m355.12 407h-67.51l83.39-74.71h-58.97l-56.04 47.76-56.02-47.76h-58.97l83.37 74.71h-67.49c-29.879 0-54.1 24.221-54.1 54.1 42.72 31.97 95.76 50.9 153.22 50.9s110.5-18.93 153.22-50.9c0-29.879-24.221-54.1-54.1-54.1z" fill="#a23ace"/><path d="m409.22 461.1c-42.72 31.97-95.76 50.9-153.22 50.9v-131.96l56.03-47.75h58.97l-83.39 74.71h67.51c14.94 0 28.46 6.06 38.26 15.84 9.78 9.8 15.84 23.32 15.84 38.26z" fill="#7728a0"/><path d="m259.73 431.98-3.74 3.35-3.74-3.35z" fill="#a23ace"/></g></svg>