<svg id="Layer_1" enable-background="new 0 0 512 512" height="512" viewBox="0 0 512 512" width="512" xmlns="http://www.w3.org/2000/svg"><g><g><g><path d="m512 256c0 56.5-18.31 108.72-49.31 151.06-46.57 63.62-121.81 39.523-206.69 39.523s-160.12 24.097-206.69-39.523c-31-42.34-49.31-94.56-49.31-151.06 0-141.38 114.62-256 256-256s256 114.62 256 256z" fill="#a23ace"/></g></g><path d="m256 446.583c84.88 0 160.12 24.097 206.69-39.523 31-42.34 49.31-94.56 49.31-151.06 0-18.857-2.058-37.231-5.927-54.928l-160.073-160.072-25.995 33.005-64.005-63.672-100.746 208.496 34.879 35.039c4.339 15.55 11.208 14.751 22.701 25.132l9.166 77-178.431 42.888c.334.495.677.984 1.014 1.477.74 1.081 1.484 2.159 2.239 3.229.551.779 1.109 1.553 1.669 2.325.494.683.996 1.361 1.497 2.039 46.62 62.477 121.54 38.625 206.012 38.625z" fill="#7728a0"/><g><path d="m199.97 260.488h112.06v118.84h-112.06z" fill="#ffbb7d"/><path d="m256 260.491h56.03v118.84h-56.03z" fill="#efa36a"/><g><path d="m357.48 366v125.09c-31.11 13.46-65.43 20.91-101.48 20.91s-70.37-7.45-101.48-20.91v-125.09l45.45-33.71h112.06z" fill="#ffd4a6"/><path d="m357.48 332.29v158.8c-31.11 13.46-65.43 20.91-101.48 20.91v-179.71z" fill="#ffbb7d"/></g><path d="m199.97 332.29v173.55c-64.86-14.47-120.43-53.56-156.41-106.95 4.55-37.53 36.51-66.6 75.26-66.6z" fill="#ef9b14"/><path d="m468.44 398.89c-35.98 53.39-91.55 92.48-156.41 106.95v-173.55h81.15c38.75 0 70.71 29.07 75.26 66.6z" fill="#d36c18"/><path d="m349.62 151.149c-3.955-60.043-52.523-82.233-93.62-82.233s-89.665 22.19-93.62 82.233c-10.628 2.055-18.177 15.995-16.988 27.265l1.822 25.648c1.247 11.835 11.65 20.476 23.115 19.19l1.977-.214c23.485 63.063 60.316 69.638 83.694 73.33 23.378-3.692 60.209-10.267 83.694-73.33l1.977.214c11.465 1.286 21.868-7.354 23.115-19.19l1.822-25.648c1.189-11.27-6.36-25.21-16.988-27.265z" fill="#ffd4a6"/><path d="m366.609 178.414-1.822 25.648c-1.247 11.835-11.65 20.476-23.115 19.19l-1.977-.214c-8.027 21.528-17.602 36.48-27.664 46.971-19.404 20.242-40.629 23.924-56.03 26.359v-227.452c41.097 0 89.665 22.19 93.62 82.233 10.627 2.055 18.176 15.995 16.988 27.265z" fill="#ffbb7d"/><path d="m275.826 204.523c-11.431-9.719-28.221-9.719-39.652 0-12.748 10.838-28.758 17.094-45.477 17.771l-18.392.744 1.233 7.414c6.705 40.322 41.586 69.882 82.461 69.882 41.791-2.318 76.381-33.318 83.247-74.606l.447-2.69-18.392-.744c-16.717-.677-32.727-6.933-45.475-17.771z" fill="#efebdc"/><path d="m339.69 223.04-.44 2.69c-3.43 20.65-12.49 39.84-27.22 53.04s-35.13 20.41-56.03 21.56v-103.1c7.06 0 14.12 2.43 19.83 7.29 12.74 10.84 28.75 17.1 45.47 17.77z" fill="#d6cfbd"/><path d="m349 98.333-3-57.333-51 20-39-50.667-39 50.667-51-20-3 57.333h-54l47.322 55.424 14.678 33.243 22.814-35.156c9.595-14.786 29.803-18.167 43.688-7.309 10.868 8.498 26.128 8.498 36.996 0 13.886-10.858 34.093-7.477 43.688 7.309l22.814 35.156 14.678-33.243 47.322-55.424z" fill="#ffea92"/><path d="m403 98.33-47.32 55.43-14.68 33.24-22.81-35.16c-5.79-8.91-15.43-13.68-25.22-13.68-6.45 0-12.96 2.07-18.47 6.38-5.44 4.24-11.97 6.37-18.5 6.37v-140.58l39 50.67 51-20 3 57.33z" fill="#f7d854"/></g></g></svg>