<svg id="Layer_1" enable-background="new 0 0 512 512" height="512" viewBox="0 0 512 512" width="512" xmlns="http://www.w3.org/2000/svg"><g><g><g><path d="m512 256c0 57.92-19.24 111.35-51.68 154.25-46.73 61.81-120.86 21.895-204.32 21.895s-157.59 39.915-204.32-21.895c-32.44-42.9-51.68-96.33-51.68-154.25 0-141.38 114.62-256 256-256s256 114.62 256 256z" fill="#584b66"/></g></g><path d="m256 432.145c83.46 0 157.59 39.915 204.32-21.895 32.44-42.9 51.68-96.33 51.68-154.25 0-5.901-.218-11.75-.611-17.551l-170.805-170.805-183.535 152.47 39.124 39.463 16.497 31.879 27.33 87.544-188.32 31.25c46.73 61.81 120.86 21.895 204.32 21.895z" fill="#3d3449"/><path d="m199.97 260.488h112.06v118.84h-112.06z" fill="#f7a969"/><path d="m256 260.491h56.03v118.84h-56.03z" fill="#ea8d4e"/><path d="m323.75 370h-135.5v-34.362c0-8.084 6.553-14.638 14.638-14.638h106.225c8.084 0 14.638 6.553 14.638 14.638v34.362z" fill="#ff4571"/><path d="m323.75 335.64v34.36h-67.75v-49h53.11c8.09 0 14.64 6.55 14.64 14.64z" fill="#e52541"/><path d="m460.32 410.25c-17.51 23.17-38.88 43.26-63.14 59.32-40.47 26.82-89 42.43-141.18 42.43s-100.71-15.61-141.18-42.43c-24.26-16.06-45.63-36.15-63.14-59.32 8.55-33.32 38.8-57.96 74.79-57.96h259.07c36 0 66.24 24.63 74.78 57.96z" fill="#efebdc"/><path d="m460.32 410.25c-17.51 23.17-38.88 43.26-63.14 59.32-40.47 26.82-89 42.43-141.18 42.43v-159.71h129.54c36 0 66.24 24.63 74.78 57.96z" fill="#d6cfbd"/><path d="m349.62 151.149c-3.955-60.043-52.523-82.233-93.62-82.233s-89.665 22.19-93.62 82.233c-10.628 2.055-18.177 15.995-16.988 27.265l1.822 25.648c1.247 11.835 11.65 20.476 23.115 19.19l1.977-.214c23.485 63.063 60.316 69.638 83.694 73.33 23.378-3.692 60.209-10.267 83.694-73.33l1.977.214c11.465 1.286 21.868-7.354 23.115-19.19l1.822-25.648c1.189-11.27-6.36-25.21-16.988-27.265z" fill="#ffbf85"/><path d="m366.609 178.414-1.822 25.648c-1.247 11.835-11.65 20.476-23.115 19.19l-1.977-.214c-8.027 21.528-17.602 36.48-27.664 46.971-19.404 20.242-40.629 23.924-56.03 26.359v-227.452c41.097 0 89.665 22.19 93.62 82.233 10.627 2.055 18.176 15.995 16.988 27.265z" fill="#f7a969"/><path d="m275.826 204.523c-11.431-9.719-28.221-9.719-39.652 0-12.748 10.838-28.758 17.094-45.477 17.771l-18.392.744 1.233 7.414c6.705 40.322 41.586 69.882 82.461 69.882 41.791-2.318 76.381-33.318 83.247-74.606l.447-2.69-18.392-.744c-16.717-.677-32.727-6.933-45.475-17.771z" fill="#efebdc"/><path d="m339.69 223.04-.44 2.69c-3.43 20.65-13.8 38.72-28.53 51.92s-33.82 21.53-54.72 22.68v-103.1c7.06 0 14.12 2.43 19.83 7.29 12.74 10.84 28.75 17.1 45.47 17.77z" fill="#d6cfbd"/><path d="m397.18 457.551v12.02c-40.47 26.819-89 42.429-141.18 42.429s-100.71-15.61-141.18-42.43v-24.643c0-16.158 13.099-29.257 29.257-29.257h211.222c23.13 0 41.881 18.751 41.881 41.881z" fill="#ff4571"/><path d="m397.18 457.55v12.02c-40.47 26.82-89 42.43-141.18 42.43v-96.33h99.3c23.13 0 41.88 18.75 41.88 41.88z" fill="#e52541"/><path d="m256 35.5c-30 0-119.732 8.119-107.366 127.31l27.366 34.42v-42.509c23.2-8.09 56.372-22.684 80-45.721 23.619 23.028 56.776 37.621 79.975 45.712v42.518l27.391-34.42c12.366-119.191-77.366-127.31-107.366-127.31z" fill="#ffea92"/><path d="m363.37 162.81-27.4 34.42v-42.52c-23.19-8.09-56.35-22.68-79.97-45.71v-73.5c30 0 119.73 8.12 107.37 127.31z" fill="#f7d854"/></g></svg>