<svg id="Layer_1" enable-background="new 0 0 512 512" height="512" viewBox="0 0 512 512" width="512" xmlns="http://www.w3.org/2000/svg"><g><g><g><circle cx="256" cy="256" fill="#4cd3aa" r="256"/></g></g><path d="m256 512c141.385 0 256-114.615 256-256 0-12.277-.884-24.346-2.554-36.161l-168.456-168.455-183.391 169.073 35.893 36.801c4.343 15.532 19.49 34.51 19.49 34.51l-6.482 14.482-61.232 62.25c-41.71 0-95.669 38.354-95.952 38.555 46.576 63.619 121.798 104.945 206.684 104.945z" fill="#26b290"/><g><path d="m180.333 296.333h151.333v44.667h-151.333z" fill="#ffd110"/><path d="m256 296.333h75.667v44.667h-75.667z" fill="#efb000"/><path d="m199.97 260.488h112.06v118.84h-112.06z" fill="#ffbb7d"/><path d="m256 260.491h56.03v118.84h-56.03z" fill="#efa36a"/><path d="m310.683 418.5-54.683 61.25-54.683-61.25v-54.5h109.366z" fill="#ef9b14"/><path d="m310.68 364v54.5l-54.68 61.25v-115.75z" fill="#db8200"/><path d="m385.54 332.29-40.86.002-88.68 144.708-88.681-144.706-40.849-.004c-41.82 0-75.88 33.26-77.16 74.77 46.57 63.62 121.81 104.94 206.69 104.94s160.12-41.32 206.69-104.94c-1.27-41.52-35.32-74.77-77.15-74.77z" fill="#7b7284"/><path d="m462.69 407.06c-46.57 63.62-121.81 104.94-206.69 104.94l88.68-179.71h40.86c41.83 0 75.88 33.25 77.15 74.77z" fill="#4a3e56"/><path d="m349.62 151.149c-3.955-60.043-52.523-82.233-93.62-82.233s-89.666 22.19-93.62 82.233c-10.627 2.055-18.177 15.995-16.988 27.265l1.822 25.648c1.247 11.835 11.65 20.476 23.115 19.19l1.977-.214c23.485 63.063 60.316 69.638 83.694 73.33 23.378-3.692 60.209-10.267 83.694-73.33l1.977.214c11.465 1.286 21.868-7.354 23.115-19.19l1.822-25.648c1.189-11.27-6.36-25.21-16.988-27.265z" fill="#ffd4a6"/><path d="m366.609 178.414-1.822 25.648c-1.247 11.835-11.65 20.476-23.115 19.19l-1.977-.214c-8.026 21.528-17.602 36.48-27.664 46.971-19.404 20.242-40.63 23.924-56.03 26.359v-227.452c41.097 0 89.665 22.19 93.62 82.233 10.627 2.055 18.176 15.995 16.988 27.265z" fill="#ffbb7d"/><path d="m275.826 204.523c-11.431-9.719-28.221-9.719-39.652 0-12.748 10.838-28.758 17.094-45.477 17.771l-18.392.744 1.233 7.414c6.705 40.322 41.586 69.882 82.461 69.882 41.791-2.318 76.381-33.318 83.247-74.606l.447-2.69-18.392-.744c-16.717-.677-32.727-6.933-45.475-17.771z" fill="#efebdc"/><path d="m339.69 223.04-.44 2.69c-3.43 20.65-13.8 38.72-28.53 51.92s-33.82 21.53-54.72 22.68v-103.1c7.06 0 14.12 2.43 19.83 7.29 12.74 10.84 28.75 17.1 45.47 17.77z" fill="#d6cfbd"/><path d="m313.241 32.319c-37.052-13.008-77.43-13.008-114.483 0-23.944 8.406-40.732 30.074-42.891 55.359-2.414 28.281-.175 56.766 6.629 84.322h21.064l11.115-18.525c6.882-11.471 11.027-24.374 12.113-37.706.993-12.2 13.12-20.27 24.757-16.476l18.581 6.059c3.817 1.245 7.931 1.245 11.747 0l18.581-6.059c11.637-3.795 23.764 4.276 24.757 16.476 1.085 13.333 5.23 26.236 12.113 37.706l11.115 18.525h21.064c6.804-27.556 9.043-56.041 6.629-84.322-2.159-25.285-18.946-46.953-42.891-55.359z" fill="#d36c18"/><path d="m357.07 109.79c0 20.93-2.53 41.82-7.57 62.21h-21.06l-11.12-18.52c-3.44-5.74-6.2-11.84-8.23-18.16-2.03-6.33-3.33-12.88-3.88-19.55-.99-12.2-13.12-20.27-24.76-16.48l-18.58 6.06c-1.91.63-3.89.94-5.87.94v-83.73c19.36 0 38.72 3.26 57.24 9.76 11.98 4.2 22.16 11.72 29.62 21.35s12.19 21.37 13.27 34.01c.63 7.36.94 14.74.94 22.11z" fill="#ad4b07"/><path d="m180.333 296.333-53.863 35.957 57.863 137.377 26.995-19.743 44.672 62.076v-59z" fill="#ffea92"/><path d="m331.667 296.333 53.863 35.957-57.863 137.377-26.995-19.743-44.672 62.076v-59z" fill="#f7d854"/></g></g></svg>