<svg id="Layer_1" enable-background="new 0 0 512 512" height="512" viewBox="0 0 512 512" width="512" xmlns="http://www.w3.org/2000/svg"><g><g><g><path d="m512 256c0 56.5-18.31 108.72-49.31 151.06-46.57 63.62-121.81 39.523-206.69 39.523s-160.12 24.097-206.69-39.523c-31-42.34-49.31-94.56-49.31-151.06 0-141.38 114.62-256 256-256s256 114.62 256 256z" fill="#ff57cc"/></g></g><path d="m256 446.583c84.88 0 160.12 24.097 206.69-39.523 31-42.34 49.31-94.56 49.31-151.06 0-7.48-.34-14.879-.969-22.195l-163.876-163.877-192.114 148.73 36.346 36.455c4.338 15.555 19.617 26.17 31.113 36.553l-20.833 96.667-152.356 18.703c0 .008-.001.016-.001.024 46.57 63.62 121.81 39.523 206.69 39.523z" fill="#e224ba"/><g><path d="m199.97 274.988h112.06v118.84h-112.06z" fill="#f7a969"/><path d="m256 274.991h56.03v118.84h-56.03z" fill="#ea8d4e"/><path d="m345.82 332.29h-33.79v.002l-56.03 53.208-56.03-53.208v-.002h-33.79c-41.82 0-115.59 33.26-116.87 74.77 46.57 63.62 121.81 104.94 206.69 104.94s160.12-41.32 206.69-104.94c-1.27-41.52-75.04-74.77-116.87-74.77z" fill="#efebdc"/><path d="m462.69 407.06c-46.57 63.62-121.81 104.94-206.69 104.94v-126.5l56.03-53.21h33.79c41.83 0 115.6 33.25 116.87 74.77z" fill="#d6cfbd"/><path d="m349.62 151.149c-3.955-60.043-52.523-82.233-93.62-82.233s-89.665 22.19-93.62 82.233c-10.628 2.055-18.177 15.995-16.988 27.265l1.822 25.648c1.247 11.835 11.65 20.476 23.115 19.19l1.977-.214c23.485 63.063 60.316 69.638 83.694 73.33 23.378-3.692 60.209-10.267 83.694-73.33l1.977.214c11.465 1.286 21.868-7.354 23.115-19.19l1.822-25.648c1.189-11.27-6.36-25.21-16.988-27.265z" fill="#ffbf85"/><path d="m366.609 178.414-1.822 25.648c-1.247 11.835-11.65 20.476-23.115 19.19l-1.977-.214c-8.027 21.528-17.602 36.48-27.664 46.971-19.404 20.242-40.629 23.924-56.03 26.359v-227.452c41.097 0 89.665 22.19 93.62 82.233 10.627 2.055 18.176 15.995 16.988 27.265z" fill="#f7a969"/><path d="m275.826 204.523c-11.431-9.719-28.221-9.719-39.652 0-12.748 10.838-28.758 17.094-45.477 17.771l-18.392.744 1.233 7.414c6.705 40.322 41.586 69.882 82.461 69.882 41.791-2.318 76.381-33.318 83.247-74.606l.447-2.69-18.392-.744c-16.717-.677-32.727-6.933-45.475-17.771z" fill="#efebdc"/><path d="m339.69 223.04-.44 2.69c-3.43 20.65-12.49 39.84-27.22 53.04s-35.13 20.41-56.03 21.56v-103.1c7.06 0 14.12 2.43 19.83 7.29 12.74 10.84 28.75 17.1 45.47 17.77z" fill="#d6cfbd"/><path d="m213.875 36.625s-109.542 38.017-42.208 146.017c0 0 50.333-35 59.333-68 51 67 155.934 28.777 155.934 28.777-47.24-151.777-173.059-106.794-173.059-106.794z" fill="#ffea92"/><path d="m386.93 143.42s-76.81 27.98-130.93-5.9v-107.13c41.01.11 101.36 18.02 130.93 113.03z" fill="#f7d854"/><g><path d="m176.88 499.54c-9.66-3.14-19.07-6.84-28.19-11.05-39.66-18.34-73.83-46.53-99.38-81.43 1.28-41.51 35.34-74.77 77.16-74.77h31.71z" fill="#71a0ff"/><path d="m186.43 502.43c-13.03-3.67-25.64-8.35-37.74-13.94l-18.59-156.2h36.08z" fill="#4779f4"/><path d="m462.69 407.06c-25.55 34.9-59.72 63.09-99.38 81.43-9.12 4.21-18.53 7.91-28.19 11.05l18.7-167.25h31.72c41.83 0 75.88 33.25 77.15 74.77z" fill="#4779f4"/><path d="m381.9 332.29-18.59 156.2c-12.1 5.59-24.71 10.27-37.74 13.94l20.25-170.14z" fill="#2357cc"/></g></g></g></svg>