<svg id="Layer_1" enable-background="new 0 0 512 512" height="512" viewBox="0 0 512 512" width="512" xmlns="http://www.w3.org/2000/svg"><g><g><g><path d="m512 256c0 56.5-18.31 108.72-49.31 151.06-46.57 63.62-121.81 39.523-206.69 39.523s-160.12 24.097-206.69-39.523c-31-42.34-49.31-94.56-49.31-151.06 0-141.38 114.62-256 256-256s256 114.62 256 256z" fill="#ffd110"/></g></g><path d="m256 446.583c84.88 0 160.12 24.097 206.69-39.523 31-42.34 49.31-94.56 49.31-151.06 0-8.678-.437-17.254-1.28-25.71l-137.923-136.592-5.056-4.109-32.81-32.6-254.569 378.497c45.839 26.55 107.644 11.097 175.638 11.097z" fill="#efb000"/><g><path d="m365.47 360.478c24.902 0 45.575-20.133 45.225-45.032-.116-8.255-2.488-15.961-6.525-22.537-4.015-6.54-3.915-14.702.078-21.256 4.092-6.716 6.451-14.604 6.451-23.045s-2.359-16.329-6.451-23.045c-4.021-6.6-4.021-14.784 0-21.383 4.092-6.717 6.451-14.604 6.451-23.045 0-13.775-6.275-26.081-16.122-34.223-4.877-4.033-7.73-9.953-7.684-16.282.001-.133.002-.267.002-.4 0-22.485-13.648-41.78-33.112-50.059-4.687-1.993-8.513-5.62-10.597-10.268-7.605-16.964-23.986-29.136-43.37-30.725-3.525-.289-7.017-.909-10.43-1.838-21.86-5.95-44.913-5.95-66.773 0-3.413.929-6.905 1.549-10.43 1.838-19.384 1.589-35.765 13.761-43.37 30.725-2.083 4.647-5.91 8.274-10.597 10.268-19.463 8.279-33.112 27.574-33.112 50.059 0 .134 0 .267.001.4.046 6.329-2.807 12.248-7.684 16.282-9.846 8.142-16.122 20.449-16.122 34.223 0 8.441 2.359 16.329 6.451 23.045 4.021 6.6 4.021 14.784 0 21.383-4.092 6.716-6.451 14.604-6.451 23.045s2.359 16.329 6.451 23.045c3.993 6.554 4.093 14.715.078 21.256-4.037 6.576-6.409 14.282-6.525 22.537-.35 24.899 20.324 45.032 45.225 45.032z" fill="#494949"/><path d="m404.25 271.65c-3.99 6.56-4.09 14.72-.08 21.26 4.04 6.57 6.41 14.28 6.53 22.54.35 24.9-20.33 45.03-45.23 45.03h-109.47v-327.6c11.23 0 22.46 1.48 33.39 4.46 3.41.93 6.9 1.55 10.43 1.84 19.38 1.59 35.76 13.76 43.37 30.72 2.08 4.65 5.91 8.28 10.59 10.27 19.47 8.28 33.12 27.57 33.12 50.06 0 .13 0 .27-.01.4-.04 6.33 2.81 12.25 7.69 16.28 9.84 8.14 16.12 20.45 16.12 34.22 0 8.44-2.36 16.33-6.45 23.05-4.02 6.6-4.02 14.78 0 21.38 4.09 6.72 6.45 14.61 6.45 23.05s-2.36 16.33-6.45 23.04z" fill="#333"/><path d="m199.97 260.488h112.06v118.84h-112.06z" fill="#af4b00"/><path d="m256 260.491h56.03v118.84h-56.03z" fill="#7f3706"/><path d="m385.54 332.29h-73.51v.002h-112.06v-.002h-73.5c-41.82 0-75.88 33.26-77.16 74.77 46.57 63.62 121.81 104.94 206.69 104.94s160.12-41.32 206.69-104.94c-1.27-41.52-35.32-74.77-77.15-74.77z" fill="#d36c18"/><path d="m462.69 407.06c-46.57 63.62-121.81 104.94-206.69 104.94v-179.71h129.54c41.83 0 75.88 33.25 77.15 74.77z" fill="#af4b00"/><path d="m349.62 151.149c-3.955-60.043-52.523-82.233-93.62-82.233s-89.665 22.19-93.62 82.233c-10.628 2.055-18.177 15.995-16.988 27.265l1.822 25.648c1.247 11.835 11.65 20.476 23.115 19.19l1.977-.214c23.485 63.063 60.316 69.638 83.694 73.33 23.378-3.692 60.209-10.267 83.694-73.33l1.977.214c11.465 1.286 21.868-7.354 23.115-19.19l1.822-25.648c1.189-11.27-6.36-25.21-16.988-27.265z" fill="#d36c18"/><path d="m366.609 178.414-1.822 25.648c-1.247 11.835-11.65 20.476-23.115 19.19l-1.977-.214c-8.027 21.528-17.602 36.48-27.664 46.971-19.404 20.242-40.629 23.924-56.03 26.359v-227.452c41.097 0 89.665 22.19 93.62 82.233 10.627 2.055 18.176 15.995 16.988 27.265z" fill="#af4b00"/><path d="m275.826 204.523c-11.431-9.719-28.221-9.719-39.652 0-12.748 10.838-28.758 17.094-45.477 17.771l-18.392.744 1.233 7.414c6.705 40.322 41.586 69.882 82.461 69.882 41.791-2.318 76.381-33.318 83.247-74.606l.447-2.69-18.392-.744c-16.717-.677-32.727-6.933-45.475-17.771z" fill="#efebdc"/><path d="m339.69 223.04-.44 2.69c-3.43 20.65-13.8 38.72-28.53 51.92s-33.82 21.53-54.72 22.68v-103.1c7.06 0 14.12 2.43 19.83 7.29 12.74 10.84 28.75 17.1 45.47 17.77z" fill="#d6cfbd"/><path d="m335.048 85.707c-4.69 0-9.176.865-13.317 2.432-1.364-19.551-17.645-34.991-37.543-34.991-11.222 0-45.153 0-56.375 0-19.898 0-36.179 15.44-37.543 34.991-4.141-1.567-8.627-2.432-13.317-2.432-20.791 0-37.646 16.855-37.646 37.646s16.854 37.647 37.645 37.647c19.898 0 36.179-15.44 37.543-34.991 4.141 1.567 8.627 2.432 13.317 2.432 11.222 0 21.29-4.915 28.188-12.704 6.897 7.789 16.966 12.704 28.188 12.704 4.69 0 9.176-.865 13.317-2.432 1.364 19.551 17.645 34.991 37.543 34.991 20.792 0 37.646-16.855 37.646-37.646s-16.855-37.647-37.646-37.647z" fill="#494949"/><path d="m372.69 123.35c0 20.8-16.85 37.65-37.64 37.65-19.9 0-36.18-15.44-37.55-34.99-4.14 1.57-8.62 2.43-13.31 2.43-11.22 0-21.29-4.92-28.19-12.7v-62.59h28.19c19.9 0 36.18 15.44 37.54 34.99 4.14-1.57 8.63-2.43 13.32-2.43 20.79 0 37.64 16.85 37.64 37.64z" fill="#333"/><path d="m408.84 461.38c-42.66 31.8-95.55 50.62-152.84 50.62s-110.18-18.82-152.84-50.62l1.34-34.38 38.5-38.5 27.31-56.21h29.66l-22.47 56.21 78.5 46.5 78.5-46.5-22.47-56.21h29.66l27.31 56.21 38.5 38.5z" fill="#4cd3aa"/><path d="m408.84 461.38c-42.66 31.8-95.55 50.62-152.84 50.62v-77l78.5-46.5-11.2-28.02-11.27-28.19h29.66l13.7 28.19 13.61 28.02 38.5 38.5z" fill="#26b290"/></g></g></svg>